SplineFontDB: 3.2
FontName: Kilroy5-8ptRegular
FullName: Kilroy5 8pt Regular
FamilyName: Kilroy5 8pt
Weight: Regular
Copyright: Copyright 2020 The Roboto Serif Project Authors (https://github.com/googlefonts/RobotoSerif) OFL
Version: 1.008
ItalicAngle: 0
UnderlinePosition: -200
UnderlineWidth: 100
Ascent: 800
Descent: 200
InvalidEm: 0
sfntRevision: 0x0001020c
LayerCount: 2
Layer: 0 1 "Back" 1
Layer: 1 1 "Fore" 0
XUID: [1021 1018 -1064020043 9737]
StyleMap: 0x0040
FSType: 0
OS2Version: 4
OS2_WeightWidthSlopeOnly: 0
OS2_UseTypoMetrics: 1
CreationTime: 1586430965
ModificationTime: 1751911153
PfmFamily: 81
TTFWeight: 400
TTFWidth: 5
LineGap: 0
VLineGap: 0
Panose: 0 0 0 0 0 0 0 0 0 0
OS2TypoAscent: 927
OS2TypoAOffset: 0
OS2TypoDescent: -244
OS2TypoDOffset: 0
OS2TypoLinegap: 0
OS2WinAscent: 1048
OS2WinAOffset: 0
OS2WinDescent: 251
OS2WinDOffset: 0
HheadAscent: 927
HheadAOffset: 0
HheadDescent: -244
HheadDOffset: 0
OS2SubXSize: 650
OS2SubYSize: 600
OS2SubXOff: 0
OS2SubYOff: 75
OS2SupXSize: 650
OS2SupYSize: 600
OS2SupXOff: 0
OS2SupYOff: 350
OS2StrikeYSize: 100
OS2StrikeYPos: 311
OS2CapHeight: 710
OS2XHeight: 518
OS2Vendor: 'COMM'
OS2CodePages: 20000193.00000000
OS2UnicodeRanges: a10000ef.4000267a.00000000.00000000
Lookup: 5 0 0 "'locl' Localized Forms in Latin lookup 0" { "'locl' Localized Forms in Latin lookup 0 subtable"  } ['locl' ('latn' <'AZE ' 'CRT ' 'TRK ' > ) ]
Lookup: 1 0 0 "Single Substitution lookup 1" { "Single Substitution lookup 1 subtable"  } []
Lookup: 5 0 0 "'locl' Localized Forms in Latin lookup 2" { "'locl' Localized Forms in Latin lookup 2 subtable"  } ['locl' ('latn' <'PLK ' > ) ]
Lookup: 1 0 0 "Single Substitution lookup 3" { "Single Substitution lookup 3 subtable"  } []
Lookup: 6 0 0 "'locl' Localized Forms in Latin lookup 4" { "'locl' Localized Forms in Latin lookup 4 subtable"  } ['locl' ('latn' <'CAT ' > ) ]
Lookup: 4 0 0 "Ligature Substitution lookup 5" { "Ligature Substitution lookup 5 subtable"  } []

StartChar: .notdef
Encoding: 65536 -1 0
Width: 400
GlyphClass: 1
Flags: W
LayerCount: 2
Fore
SplineSet
0 0 m 1,0,-1
 0 700 l 1,1,-1
 400 700 l 1,2,-1
 400 0 l 1,3,-1
 0 0 l 1,0,-1
50 650 m 1,4,-1
 50 50 l 1,5,-1
 350 50 l 1,6,-1
 350 650 l 1,7,-1
 50 650 l 1,4,-1
EndSplineSet
EndChar

StartChar: A
Encoding: 65 65 6
Width: 729
GlyphClass: 2
Flags: W
AnchorPoint: "Anchor-2" 577 0 basechar 0
AnchorPoint: "Anchor-1" 364 0 basechar 0
AnchorPoint: "Anchor-0" 364 721 basechar 0
LayerCount: 2
Fore
SplineSet
218 301 m 1,0,-1
 489 301 l 1,1,-1
 508 225 l 1,2,-1
 198 225 l 1,3,-1
 218 301 l 1,0,-1
339 680 m 1,4,-1
 368 671 l 1,5,-1
 178 100 l 2,6,7
 178 94 178 94 188.5 88.5 c 128,-1,8
 199 83 199 83 217.5 80 c 128,-1,9
 236 77 236 77 260 77 c 2,10,-1
 270 77 l 1,11,-1
 270 0 l 1,12,-1
 20 0 l 1,13,-1
 20 77 l 1,14,-1
 26 77 l 2,15,16
 51 77 51 77 71.5 89 c 128,-1,17
 92 101 92 101 105 141 c 2,18,-1
 300 722 l 1,19,-1
 423 722 l 1,20,-1
 621 141 l 2,21,22
 634 101 634 101 654.5 89 c 128,-1,23
 675 77 675 77 703 77 c 2,24,-1
 709 77 l 1,25,-1
 709 0 l 1,26,-1
 441 0 l 1,27,-1
 441 77 l 1,28,-1
 451 77 l 2,29,30
 478 77 478 77 497 78.5 c 128,-1,31
 516 80 516 80 526.5 82.5 c 128,-1,32
 537 85 537 85 537 88 c 2,33,-1
 339 680 l 1,4,-1
EndSplineSet
EndChar

StartChar: Aogonek
Encoding: 260 260 15
Width: 729
GlyphClass: 1
Flags: W
LayerCount: 2
Fore
SplineSet
218 301 m 1,0,-1
 489 301 l 1,1,-1
 508 225 l 1,2,-1
 198 225 l 1,3,-1
 218 301 l 1,0,-1
580 40 m 1,4,-1
 608 3 l 1,5,6
 562 -35 562 -35 536.5 -59.5 c 128,-1,7
 511 -84 511 -84 501 -102 c 128,-1,8
 491 -120 491 -120 491 -142 c 0,9,10
 491 -163 491 -163 503 -175 c 128,-1,11
 515 -187 515 -187 539 -187 c 0,12,13
 569 -187 569 -187 590 -172 c 128,-1,14
 611 -157 611 -157 624 -138 c 1,15,-1
 669 -177 l 1,16,17
 643 -211 643 -211 607 -231.5 c 128,-1,18
 571 -252 571 -252 519 -252 c 0,19,20
 463 -252 463 -252 423.5 -230 c 128,-1,21
 384 -208 384 -208 384 -156 c 0,22,23
 384 -129 384 -129 392.5 -108.5 c 128,-1,24
 401 -88 401 -88 422.5 -68 c 128,-1,25
 444 -48 444 -48 482.5 -22.5 c 128,-1,26
 521 3 521 3 580 40 c 1,4,-1
709 0 m 1,27,-1
 568 0 l 1,28,-1
 339 680 l 1,29,-1
 365 655 l 1,30,-1
 180 100 l 2,31,32
 180 94 180 94 190.5 88.5 c 128,-1,33
 201 83 201 83 219.5 80 c 128,-1,34
 238 77 238 77 262 77 c 2,35,-1
 272 77 l 1,36,-1
 272 0 l 1,37,-1
 20 0 l 1,38,-1
 20 77 l 1,39,-1
 26 77 l 2,40,41
 51 77 51 77 71.5 89 c 128,-1,42
 92 101 92 101 105 141 c 2,43,-1
 300 722 l 1,44,-1
 423 722 l 1,45,-1
 621 141 l 2,46,47
 635 101 635 101 655 89 c 128,-1,48
 675 77 675 77 703 77 c 2,49,-1
 709 77 l 1,50,-1
 709 0 l 1,27,-1
EndSplineSet
EndChar

StartChar: Acaron
Encoding: 461 461 16
Width: 729
GlyphClass: 1
Flags: W
LayerCount: 2
Fore
SplineSet
313 805 m 1,0,-1
 387 805 l 1,1,-1
 522 961 l 1,2,-1
 522 981 l 1,3,-1
 471 981 l 1,4,-1
 283 837 l 1,5,-1
 423 842 l 1,6,-1
 239 981 l 1,7,-1
 177 981 l 1,8,-1
 177 961 l 1,9,-1
 313 805 l 1,0,-1
218 301 m 1,10,-1
 489 301 l 1,11,-1
 508 225 l 1,12,-1
 198 225 l 1,13,-1
 218 301 l 1,10,-1
339 680 m 1,14,-1
 368 671 l 1,15,-1
 178 100 l 2,16,17
 178 94 178 94 188.5 88.5 c 128,-1,18
 199 83 199 83 217.5 80 c 128,-1,19
 236 77 236 77 260 77 c 2,20,-1
 270 77 l 1,21,-1
 270 0 l 1,22,-1
 20 0 l 1,23,-1
 20 77 l 1,24,-1
 26 77 l 2,25,26
 51 77 51 77 71.5 89 c 128,-1,27
 92 101 92 101 105 141 c 2,28,-1
 300 722 l 1,29,-1
 423 722 l 1,30,-1
 621 141 l 2,31,32
 635 101 635 101 655 89 c 128,-1,33
 675 77 675 77 703 77 c 2,34,-1
 709 77 l 1,35,-1
 709 0 l 1,36,-1
 441 0 l 1,37,-1
 441 77 l 1,38,-1
 451 77 l 2,39,40
 478 77 478 77 497 78.5 c 128,-1,41
 516 80 516 80 526.5 82.5 c 128,-1,42
 537 85 537 85 537 88 c 2,43,-1
 339 680 l 1,14,-1
EndSplineSet
EndChar

StartChar: Adblgrave
Encoding: 512 512 18
Width: 729
GlyphClass: 1
Flags: W
LayerCount: 2
Fore
SplineSet
457 929 m 2,0,-1
 503 827 l 1,1,-1
 503 793 l 1,2,-1
 460 793 l 1,3,-1
 388 854 l 2,4,5
 366 871 366 871 354 888 c 128,-1,6
 342 905 342 905 342 927 c 0,7,8
 342 945 342 945 356 958 c 128,-1,9
 370 971 370 971 393 971 c 0,10,11
 410 971 410 971 422 965.5 c 128,-1,12
 434 960 434 960 442.5 950.5 c 128,-1,13
 451 941 451 941 457 929 c 2,0,-1
258 929 m 2,14,-1
 301 827 l 1,15,-1
 301 793 l 1,16,-1
 258 793 l 1,17,-1
 186 854 l 2,18,19
 164 871 164 871 152 888 c 128,-1,20
 140 905 140 905 140 927 c 0,21,22
 140 945 140 945 154 958 c 128,-1,23
 168 971 168 971 191 971 c 0,24,25
 208 971 208 971 221 965.5 c 128,-1,26
 234 960 234 960 243 950.5 c 128,-1,27
 252 941 252 941 258 929 c 2,14,-1
218 301 m 1,28,-1
 489 301 l 1,29,-1
 508 225 l 1,30,-1
 198 225 l 1,31,-1
 218 301 l 1,28,-1
339 680 m 1,32,-1
 368 671 l 1,33,-1
 178 100 l 2,34,35
 178 94 178 94 188.5 88.5 c 128,-1,36
 199 83 199 83 217.5 80 c 128,-1,37
 236 77 236 77 260 77 c 2,38,-1
 270 77 l 1,39,-1
 270 0 l 1,40,-1
 20 0 l 1,41,-1
 20 77 l 1,42,-1
 26 77 l 2,43,44
 51 77 51 77 71.5 89 c 128,-1,45
 92 101 92 101 105 141 c 2,46,-1
 300 722 l 1,47,-1
 423 722 l 1,48,-1
 621 141 l 2,49,50
 635 101 635 101 655 89 c 128,-1,51
 675 77 675 77 703 77 c 2,52,-1
 709 77 l 1,53,-1
 709 0 l 1,54,-1
 441 0 l 1,55,-1
 441 77 l 1,56,-1
 451 77 l 2,57,58
 478 77 478 77 497 78.5 c 128,-1,59
 516 80 516 80 526.5 82.5 c 128,-1,60
 537 85 537 85 537 88 c 2,61,-1
 339 680 l 1,32,-1
EndSplineSet
EndChar

StartChar: Ainvertedbreve
Encoding: 514 514 19
Width: 729
GlyphClass: 1
Flags: W
LayerCount: 2
Fore
SplineSet
364 928 m 0,0,1
 307 928 307 928 267.5 911 c 128,-1,2
 228 894 228 894 206.5 856.5 c 128,-1,3
 185 819 185 819 184 757 c 1,4,-1
 260 757 l 1,5,6
 262 794 262 794 271.5 813 c 128,-1,7
 281 832 281 832 303.5 839 c 128,-1,8
 326 846 326 846 364 846 c 0,9,10
 400 846 400 846 421.5 839 c 128,-1,11
 443 832 443 832 453 813 c 128,-1,12
 463 794 463 794 465 757 c 1,13,-1
 545 757 l 1,14,15
 544 819 544 819 521.5 856.5 c 128,-1,16
 499 894 499 894 459 911 c 128,-1,17
 419 928 419 928 364 928 c 0,0,1
218 301 m 1,18,-1
 489 301 l 1,19,-1
 508 225 l 1,20,-1
 198 225 l 1,21,-1
 218 301 l 1,18,-1
339 680 m 1,22,-1
 368 671 l 1,23,-1
 178 100 l 2,24,25
 178 94 178 94 188.5 88.5 c 128,-1,26
 199 83 199 83 217.5 80 c 128,-1,27
 236 77 236 77 260 77 c 2,28,-1
 270 77 l 1,29,-1
 270 0 l 1,30,-1
 20 0 l 1,31,-1
 20 77 l 1,32,-1
 26 77 l 2,33,34
 51 77 51 77 71.5 89 c 128,-1,35
 92 101 92 101 105 141 c 2,36,-1
 300 722 l 1,37,-1
 423 722 l 1,38,-1
 621 141 l 2,39,40
 635 101 635 101 655 89 c 128,-1,41
 675 77 675 77 703 77 c 2,42,-1
 709 77 l 1,43,-1
 709 0 l 1,44,-1
 441 0 l 1,45,-1
 441 77 l 1,46,-1
 451 77 l 2,47,48
 478 77 478 77 497 78.5 c 128,-1,49
 516 80 516 80 526.5 82.5 c 128,-1,50
 537 85 537 85 537 88 c 2,51,-1
 339 680 l 1,22,-1
EndSplineSet
EndChar

StartChar: B
Encoding: 66 66 32
Width: 723
GlyphClass: 2
Flags: W
AnchorPoint: "Anchor-0" 319 741 basechar 0
LayerCount: 2
Fore
SplineSet
402 710 m 2,0,1
 455 710 455 710 496 699 c 128,-1,2
 537 688 537 688 565 665.5 c 128,-1,3
 593 643 593 643 607.5 609 c 128,-1,4
 622 575 622 575 622 530 c 0,5,6
 622 486 622 486 601 450.5 c 128,-1,7
 580 415 580 415 537.5 395 c 128,-1,8
 495 375 495 375 431 375 c 1,9,-1
 441 392 l 1,10,-1
 441 351 l 1,11,-1
 431 371 l 1,12,13
 504 368 504 368 553 346.5 c 128,-1,14
 602 325 602 325 627.5 288 c 128,-1,15
 653 251 653 251 653 199 c 0,16,17
 653 149 653 149 637 111.5 c 128,-1,18
 621 74 621 74 590 49.5 c 128,-1,19
 559 25 559 25 514.5 12.5 c 128,-1,20
 470 0 470 0 412 0 c 2,21,-1
 60 0 l 1,22,-1
 60 77 l 1,23,-1
 71 77 l 2,24,25
 102 77 102 77 125.5 84 c 128,-1,26
 149 91 149 91 149 113 c 2,27,-1
 149 597 l 2,28,29
 149 619 149 619 125.5 626 c 128,-1,30
 102 633 102 633 71 633 c 2,31,-1
 60 633 l 1,32,-1
 60 710 l 1,33,-1
 402 710 l 2,0,1
207 410 m 1,34,-1
 398 410 l 2,35,36
 442 410 442 410 468 422.5 c 128,-1,37
 494 435 494 435 506.5 461 c 128,-1,38
 519 487 519 487 519 526 c 0,39,40
 519 560 519 560 507 583.5 c 128,-1,41
 495 607 495 607 469 620 c 128,-1,42
 443 633 443 633 399 633 c 2,43,-1
 249 633 l 1,44,-1
 249 77 l 1,45,-1
 409 77 l 2,46,47
 459 77 459 77 489 92 c 128,-1,48
 519 107 519 107 533.5 135.5 c 128,-1,49
 548 164 548 164 548 204 c 0,50,51
 548 245 548 245 532.5 274 c 128,-1,52
 517 303 517 303 484 319 c 128,-1,53
 451 335 451 335 398 335 c 2,54,-1
 207 335 l 1,55,-1
 207 410 l 1,34,-1
EndSplineSet
EndChar

StartChar: C
Encoding: 67 67 33
Width: 794
GlyphClass: 2
Flags: W
AnchorPoint: "Anchor-1" 420 0 basechar 0
AnchorPoint: "Anchor-0" 420 741 basechar 0
LayerCount: 2
Fore
SplineSet
403 656 m 0,0,1
 344 656 344 656 300 638.5 c 128,-1,2
 256 621 256 621 227.5 584.5 c 128,-1,3
 199 548 199 548 184.5 491 c 128,-1,4
 170 434 170 434 170 355 c 0,5,6
 170 277 170 277 184.5 219.5 c 128,-1,7
 199 162 199 162 229 125 c 128,-1,8
 259 88 259 88 305 70.5 c 128,-1,9
 351 53 351 53 414 53 c 0,10,11
 488 53 488 53 536.5 80 c 128,-1,12
 585 107 585 107 615 151 c 128,-1,13
 645 195 645 195 663 245 c 1,14,-1
 737 217 l 1,15,16
 713 141 713 141 668.5 87 c 128,-1,17
 624 33 624 33 559.5 4 c 128,-1,18
 495 -25 495 -25 410 -25 c 0,19,20
 331 -25 331 -25 267 -1 c 128,-1,21
 203 23 203 23 157 71 c 128,-1,22
 111 119 111 119 86.5 190 c 128,-1,23
 62 261 62 261 62 355 c 0,24,25
 62 450 62 450 86.5 521 c 128,-1,26
 111 592 111 592 157 639.5 c 128,-1,27
 203 687 203 687 265.5 711 c 128,-1,28
 328 735 328 735 403 735 c 0,29,30
 471 735 471 735 523.5 708.5 c 128,-1,31
 576 682 576 682 608.5 629.5 c 128,-1,32
 641 577 641 577 649 498 c 1,33,-1
 630 548 l 1,34,-1
 644 720 l 1,35,-1
 721 720 l 1,36,-1
 721 458 l 1,37,-1
 637 458 l 1,38,39
 620 517 620 517 589.5 561.5 c 128,-1,40
 559 606 559 606 512.5 631 c 128,-1,41
 466 656 466 656 403 656 c 0,0,1
EndSplineSet
EndChar

StartChar: Ccaron
Encoding: 268 268 38
Width: 794
GlyphClass: 1
Flags: W
LayerCount: 2
Fore
SplineSet
363 805 m 1,0,-1
 437 805 l 1,1,-1
 572 961 l 1,2,-1
 572 981 l 1,3,-1
 521 981 l 1,4,-1
 333 837 l 1,5,-1
 473 842 l 1,6,-1
 289 981 l 1,7,-1
 227 981 l 1,8,-1
 227 961 l 1,9,-1
 363 805 l 1,0,-1
403 656 m 0,10,11
 344 656 344 656 300 638.5 c 128,-1,12
 256 621 256 621 227.5 584.5 c 128,-1,13
 199 548 199 548 184.5 491 c 128,-1,14
 170 434 170 434 170 355 c 0,15,16
 170 277 170 277 184.5 219.5 c 128,-1,17
 199 162 199 162 229 125 c 128,-1,18
 259 88 259 88 305 70.5 c 128,-1,19
 351 53 351 53 414 53 c 0,20,21
 488 53 488 53 536.5 80 c 128,-1,22
 585 107 585 107 615 151 c 128,-1,23
 645 195 645 195 663 245 c 1,24,-1
 737 217 l 1,25,26
 713 141 713 141 668.5 87 c 128,-1,27
 624 33 624 33 559.5 4 c 128,-1,28
 495 -25 495 -25 410 -25 c 0,29,30
 331 -25 331 -25 267 -1 c 128,-1,31
 203 23 203 23 157 71 c 128,-1,32
 111 119 111 119 86.5 190 c 128,-1,33
 62 261 62 261 62 355 c 0,34,35
 62 450 62 450 86.5 521 c 128,-1,36
 111 592 111 592 157 639.5 c 128,-1,37
 203 687 203 687 265.5 711 c 128,-1,38
 328 735 328 735 403 735 c 0,39,40
 471 735 471 735 523.5 708.5 c 128,-1,41
 576 682 576 682 608.5 629.5 c 128,-1,42
 641 577 641 577 649 498 c 1,43,-1
 630 548 l 1,44,-1
 644 720 l 1,45,-1
 721 720 l 1,46,-1
 721 458 l 1,47,-1
 637 458 l 1,48,49
 620 517 620 517 589.5 561.5 c 128,-1,50
 559 606 559 606 512.5 631 c 128,-1,51
 466 656 466 656 403 656 c 0,10,11
EndSplineSet
EndChar

StartChar: D
Encoding: 68 68 40
Width: 815
GlyphClass: 2
Flags: W
AnchorPoint: "Anchor-1" 410 0 basechar 0
AnchorPoint: "Anchor-0" 410 741 basechar 0
LayerCount: 2
Fore
SplineSet
60 633 m 1,0,-1
 60 710 l 1,1,-1
 369 710 l 2,2,3
 460 710 460 710 531.5 688.5 c 128,-1,4
 603 667 603 667 652.5 623.5 c 128,-1,5
 702 580 702 580 727.5 514 c 128,-1,6
 753 448 753 448 753 359 c 0,7,8
 753 271 753 271 727.5 203.5 c 128,-1,9
 702 136 702 136 652.5 91 c 128,-1,10
 603 46 603 46 531.5 23 c 128,-1,11
 460 0 460 0 369 0 c 2,12,-1
 60 0 l 1,13,-1
 60 77 l 1,14,-1
 71 77 l 2,15,16
 102 77 102 77 125.5 84 c 128,-1,17
 149 91 149 91 149 113 c 2,18,-1
 149 597 l 2,19,20
 149 619 149 619 125.5 626 c 128,-1,21
 102 633 102 633 71 633 c 2,22,-1
 60 633 l 1,0,-1
369 633 m 2,23,-1
 249 633 l 1,24,-1
 249 77 l 1,25,-1
 369 77 l 2,26,27
 440 77 440 77 492 94 c 128,-1,28
 544 111 544 111 578 146 c 128,-1,29
 612 181 612 181 629 234 c 128,-1,30
 646 287 646 287 646 359 c 256,31,32
 646 431 646 431 629 482.5 c 128,-1,33
 612 534 612 534 578 567.5 c 128,-1,34
 544 601 544 601 492 617 c 128,-1,35
 440 633 440 633 369 633 c 2,23,-1
EndSplineSet
EndChar

StartChar: Dcaron
Encoding: 270 270 41
Width: 815
GlyphClass: 1
Flags: W
LayerCount: 2
Fore
SplineSet
364 805 m 1,0,-1
 438 805 l 1,1,-1
 573 961 l 1,2,-1
 573 981 l 1,3,-1
 522 981 l 1,4,-1
 334 837 l 1,5,-1
 474 842 l 1,6,-1
 290 981 l 1,7,-1
 228 981 l 1,8,-1
 228 961 l 1,9,-1
 364 805 l 1,0,-1
60 633 m 1,10,-1
 60 710 l 1,11,-1
 369 710 l 2,12,13
 460 710 460 710 531.5 688.5 c 128,-1,14
 603 667 603 667 652.5 623.5 c 128,-1,15
 702 580 702 580 727.5 514 c 128,-1,16
 753 448 753 448 753 359 c 0,17,18
 753 271 753 271 727.5 203.5 c 128,-1,19
 702 136 702 136 652.5 91 c 128,-1,20
 603 46 603 46 531.5 23 c 128,-1,21
 460 0 460 0 369 0 c 2,22,-1
 60 0 l 1,23,-1
 60 77 l 1,24,-1
 71 77 l 2,25,26
 102 77 102 77 125.5 84 c 128,-1,27
 149 91 149 91 149 113 c 2,28,-1
 149 597 l 2,29,30
 149 619 149 619 125.5 626 c 128,-1,31
 102 633 102 633 71 633 c 2,32,-1
 60 633 l 1,10,-1
369 633 m 2,33,-1
 249 633 l 1,34,-1
 249 77 l 1,35,-1
 369 77 l 2,36,37
 440 77 440 77 492 94 c 128,-1,38
 544 111 544 111 578 146 c 128,-1,39
 612 181 612 181 629 234 c 128,-1,40
 646 287 646 287 646 359 c 256,41,42
 646 431 646 431 629 482.5 c 128,-1,43
 612 534 612 534 578 567.5 c 128,-1,44
 544 601 544 601 492 617 c 128,-1,45
 440 633 440 633 369 633 c 2,33,-1
EndSplineSet
EndChar

StartChar: E
Encoding: 69 69 44
Width: 719
GlyphClass: 2
Flags: W
AnchorPoint: "Anchor-2" 497 0 basechar 0
AnchorPoint: "Anchor-1" 425 0 basechar 0
AnchorPoint: "Anchor-0" 425 741 basechar 0
LayerCount: 2
Fore
SplineSet
644 227 m 1,0,-1
 644 0 l 1,1,-1
 60 0 l 1,2,-1
 60 77 l 1,3,-1
 71 77 l 2,4,5
 102 77 102 77 125.5 84 c 128,-1,6
 149 91 149 91 149 113 c 2,7,-1
 149 597 l 2,8,9
 149 619 149 619 125.5 626 c 128,-1,10
 102 633 102 633 71 633 c 2,11,-1
 60 633 l 1,12,-1
 60 710 l 1,13,-1
 625 710 l 1,14,-1
 625 508 l 1,15,-1
 550 508 l 1,16,-1
 537 588 l 2,17,18
 534 606 534 606 521 615.5 c 128,-1,19
 508 625 508 625 481 629 c 128,-1,20
 454 633 454 633 412 633 c 2,21,-1
 249 633 l 1,22,-1
 249 77 l 1,23,-1
 427 77 l 2,24,25
 458 77 458 77 481.5 79 c 128,-1,26
 505 81 505 81 520 86 c 128,-1,27
 535 91 535 91 542.5 100 c 128,-1,28
 550 109 550 109 552 122 c 2,29,-1
 567 227 l 1,30,-1
 644 227 l 1,0,-1
232 402 m 1,31,32
 281 405 281 405 329.5 407.5 c 128,-1,33
 378 410 378 410 427 412.5 c 128,-1,34
 476 415 476 415 524 417 c 1,35,-1
 524 314 l 1,36,37
 476 317 476 317 427 319.5 c 128,-1,38
 378 322 378 322 329.5 324.5 c 128,-1,39
 281 327 281 327 232 329 c 1,40,-1
 232 402 l 1,31,32
EndSplineSet
Substitution2: "'ss01' Style Set 1 lookup 61 subtable" E.alt
EndChar

StartChar: Ecaron
Encoding: 282 282 53
Width: 719
GlyphClass: 1
Flags: W
LayerCount: 2
Fore
SplineSet
334 805 m 1,0,-1
 408 805 l 1,1,-1
 543 961 l 1,2,-1
 543 981 l 1,3,-1
 492 981 l 1,4,-1
 304 837 l 1,5,-1
 444 842 l 1,6,-1
 260 981 l 1,7,-1
 198 981 l 1,8,-1
 198 961 l 1,9,-1
 334 805 l 1,0,-1
644 227 m 1,10,-1
 644 0 l 1,11,-1
 60 0 l 1,12,-1
 60 77 l 1,13,-1
 71 77 l 2,14,15
 102 77 102 77 125.5 84 c 128,-1,16
 149 91 149 91 149 113 c 2,17,-1
 149 597 l 2,18,19
 149 619 149 619 125.5 626 c 128,-1,20
 102 633 102 633 71 633 c 2,21,-1
 60 633 l 1,22,-1
 60 710 l 1,23,-1
 625 710 l 1,24,-1
 625 508 l 1,25,-1
 550 508 l 1,26,-1
 537 588 l 2,27,28
 534 606 534 606 521 615.5 c 128,-1,29
 508 625 508 625 481 629 c 128,-1,30
 454 633 454 633 412 633 c 2,31,-1
 249 633 l 1,32,-1
 249 77 l 1,33,-1
 427 77 l 2,34,35
 458 77 458 77 481.5 79 c 128,-1,36
 505 81 505 81 520 86 c 128,-1,37
 535 91 535 91 542.5 100 c 128,-1,38
 550 109 550 109 552 122 c 2,39,-1
 567 227 l 1,40,-1
 644 227 l 1,10,-1
232 402 m 1,41,42
 281 405 281 405 329.5 407.5 c 128,-1,43
 378 410 378 410 427 412.5 c 128,-1,44
 476 415 476 415 524 417 c 1,45,-1
 524 314 l 1,46,47
 476 317 476 317 427 319.5 c 128,-1,48
 378 322 378 322 329.5 324.5 c 128,-1,49
 281 327 281 327 232 329 c 1,50,-1
 232 402 l 1,41,42
EndSplineSet
Substitution2: "'ss01' Style Set 1 lookup 61 subtable" Ecaron.alt
EndChar

StartChar: Edblgrave
Encoding: 516 516 54
Width: 719
GlyphClass: 1
Flags: W
LayerCount: 2
Fore
SplineSet
445 929 m 2,0,-1
 492 827 l 1,1,-1
 492 793 l 1,2,-1
 449 793 l 1,3,-1
 376 854 l 2,4,5
 354 871 354 871 342.5 888 c 128,-1,6
 331 905 331 905 331 927 c 0,7,8
 331 945 331 945 345 958 c 128,-1,9
 359 971 359 971 382 971 c 0,10,11
 399 971 399 971 411 965.5 c 128,-1,12
 423 960 423 960 431.5 950.5 c 128,-1,13
 440 941 440 941 445 929 c 2,0,-1
246 929 m 2,14,-1
 290 827 l 1,15,-1
 290 793 l 1,16,-1
 247 793 l 1,17,-1
 174 854 l 2,18,19
 152 871 152 871 140.5 888 c 128,-1,20
 129 905 129 905 129 927 c 0,21,22
 129 945 129 945 143 958 c 128,-1,23
 157 971 157 971 180 971 c 0,24,25
 197 971 197 971 210 965.5 c 128,-1,26
 223 960 223 960 232 950.5 c 128,-1,27
 241 941 241 941 246 929 c 2,14,-1
644 227 m 1,28,-1
 644 0 l 1,29,-1
 60 0 l 1,30,-1
 60 77 l 1,31,-1
 71 77 l 2,32,33
 102 77 102 77 125.5 84 c 128,-1,34
 149 91 149 91 149 113 c 2,35,-1
 149 597 l 2,36,37
 149 619 149 619 125.5 626 c 128,-1,38
 102 633 102 633 71 633 c 2,39,-1
 60 633 l 1,40,-1
 60 710 l 1,41,-1
 625 710 l 1,42,-1
 625 508 l 1,43,-1
 550 508 l 1,44,-1
 537 588 l 2,45,46
 534 606 534 606 521 615.5 c 128,-1,47
 508 625 508 625 481 629 c 128,-1,48
 454 633 454 633 412 633 c 2,49,-1
 249 633 l 1,50,-1
 249 77 l 1,51,-1
 427 77 l 2,52,53
 459 77 459 77 482 79 c 128,-1,54
 505 81 505 81 520 86 c 128,-1,55
 535 91 535 91 542.5 100 c 128,-1,56
 550 109 550 109 552 122 c 2,57,-1
 567 227 l 1,58,-1
 644 227 l 1,28,-1
232 402 m 1,59,60
 281 405 281 405 329.5 407.5 c 128,-1,61
 378 410 378 410 427 412.5 c 128,-1,62
 476 415 476 415 524 417 c 1,63,-1
 524 314 l 1,64,65
 476 317 476 317 427 319.5 c 128,-1,66
 378 322 378 322 329.5 324.5 c 128,-1,67
 281 327 281 327 232 329 c 1,68,-1
 232 402 l 1,59,60
EndSplineSet
Substitution2: "'ss01' Style Set 1 lookup 61 subtable" Edblgrave.alt
EndChar

StartChar: Einvertedbreve
Encoding: 518 518 55
Width: 719
GlyphClass: 1
Flags: W
LayerCount: 2
Fore
SplineSet
352 928 m 0,0,1
 295 928 295 928 255.5 911 c 128,-1,2
 216 894 216 894 194.5 856.5 c 128,-1,3
 173 819 173 819 172 757 c 1,4,-1
 248 757 l 1,5,6
 250 794 250 794 259.5 813 c 128,-1,7
 269 832 269 832 291 839 c 128,-1,8
 313 846 313 846 352 846 c 0,9,10
 388 846 388 846 409.5 839 c 128,-1,11
 431 832 431 832 441 813 c 128,-1,12
 451 794 451 794 453 757 c 1,13,-1
 533 757 l 1,14,15
 532 819 532 819 509.5 856.5 c 128,-1,16
 487 894 487 894 447 911 c 128,-1,17
 407 928 407 928 352 928 c 0,0,1
644 227 m 1,18,-1
 644 0 l 1,19,-1
 60 0 l 1,20,-1
 60 77 l 1,21,-1
 71 77 l 2,22,23
 102 77 102 77 125.5 84 c 128,-1,24
 149 91 149 91 149 113 c 2,25,-1
 149 597 l 2,26,27
 149 619 149 619 125.5 626 c 128,-1,28
 102 633 102 633 71 633 c 2,29,-1
 60 633 l 1,30,-1
 60 710 l 1,31,-1
 625 710 l 1,32,-1
 625 508 l 1,33,-1
 550 508 l 1,34,-1
 537 588 l 2,35,36
 534 606 534 606 521 615.5 c 128,-1,37
 508 625 508 625 481 629 c 128,-1,38
 454 633 454 633 412 633 c 2,39,-1
 249 633 l 1,40,-1
 249 77 l 1,41,-1
 427 77 l 2,42,43
 459 77 459 77 482 79 c 128,-1,44
 505 81 505 81 520 86 c 128,-1,45
 535 91 535 91 542.5 100 c 128,-1,46
 550 109 550 109 552 122 c 2,47,-1
 567 227 l 1,48,-1
 644 227 l 1,18,-1
232 402 m 1,49,50
 281 405 281 405 329.5 407.5 c 128,-1,51
 378 410 378 410 427 412.5 c 128,-1,52
 476 415 476 415 524 417 c 1,53,-1
 524 314 l 1,54,55
 476 317 476 317 427 319.5 c 128,-1,56
 378 322 378 322 329.5 324.5 c 128,-1,57
 281 327 281 327 232 329 c 1,58,-1
 232 402 l 1,49,50
EndSplineSet
Substitution2: "'ss01' Style Set 1 lookup 61 subtable" Einvertedbreve.alt
EndChar

StartChar: F
Encoding: 70 70 67
Width: 690
GlyphClass: 2
Flags: W
AnchorPoint: "Anchor-0" 312 741 basechar 0
LayerCount: 2
Fore
SplineSet
249 633 m 1,0,-1
 249 87 l 2,1,2
 249 84 249 84 257 82.5 c 128,-1,3
 265 81 265 81 278.5 79.5 c 128,-1,4
 292 78 292 78 309 77.5 c 128,-1,5
 326 77 326 77 344 77 c 2,6,-1
 364 77 l 1,7,-1
 364 0 l 1,8,-1
 60 0 l 1,9,-1
 60 77 l 1,10,-1
 71 77 l 2,11,12
 102 77 102 77 125.5 84 c 128,-1,13
 149 91 149 91 149 113 c 2,14,-1
 149 597 l 2,15,16
 149 619 149 619 125.5 626 c 128,-1,17
 102 633 102 633 71 633 c 2,18,-1
 60 633 l 1,19,-1
 60 710 l 1,20,-1
 625 710 l 1,21,-1
 625 504 l 1,22,-1
 550 504 l 1,23,-1
 537 588 l 2,24,25
 534 606 534 606 521 615.5 c 128,-1,26
 508 625 508 625 481 629 c 128,-1,27
 454 633 454 633 412 633 c 2,28,-1
 249 633 l 1,0,-1
232 392 m 1,29,30
 281 395 281 395 329.5 397.5 c 128,-1,31
 378 400 378 400 427 402.5 c 128,-1,32
 476 405 476 405 524 407 c 1,33,-1
 524 304 l 1,34,35
 476 307 476 307 427 309.5 c 128,-1,36
 378 312 378 312 329.5 314.5 c 128,-1,37
 281 317 281 317 232 319 c 1,38,-1
 232 392 l 1,29,30
EndSplineSet
Substitution2: "'ss01' Style Set 1 lookup 61 subtable" F.alt
EndChar

StartChar: G
Encoding: 71 71 68
Width: 846
GlyphClass: 2
Flags: W
AnchorPoint: "Anchor-1" 431 0 basechar 0
AnchorPoint: "Anchor-0" 431 741 basechar 0
LayerCount: 2
Fore
SplineSet
712 230 m 2,0,-1
 712 104 l 1,1,2
 697 85 697 85 670.5 62.5 c 128,-1,3
 644 40 644 40 606 20 c 128,-1,4
 568 0 568 0 520 -12.5 c 128,-1,5
 472 -25 472 -25 416 -25 c 0,6,7
 335 -25 335 -25 269.5 -1 c 128,-1,8
 204 23 204 23 158 71 c 128,-1,9
 112 119 112 119 87 190 c 128,-1,10
 62 261 62 261 62 355 c 0,11,12
 62 450 62 450 88.5 521 c 128,-1,13
 115 592 115 592 162.5 639.5 c 128,-1,14
 210 687 210 687 273 711 c 128,-1,15
 336 735 336 735 409 735 c 0,16,17
 476 735 476 735 525.5 711 c 128,-1,18
 575 687 575 687 605.5 640.5 c 128,-1,19
 636 594 636 594 646 526 c 1,20,-1
 627 577 l 1,21,-1
 641 720 l 1,22,-1
 718 720 l 1,23,-1
 718 486 l 1,24,-1
 639 486 l 1,25,26
 622 534 622 534 590.5 572.5 c 128,-1,27
 559 611 559 611 514 634.5 c 128,-1,28
 469 658 469 658 410 658 c 0,29,30
 353 658 353 658 308.5 640 c 128,-1,31
 264 622 264 622 233 585 c 128,-1,32
 202 548 202 548 186 491 c 128,-1,33
 170 434 170 434 170 355 c 0,34,35
 170 277 170 277 186 219.5 c 128,-1,36
 202 162 202 162 233.5 125 c 128,-1,37
 265 88 265 88 311 70.5 c 128,-1,38
 357 53 357 53 416 53 c 0,39,40
 477 53 477 53 516.5 66.5 c 128,-1,41
 556 80 556 80 580 98 c 128,-1,42
 604 116 604 116 615 128 c 1,43,-1
 615 230 l 2,44,45
 615 255 615 255 586.5 262.5 c 128,-1,46
 558 270 558 270 519 270 c 2,47,-1
 488 270 l 1,48,-1
 488 347 l 1,49,-1
 812 347 l 1,50,-1
 812 270 l 1,51,-1
 787 270 l 2,52,53
 750 270 750 270 731 262.5 c 128,-1,54
 712 255 712 255 712 230 c 2,0,-1
EndSplineSet
EndChar

StartChar: Gcaron
Encoding: 486 486 73
Width: 846
GlyphClass: 1
Flags: W
LayerCount: 2
Fore
SplineSet
384 805 m 1,0,-1
 458 805 l 1,1,-1
 593 961 l 1,2,-1
 593 981 l 1,3,-1
 542 981 l 1,4,-1
 354 837 l 1,5,-1
 494 842 l 1,6,-1
 310 981 l 1,7,-1
 248 981 l 1,8,-1
 248 961 l 1,9,-1
 384 805 l 1,0,-1
712 230 m 2,10,-1
 712 104 l 1,11,12
 697 85 697 85 670.5 62.5 c 128,-1,13
 644 40 644 40 606 20 c 128,-1,14
 568 0 568 0 520 -12.5 c 128,-1,15
 472 -25 472 -25 416 -25 c 0,16,17
 335 -25 335 -25 269.5 -1 c 128,-1,18
 204 23 204 23 158 71 c 128,-1,19
 112 119 112 119 87 190 c 128,-1,20
 62 261 62 261 62 355 c 0,21,22
 62 450 62 450 88.5 521 c 128,-1,23
 115 592 115 592 162.5 639.5 c 128,-1,24
 210 687 210 687 273 711 c 128,-1,25
 336 735 336 735 409 735 c 0,26,27
 476 735 476 735 525.5 711 c 128,-1,28
 575 687 575 687 605.5 640.5 c 128,-1,29
 636 594 636 594 646 526 c 1,30,-1
 627 577 l 1,31,-1
 641 720 l 1,32,-1
 718 720 l 1,33,-1
 718 486 l 1,34,-1
 639 486 l 1,35,36
 622 534 622 534 590.5 572.5 c 128,-1,37
 559 611 559 611 514 634.5 c 128,-1,38
 469 658 469 658 410 658 c 0,39,40
 353 658 353 658 308.5 640 c 128,-1,41
 264 622 264 622 233 585 c 128,-1,42
 202 548 202 548 186 491 c 128,-1,43
 170 434 170 434 170 355 c 0,44,45
 170 277 170 277 186 219.5 c 128,-1,46
 202 162 202 162 233.5 125 c 128,-1,47
 265 88 265 88 311 70.5 c 128,-1,48
 357 53 357 53 416 53 c 0,49,50
 477 53 477 53 516.5 66.5 c 128,-1,51
 556 80 556 80 580 98 c 128,-1,52
 604 116 604 116 615 128 c 1,53,-1
 615 230 l 2,54,55
 615 255 615 255 586.5 262.5 c 128,-1,56
 558 270 558 270 519 270 c 2,57,-1
 488 270 l 1,58,-1
 488 347 l 1,59,-1
 812 347 l 1,60,-1
 812 270 l 1,61,-1
 787 270 l 2,62,63
 750 270 750 270 731 262.5 c 128,-1,64
 712 255 712 255 712 230 c 2,10,-1
EndSplineSet
EndChar

StartChar: H
Encoding: 72 72 75
Width: 873
GlyphClass: 2
Flags: W
AnchorPoint: "Anchor-1" 437 0 basechar 0
AnchorPoint: "Anchor-0" 437 741 basechar 0
LayerCount: 2
Fore
SplineSet
229 405 m 1,0,-1
 644 405 l 1,1,-1
 644 328 l 1,2,-1
 229 328 l 1,3,-1
 229 405 l 1,0,-1
60 0 m 1,4,-1
 60 77 l 1,5,-1
 71 77 l 2,6,7
 102 77 102 77 125.5 84 c 128,-1,8
 149 91 149 91 149 113 c 2,9,-1
 149 597 l 2,10,11
 149 619 149 619 125.5 626 c 128,-1,12
 102 633 102 633 71 633 c 2,13,-1
 60 633 l 1,14,-1
 60 710 l 1,15,-1
 345 710 l 1,16,-1
 345 634 l 1,17,-1
 336 634 l 2,18,19
 322 634 322 634 306.5 633 c 128,-1,20
 291 632 291 632 278 630.5 c 128,-1,21
 265 629 265 629 257 627.5 c 128,-1,22
 249 626 249 626 249 623 c 2,23,-1
 249 86 l 2,24,25
 249 84 249 84 257 82.5 c 128,-1,26
 265 81 265 81 278 79.5 c 128,-1,27
 291 78 291 78 306.5 77.5 c 128,-1,28
 322 77 322 77 336 77 c 2,29,-1
 345 77 l 1,30,-1
 345 0 l 1,31,-1
 60 0 l 1,4,-1
528 0 m 1,32,-1
 528 76 l 1,33,-1
 537 76 l 2,34,35
 551 76 551 76 566.5 77 c 128,-1,36
 582 78 582 78 595 79.5 c 128,-1,37
 608 81 608 81 616 82.5 c 128,-1,38
 624 84 624 84 624 87 c 2,39,-1
 624 624 l 2,40,41
 624 626 624 626 616 627.5 c 128,-1,42
 608 629 608 629 595 630.5 c 128,-1,43
 582 632 582 632 566.5 632.5 c 128,-1,44
 551 633 551 633 537 633 c 2,45,-1
 528 633 l 1,46,-1
 528 710 l 1,47,-1
 813 710 l 1,48,-1
 813 633 l 1,49,-1
 802 633 l 2,50,51
 771 633 771 633 748 626 c 128,-1,52
 725 619 725 619 725 597 c 2,53,-1
 725 113 l 2,54,55
 725 91 725 91 748 84 c 128,-1,56
 771 77 771 77 802 77 c 2,57,-1
 813 77 l 1,58,-1
 813 0 l 1,59,-1
 528 0 l 1,32,-1
EndSplineSet
EndChar

StartChar: I
Encoding: 73 73 79
Width: 423
GlyphClass: 2
Flags: W
AnchorPoint: "Anchor-2" 279 0 basechar 0
AnchorPoint: "Anchor-1" 212 0 basechar 0
AnchorPoint: "Anchor-0" 212 741 basechar 0
LayerCount: 2
Fore
SplineSet
161 113 m 2,0,-1
 161 597 l 2,1,2
 161 619 161 619 137.5 626 c 128,-1,3
 114 633 114 633 80 633 c 2,4,-1
 60 633 l 1,5,-1
 60 710 l 1,6,-1
 363 710 l 1,7,-1
 363 633 l 1,8,-1
 343 633 l 2,9,10
 309 633 309 633 285.5 626 c 128,-1,11
 262 619 262 619 262 597 c 2,12,-1
 262 113 l 2,13,14
 262 91 262 91 285.5 84 c 128,-1,15
 309 77 309 77 343 77 c 2,16,-1
 363 77 l 1,17,-1
 363 0 l 1,18,-1
 60 0 l 1,19,-1
 60 77 l 1,20,-1
 80 77 l 2,21,22
 114 77 114 77 137.5 84 c 128,-1,23
 161 91 161 91 161 113 c 2,0,-1
EndSplineSet
EndChar

StartChar: Icaron
Encoding: 463 463 89
Width: 423
GlyphClass: 1
Flags: W
LayerCount: 2
Fore
SplineSet
175 805 m 1,0,-1
 249 805 l 1,1,-1
 384 961 l 1,2,-1
 384 981 l 1,3,-1
 333 981 l 1,4,-1
 145 837 l 1,5,-1
 285 842 l 1,6,-1
 101 981 l 1,7,-1
 39 981 l 1,8,-1
 39 961 l 1,9,-1
 175 805 l 1,0,-1
161 113 m 2,10,-1
 161 597 l 2,11,12
 161 619 161 619 137.5 626 c 128,-1,13
 114 633 114 633 80 633 c 2,14,-1
 60 633 l 1,15,-1
 60 710 l 1,16,-1
 363 710 l 1,17,-1
 363 633 l 1,18,-1
 343 633 l 2,19,20
 309 633 309 633 285.5 626 c 128,-1,21
 262 619 262 619 262 597 c 2,22,-1
 262 113 l 2,23,24
 262 91 262 91 285.5 84 c 128,-1,25
 309 77 309 77 343 77 c 2,26,-1
 363 77 l 1,27,-1
 363 0 l 1,28,-1
 60 0 l 1,29,-1
 60 77 l 1,30,-1
 80 77 l 2,31,32
 114 77 114 77 137.5 84 c 128,-1,33
 161 91 161 91 161 113 c 2,10,-1
EndSplineSet
EndChar

StartChar: Idblgrave
Encoding: 520 520 90
Width: 423
GlyphClass: 1
Flags: W
LayerCount: 2
Fore
SplineSet
305 929 m 2,0,-1
 351 827 l 1,1,-1
 351 793 l 1,2,-1
 308 793 l 1,3,-1
 236 854 l 2,4,5
 214 871 214 871 202 888 c 128,-1,6
 190 905 190 905 190 927 c 0,7,8
 190 945 190 945 204 958 c 128,-1,9
 218 971 218 971 241 971 c 0,10,11
 258 971 258 971 270 965.5 c 128,-1,12
 282 960 282 960 290.5 950.5 c 128,-1,13
 299 941 299 941 305 929 c 2,0,-1
106 929 m 2,14,-1
 149 827 l 1,15,-1
 149 793 l 1,16,-1
 106 793 l 1,17,-1
 34 854 l 2,18,19
 12 871 12 871 0 888 c 128,-1,20
 -12 905 -12 905 -12 927 c 0,21,22
 -12 945 -12 945 2 958 c 128,-1,23
 16 971 16 971 39 971 c 0,24,25
 56 971 56 971 69 965.5 c 128,-1,26
 82 960 82 960 91 950.5 c 128,-1,27
 100 941 100 941 106 929 c 2,14,-1
161 113 m 2,28,-1
 161 597 l 2,29,30
 161 619 161 619 137.5 626 c 128,-1,31
 114 633 114 633 80 633 c 2,32,-1
 60 633 l 1,33,-1
 60 710 l 1,34,-1
 363 710 l 1,35,-1
 363 633 l 1,36,-1
 343 633 l 2,37,38
 309 633 309 633 285.5 626 c 128,-1,39
 262 619 262 619 262 597 c 2,40,-1
 262 113 l 2,41,42
 262 91 262 91 285.5 84 c 128,-1,43
 309 77 309 77 343 77 c 2,44,-1
 363 77 l 1,45,-1
 363 0 l 1,46,-1
 60 0 l 1,47,-1
 60 77 l 1,48,-1
 80 77 l 2,49,50
 114 77 114 77 137.5 84 c 128,-1,51
 161 91 161 91 161 113 c 2,28,-1
EndSplineSet
EndChar

StartChar: Iinvertedbreve
Encoding: 522 522 91
Width: 423
GlyphClass: 1
Flags: W
LayerCount: 2
Fore
SplineSet
212 928 m 0,0,1
 155 928 155 928 115 911 c 128,-1,2
 75 894 75 894 54 856.5 c 128,-1,3
 33 819 33 819 32 757 c 1,4,-1
 108 757 l 1,5,6
 109 794 109 794 119 813 c 128,-1,7
 129 832 129 832 151 839 c 128,-1,8
 173 846 173 846 212 846 c 0,9,10
 248 846 248 846 269 839 c 128,-1,11
 290 832 290 832 300.5 813 c 128,-1,12
 311 794 311 794 313 757 c 1,13,-1
 393 757 l 1,14,15
 392 819 392 819 369.5 856.5 c 128,-1,16
 347 894 347 894 307 911 c 128,-1,17
 267 928 267 928 212 928 c 0,0,1
161 113 m 2,18,-1
 161 597 l 2,19,20
 161 619 161 619 137.5 626 c 128,-1,21
 114 633 114 633 80 633 c 2,22,-1
 60 633 l 1,23,-1
 60 710 l 1,24,-1
 363 710 l 1,25,-1
 363 633 l 1,26,-1
 343 633 l 2,27,28
 309 633 309 633 285.5 626 c 128,-1,29
 262 619 262 619 262 597 c 2,30,-1
 262 113 l 2,31,32
 262 91 262 91 285.5 84 c 128,-1,33
 309 77 309 77 343 77 c 2,34,-1
 363 77 l 1,35,-1
 363 0 l 1,36,-1
 60 0 l 1,37,-1
 60 77 l 1,38,-1
 80 77 l 2,39,40
 114 77 114 77 137.5 84 c 128,-1,41
 161 91 161 91 161 113 c 2,18,-1
EndSplineSet
EndChar

StartChar: J
Encoding: 74 74 94
Width: 672
GlyphClass: 2
Flags: W
AnchorPoint: "Anchor-0" 452 741 basechar 0
LayerCount: 2
Fore
SplineSet
317 710 m 1,0,-1
 624 710 l 1,1,-1
 624 633 l 1,2,-1
 604 633 l 2,3,4
 572 633 572 633 549.5 626 c 128,-1,5
 527 619 527 619 527 597 c 2,6,-1
 527 209 l 2,7,8
 527 146 527 146 508 101 c 128,-1,9
 489 56 489 56 455 28.5 c 128,-1,10
 421 1 421 1 375 -12 c 128,-1,11
 329 -25 329 -25 275 -25 c 0,12,13
 217 -25 217 -25 174 -11.5 c 128,-1,14
 131 2 131 2 102 20.5 c 128,-1,15
 73 39 73 39 55 54 c 1,16,-1
 55 226 l 1,17,-1
 171 226 l 1,18,-1
 171 49 l 1,19,20
 153 54 153 54 140 64 c 128,-1,21
 127 74 127 74 120.5 84 c 128,-1,22
 114 94 114 94 115.5 101 c 128,-1,23
 117 108 117 108 128 106 c 1,24,25
 142 94 142 94 162.5 81.5 c 128,-1,26
 183 69 183 69 211 60.5 c 128,-1,27
 239 52 239 52 275 52 c 0,28,29
 324 52 324 52 357.5 65 c 128,-1,30
 391 78 391 78 408.5 112.5 c 128,-1,31
 426 147 426 147 426 209 c 2,32,-1
 426 597 l 2,33,34
 426 612 426 612 415 619.5 c 128,-1,35
 404 627 404 627 384.5 630 c 128,-1,36
 365 633 365 633 341 633 c 2,37,-1
 317 633 l 1,38,-1
 317 710 l 1,0,-1
EndSplineSet
EndChar

StartChar: K
Encoding: 75 75 96
Width: 793
GlyphClass: 2
Flags: W
AnchorPoint: "Anchor-1" 408 0 basechar 0
AnchorPoint: "Anchor-0" 408 741 basechar 0
LayerCount: 2
Fore
SplineSet
60 0 m 1,0,-1
 60 77 l 1,1,-1
 71 77 l 2,2,3
 102 77 102 77 125.5 84 c 128,-1,4
 149 91 149 91 149 113 c 2,5,-1
 149 597 l 2,6,7
 149 619 149 619 125.5 626 c 128,-1,8
 102 633 102 633 71 633 c 2,9,-1
 60 633 l 1,10,-1
 60 710 l 1,11,-1
 340 710 l 1,12,-1
 340 633 l 1,13,-1
 331 633 l 2,14,15
 319 633 319 633 304.5 632.5 c 128,-1,16
 290 632 290 632 277.5 630.5 c 128,-1,17
 265 629 265 629 257 627.5 c 128,-1,18
 249 626 249 626 249 623 c 2,19,-1
 249 86 l 2,20,21
 249 84 249 84 257 82.5 c 128,-1,22
 265 81 265 81 277.5 79.5 c 128,-1,23
 290 78 290 78 304.5 77.5 c 128,-1,24
 319 77 319 77 331 77 c 2,25,-1
 340 77 l 1,26,-1
 340 0 l 1,27,-1
 60 0 l 1,0,-1
463 0 m 1,28,-1
 463 77 l 1,29,-1
 472 77 l 2,30,31
 493 77 493 77 512 78 c 128,-1,32
 531 79 531 79 543.5 81.5 c 128,-1,33
 556 84 556 84 556 87 c 2,34,-1
 299 343 l 1,35,-1
 299 373 l 1,36,-1
 565 622 l 2,37,38
 565 626 565 626 553 628 c 128,-1,39
 541 630 541 630 523 631.5 c 128,-1,40
 505 633 505 633 486 633 c 2,41,-1
 477 633 l 1,42,-1
 477 710 l 1,43,-1
 737 710 l 1,44,-1
 737 633 l 1,45,-1
 710 633 l 2,46,47
 699 633 699 633 688 630.5 c 128,-1,48
 677 628 677 628 665.5 622 c 128,-1,49
 654 616 654 616 642 604 c 2,50,-1
 376 356 l 1,51,-1
 376 399 l 1,52,-1
 679 98 l 2,53,54
 688 89 688 89 698.5 84.5 c 128,-1,55
 709 80 709 80 720.5 78.5 c 128,-1,56
 732 77 732 77 745 77 c 2,57,-1
 763 77 l 1,58,-1
 763 0 l 1,59,-1
 463 0 l 1,28,-1
EndSplineSet
EndChar

StartChar: L
Encoding: 76 76 98
Width: 664
GlyphClass: 2
Flags: W
AnchorPoint: "Anchor-2" 505 710 basechar 0
AnchorPoint: "Anchor-1" 407 0 basechar 0
AnchorPoint: "Anchor-0" 407 741 basechar 0
LayerCount: 2
Fore
SplineSet
356 710 m 1,0,-1
 60 710 l 1,1,-1
 60 633 l 1,2,-1
 71 633 l 2,3,4
 102 633 102 633 125.5 626 c 128,-1,5
 149 619 149 619 149 597 c 2,6,-1
 149 113 l 2,7,8
 149 91 149 91 125.5 84 c 128,-1,9
 102 77 102 77 71 77 c 2,10,-1
 60 77 l 1,11,-1
 60 0 l 1,12,-1
 614 0 l 1,13,-1
 614 236 l 1,14,-1
 537 236 l 1,15,-1
 522 122 l 2,16,17
 520 104 520 104 507 94 c 128,-1,18
 494 84 494 84 467 80.5 c 128,-1,19
 440 77 440 77 397 77 c 2,20,-1
 249 77 l 1,21,-1
 249 597 l 2,22,23
 249 619 249 619 275 626 c 128,-1,24
 301 633 301 633 340 633 c 2,25,-1
 356 633 l 1,26,-1
 356 710 l 1,0,-1
EndSplineSet
EndChar

StartChar: M
Encoding: 77 77 104
Width: 1004
GlyphClass: 2
Flags: W
AnchorPoint: "Anchor-1" 490 0 basechar 0
LayerCount: 2
Fore
SplineSet
62 0 m 1,0,-1
 62 77 l 1,1,-1
 73 77 l 2,2,3
 94 77 94 77 111.5 80 c 128,-1,4
 129 83 129 83 140 91 c 128,-1,5
 151 99 151 99 151 113 c 2,6,-1
 151 597 l 2,7,8
 151 612 151 612 140 619.5 c 128,-1,9
 129 627 129 627 111.5 630 c 128,-1,10
 94 633 94 633 73 633 c 2,11,-1
 62 633 l 1,12,-1
 62 710 l 1,13,-1
 319 710 l 1,14,-1
 516 109 l 1,15,-1
 479 88 l 1,16,-1
 692 710 l 1,17,-1
 942 710 l 1,18,-1
 942 633 l 1,19,-1
 931 633 l 2,20,21
 901 633 901 633 877.5 626 c 128,-1,22
 854 619 854 619 854 597 c 2,23,-1
 854 113 l 2,24,25
 854 91 854 91 877.5 84 c 128,-1,26
 901 77 901 77 931 77 c 2,27,-1
 942 77 l 1,28,-1
 942 0 l 1,29,-1
 669 0 l 1,30,-1
 669 77 l 1,31,-1
 678 77 l 2,32,33
 693 77 693 77 711 78 c 128,-1,34
 729 79 729 79 742 81.5 c 128,-1,35
 755 84 755 84 755 87 c 2,36,-1
 755 691 l 1,37,-1
 774 702 l 1,38,-1
 524 -2 l 1,39,-1
 458 -2 l 1,40,-1
 218 701 l 1,41,-1
 236 692 l 1,42,-1
 236 87 l 2,43,44
 236 84 236 84 248.5 81.5 c 128,-1,45
 261 79 261 79 276.5 78 c 128,-1,46
 292 77 292 77 300 77 c 2,47,-1
 304 77 l 1,48,-1
 304 0 l 1,49,-1
 62 0 l 1,0,-1
EndSplineSet
EndChar

StartChar: N
Encoding: 78 78 106
Width: 848
GlyphClass: 2
Flags: W
AnchorPoint: "Anchor-1" 434 0 basechar 0
AnchorPoint: "Anchor-0" 434 741 basechar 0
LayerCount: 2
Fore
SplineSet
62 0 m 1,0,-1
 62 77 l 1,1,-1
 73 77 l 2,2,3
 94 77 94 77 111.5 80 c 128,-1,4
 129 83 129 83 140 91 c 128,-1,5
 151 99 151 99 151 113 c 2,6,-1
 151 597 l 2,7,8
 151 612 151 612 140 619.5 c 128,-1,9
 129 627 129 627 111.5 630 c 128,-1,10
 94 633 94 633 73 633 c 2,11,-1
 62 633 l 1,12,-1
 62 710 l 1,13,-1
 287 710 l 1,14,-1
 655 92 l 1,15,-1
 624 86 l 1,16,-1
 624 623 l 2,17,18
 624 627 624 627 611 629 c 128,-1,19
 598 631 598 631 580.5 632 c 128,-1,20
 563 633 563 633 550 633 c 2,21,-1
 536 633 l 1,22,-1
 536 710 l 1,23,-1
 798 710 l 1,24,-1
 798 633 l 1,25,-1
 787 633 l 2,26,27
 767 633 767 633 749 630 c 128,-1,28
 731 627 731 627 720.5 619.5 c 128,-1,29
 710 612 710 612 710 597 c 2,30,-1
 710 0 l 1,31,-1
 601 0 l 1,32,-1
 203 666 l 1,33,-1
 236 669 l 1,34,-1
 236 87 l 2,35,36
 236 84 236 84 249 81.5 c 128,-1,37
 262 79 262 79 280 78 c 128,-1,38
 298 77 298 77 310 77 c 2,39,-1
 324 77 l 1,40,-1
 324 0 l 1,41,-1
 62 0 l 1,0,-1
EndSplineSet
EndChar

StartChar: Ncaron
Encoding: 327 327 110
Width: 848
GlyphClass: 1
Flags: W
LayerCount: 2
Fore
SplineSet
397 805 m 1,0,-1
 471 805 l 1,1,-1
 606 961 l 1,2,-1
 606 981 l 1,3,-1
 555 981 l 1,4,-1
 367 837 l 1,5,-1
 507 842 l 1,6,-1
 323 981 l 1,7,-1
 261 981 l 1,8,-1
 261 961 l 1,9,-1
 397 805 l 1,0,-1
62 0 m 1,10,-1
 62 77 l 1,11,-1
 73 77 l 2,12,13
 94 77 94 77 111.5 80 c 128,-1,14
 129 83 129 83 140 91 c 128,-1,15
 151 99 151 99 151 113 c 2,16,-1
 151 597 l 2,17,18
 151 612 151 612 140 619.5 c 128,-1,19
 129 627 129 627 111.5 630 c 128,-1,20
 94 633 94 633 73 633 c 2,21,-1
 62 633 l 1,22,-1
 62 710 l 1,23,-1
 287 710 l 1,24,-1
 655 92 l 1,25,-1
 624 86 l 1,26,-1
 624 623 l 2,27,28
 624 627 624 627 611 629 c 128,-1,29
 598 631 598 631 580.5 632 c 128,-1,30
 563 633 563 633 550 633 c 2,31,-1
 536 633 l 1,32,-1
 536 710 l 1,33,-1
 798 710 l 1,34,-1
 798 633 l 1,35,-1
 787 633 l 2,36,37
 767 633 767 633 749 630 c 128,-1,38
 731 627 731 627 720.5 619.5 c 128,-1,39
 710 612 710 612 710 597 c 2,40,-1
 710 0 l 1,41,-1
 601 0 l 1,42,-1
 203 666 l 1,43,-1
 236 669 l 1,44,-1
 236 87 l 2,45,46
 236 84 236 84 249 81.5 c 128,-1,47
 262 79 262 79 280 78 c 128,-1,48
 298 77 298 77 310 77 c 2,49,-1
 324 77 l 1,50,-1
 324 0 l 1,51,-1
 62 0 l 1,10,-1
EndSplineSet
EndChar

StartChar: O
Encoding: 79 79 114
Width: 832
GlyphClass: 2
Flags: W
AnchorPoint: "Anchor-2" 458 0 basechar 0
AnchorPoint: "Anchor-1" 416 0 basechar 0
AnchorPoint: "Anchor-0" 416 741 basechar 0
LayerCount: 2
Fore
SplineSet
416 -25 m 0,0,1
 337 -25 337 -25 272 0 c 128,-1,2
 207 25 207 25 160 73.5 c 128,-1,3
 113 122 113 122 87.5 192.5 c 128,-1,4
 62 263 62 263 62 355 c 0,5,6
 62 448 62 448 87.5 518.5 c 128,-1,7
 113 589 113 589 160 637.5 c 128,-1,8
 207 686 207 686 272 710.5 c 128,-1,9
 337 735 337 735 416 735 c 0,10,11
 496 735 496 735 561 710.5 c 128,-1,12
 626 686 626 686 672.5 637.5 c 128,-1,13
 719 589 719 589 744.5 518.5 c 128,-1,14
 770 448 770 448 770 355 c 0,15,16
 770 263 770 263 744.5 192.5 c 128,-1,17
 719 122 719 122 672.5 73.5 c 128,-1,18
 626 25 626 25 561 0 c 128,-1,19
 496 -25 496 -25 416 -25 c 0,0,1
416 54 m 0,20,21
 477 54 477 54 523 72.5 c 128,-1,22
 569 91 569 91 600 128 c 128,-1,23
 631 165 631 165 647 221 c 128,-1,24
 663 277 663 277 663 355 c 0,25,26
 663 432 663 432 647 489 c 128,-1,27
 631 546 631 546 600 583 c 128,-1,28
 569 620 569 620 523 638 c 128,-1,29
 477 656 477 656 416 656 c 0,30,31
 356 656 356 656 309.5 638 c 128,-1,32
 263 620 263 620 232 583 c 128,-1,33
 201 546 201 546 185.5 489 c 128,-1,34
 170 432 170 432 170 355 c 256,35,36
 170 278 170 278 185.5 221.5 c 128,-1,37
 201 165 201 165 232.5 128 c 128,-1,38
 264 91 264 91 310 72.5 c 128,-1,39
 356 54 356 54 416 54 c 0,20,21
EndSplineSet
EndChar

StartChar: Ohorn
Encoding: 416 416 123
Width: 881
GlyphClass: 2
Flags: W
AnchorPoint: "Anchor-1" 437 -35 basechar 0
AnchorPoint: "Anchor-0" 437 742 basechar 0
LayerCount: 2
Fore
SplineSet
416 54 m 0,0,1
 478 54 478 54 524 71.5 c 128,-1,2
 570 89 570 89 601 125.5 c 128,-1,3
 632 162 632 162 647.5 219 c 128,-1,4
 663 276 663 276 663 355 c 256,5,6
 663 434 663 434 647.5 491 c 128,-1,7
 632 548 632 548 601 584.5 c 128,-1,8
 570 621 570 621 524 638.5 c 128,-1,9
 478 656 478 656 416 656 c 0,10,11
 355 656 355 656 308.5 638.5 c 128,-1,12
 262 621 262 621 231 584.5 c 128,-1,13
 200 548 200 548 185 491 c 128,-1,14
 170 434 170 434 170 355 c 256,15,16
 170 276 170 276 185 219 c 128,-1,17
 200 162 200 162 231 125.5 c 128,-1,18
 262 89 262 89 308.5 71.5 c 128,-1,19
 355 54 355 54 416 54 c 0,0,1
618 630 m 1,20,-1
 582 668 l 1,21,22
 623 648 623 648 657 619.5 c 128,-1,23
 691 591 691 591 716.5 553 c 128,-1,24
 742 515 742 515 756 466 c 128,-1,25
 770 417 770 417 770 355 c 0,26,27
 770 263 770 263 744.5 192 c 128,-1,28
 719 121 719 121 672.5 72.5 c 128,-1,29
 626 24 626 24 561 -0.5 c 128,-1,30
 496 -25 496 -25 416 -25 c 0,31,32
 337 -25 337 -25 272 -0.5 c 128,-1,33
 207 24 207 24 160 72.5 c 128,-1,34
 113 121 113 121 87.5 192 c 128,-1,35
 62 263 62 263 62 355 c 0,36,37
 62 448 62 448 87.5 518.5 c 128,-1,38
 113 589 113 589 160 637.5 c 128,-1,39
 207 686 207 686 272 710.5 c 128,-1,40
 337 735 337 735 416 735 c 0,41,42
 467 735 467 735 504 729 c 128,-1,43
 541 723 541 723 570 716 c 128,-1,44
 599 709 599 709 624.5 703.5 c 128,-1,45
 650 698 650 698 678 698 c 0,46,47
 710 698 710 698 733 711 c 128,-1,48
 756 724 756 724 771 750 c 128,-1,49
 786 776 786 776 795 813.5 c 128,-1,50
 804 851 804 851 807 899 c 1,51,-1
 901 899 l 1,52,53
 898 827 898 827 882.5 774.5 c 128,-1,54
 867 722 867 722 841.5 687.5 c 128,-1,55
 816 653 816 653 785 636.5 c 128,-1,56
 754 620 754 620 721 620 c 0,57,58
 702 620 702 620 683.5 623.5 c 128,-1,59
 665 627 665 627 647.5 633.5 c 128,-1,60
 630 640 630 640 612 648.5 c 128,-1,61
 594 657 594 657 574 666 c 1,62,-1
 618 663 l 1,63,-1
 618 630 l 1,20,-1
EndSplineSet
EndChar

StartChar: Ocaron
Encoding: 465 465 124
Width: 832
GlyphClass: 1
Flags: W
LayerCount: 2
Fore
SplineSet
379 805 m 1,0,-1
 453 805 l 1,1,-1
 588 961 l 1,2,-1
 588 981 l 1,3,-1
 537 981 l 1,4,-1
 349 837 l 1,5,-1
 489 842 l 1,6,-1
 305 981 l 1,7,-1
 243 981 l 1,8,-1
 243 961 l 1,9,-1
 379 805 l 1,0,-1
416 -25 m 0,10,11
 337 -25 337 -25 272 0 c 128,-1,12
 207 25 207 25 160 73.5 c 128,-1,13
 113 122 113 122 87.5 192.5 c 128,-1,14
 62 263 62 263 62 355 c 0,15,16
 62 448 62 448 87.5 518.5 c 128,-1,17
 113 589 113 589 160 637.5 c 128,-1,18
 207 686 207 686 272 710.5 c 128,-1,19
 337 735 337 735 416 735 c 0,20,21
 496 735 496 735 561 710.5 c 128,-1,22
 626 686 626 686 672.5 637.5 c 128,-1,23
 719 589 719 589 744.5 518.5 c 128,-1,24
 770 448 770 448 770 355 c 0,25,26
 770 263 770 263 744.5 192.5 c 128,-1,27
 719 122 719 122 672.5 73.5 c 128,-1,28
 626 25 626 25 561 0 c 128,-1,29
 496 -25 496 -25 416 -25 c 0,10,11
416 54 m 0,30,31
 477 54 477 54 523 72.5 c 128,-1,32
 569 91 569 91 600 128 c 128,-1,33
 631 165 631 165 647 221.5 c 128,-1,34
 663 278 663 278 663 355 c 256,35,36
 663 432 663 432 647 489 c 128,-1,37
 631 546 631 546 600 583 c 128,-1,38
 569 620 569 620 523 638 c 128,-1,39
 477 656 477 656 416 656 c 0,40,41
 356 656 356 656 309.5 638 c 128,-1,42
 263 620 263 620 232 583 c 128,-1,43
 201 546 201 546 185.5 489 c 128,-1,44
 170 432 170 432 170 355 c 256,45,46
 170 278 170 278 185.5 221.5 c 128,-1,47
 201 165 201 165 232.5 128 c 128,-1,48
 264 91 264 91 310 72.5 c 128,-1,49
 356 54 356 54 416 54 c 0,30,31
EndSplineSet
EndChar

StartChar: Oogonek
Encoding: 490 490 125
Width: 832
GlyphClass: 1
Flags: W
LayerCount: 2
Fore
SplineSet
416 54 m 0,0,1
 478 54 478 54 524 71.5 c 128,-1,2
 570 89 570 89 601 125.5 c 128,-1,3
 632 162 632 162 647.5 219 c 128,-1,4
 663 276 663 276 663 355 c 256,5,6
 663 434 663 434 647.5 491 c 128,-1,7
 632 548 632 548 601 584.5 c 128,-1,8
 570 621 570 621 524 638.5 c 128,-1,9
 478 656 478 656 416 656 c 0,10,11
 355 656 355 656 309 638.5 c 128,-1,12
 263 621 263 621 232 584.5 c 128,-1,13
 201 548 201 548 185.5 491 c 128,-1,14
 170 434 170 434 170 355 c 256,15,16
 170 276 170 276 185.5 219 c 128,-1,17
 201 162 201 162 232 125.5 c 128,-1,18
 263 89 263 89 309 71.5 c 128,-1,19
 355 54 355 54 416 54 c 0,0,1
668 70 m 0,20,21
 647 50 647 50 620.5 29 c 128,-1,22
 594 8 594 8 566 -14 c 128,-1,23
 538 -36 538 -36 514.5 -58.5 c 128,-1,24
 491 -81 491 -81 476.5 -104 c 128,-1,25
 462 -127 462 -127 462 -150 c 0,26,27
 462 -167 462 -167 473 -177 c 128,-1,28
 484 -187 484 -187 508 -187 c 0,29,30
 538 -187 538 -187 558.5 -172.5 c 128,-1,31
 579 -158 579 -158 592 -142 c 1,32,-1
 636 -182 l 1,33,34
 619 -202 619 -202 597.5 -218 c 128,-1,35
 576 -234 576 -234 549 -243 c 128,-1,36
 522 -252 522 -252 485 -252 c 0,37,38
 446 -252 446 -252 415.5 -242.5 c 128,-1,39
 385 -233 385 -233 367.5 -213 c 128,-1,40
 350 -193 350 -193 350 -162 c 0,41,42
 350 -138 350 -138 359.5 -118.5 c 128,-1,43
 369 -99 369 -99 392.5 -78 c 128,-1,44
 416 -57 416 -57 455.5 -30 c 128,-1,45
 495 -3 495 -3 556 35 c 1,46,-1
 540 -7 l 1,47,48
 521 -13 521 -13 501 -17 c 128,-1,49
 481 -21 481 -21 460 -23 c 128,-1,50
 439 -25 439 -25 416 -25 c 0,51,52
 337 -25 337 -25 272 -0.5 c 128,-1,53
 207 24 207 24 160 72.5 c 128,-1,54
 113 121 113 121 87.5 192 c 128,-1,55
 62 263 62 263 62 355 c 0,56,57
 62 448 62 448 87.5 518.5 c 128,-1,58
 113 589 113 589 160 637.5 c 128,-1,59
 207 686 207 686 272 710.5 c 128,-1,60
 337 735 337 735 416 735 c 0,61,62
 496 735 496 735 561 710.5 c 128,-1,63
 626 686 626 686 672.5 637.5 c 128,-1,64
 719 589 719 589 744.5 518.5 c 128,-1,65
 770 448 770 448 770 355 c 0,66,67
 770 294 770 294 758 241.5 c 128,-1,68
 746 189 746 189 723 146 c 128,-1,69
 700 103 700 103 668 70 c 0,20,21
EndSplineSet
EndChar

StartChar: Odblgrave
Encoding: 524 524 126
Width: 832
GlyphClass: 1
Flags: W
LayerCount: 2
Fore
SplineSet
509 929 m 2,0,-1
 555 827 l 1,1,-1
 555 793 l 1,2,-1
 512 793 l 1,3,-1
 440 854 l 2,4,5
 418 871 418 871 406 888 c 128,-1,6
 394 905 394 905 394 927 c 0,7,8
 394 945 394 945 408 958 c 128,-1,9
 422 971 422 971 445 971 c 0,10,11
 462 971 462 971 474 965.5 c 128,-1,12
 486 960 486 960 494.5 950.5 c 128,-1,13
 503 941 503 941 509 929 c 2,0,-1
310 929 m 2,14,-1
 353 827 l 1,15,-1
 353 793 l 1,16,-1
 310 793 l 1,17,-1
 238 854 l 2,18,19
 216 871 216 871 204 888 c 128,-1,20
 192 905 192 905 192 927 c 0,21,22
 192 945 192 945 206 958 c 128,-1,23
 220 971 220 971 243 971 c 0,24,25
 260 971 260 971 273 965.5 c 128,-1,26
 286 960 286 960 295 950.5 c 128,-1,27
 304 941 304 941 310 929 c 2,14,-1
416 -25 m 0,28,29
 337 -25 337 -25 272 0 c 128,-1,30
 207 25 207 25 160 73.5 c 128,-1,31
 113 122 113 122 87.5 192.5 c 128,-1,32
 62 263 62 263 62 355 c 0,33,34
 62 448 62 448 87.5 518.5 c 128,-1,35
 113 589 113 589 160 637.5 c 128,-1,36
 207 686 207 686 272 710.5 c 128,-1,37
 337 735 337 735 416 735 c 0,38,39
 496 735 496 735 561 710.5 c 128,-1,40
 626 686 626 686 672.5 637.5 c 128,-1,41
 719 589 719 589 744.5 518.5 c 128,-1,42
 770 448 770 448 770 355 c 0,43,44
 770 263 770 263 744.5 192.5 c 128,-1,45
 719 122 719 122 672.5 73.5 c 128,-1,46
 626 25 626 25 561 0 c 128,-1,47
 496 -25 496 -25 416 -25 c 0,28,29
416 54 m 0,48,49
 477 54 477 54 523 72.5 c 128,-1,50
 569 91 569 91 600 128 c 128,-1,51
 631 165 631 165 647 221.5 c 128,-1,52
 663 278 663 278 663 355 c 256,53,54
 663 432 663 432 647 489 c 128,-1,55
 631 546 631 546 600 583 c 128,-1,56
 569 620 569 620 523 638 c 128,-1,57
 477 656 477 656 416 656 c 0,58,59
 356 656 356 656 309.5 638 c 128,-1,60
 263 620 263 620 232 583 c 128,-1,61
 201 546 201 546 185.5 489 c 128,-1,62
 170 432 170 432 170 355 c 256,63,64
 170 278 170 278 185.5 221.5 c 128,-1,65
 201 165 201 165 232.5 128 c 128,-1,66
 264 91 264 91 310 72.5 c 128,-1,67
 356 54 356 54 416 54 c 0,48,49
EndSplineSet
EndChar

StartChar: Oinvertedbreve
Encoding: 526 526 127
Width: 832
GlyphClass: 1
Flags: W
LayerCount: 2
Fore
SplineSet
416 928 m 0,0,1
 359 928 359 928 319.5 911 c 128,-1,2
 280 894 280 894 258.5 856.5 c 128,-1,3
 237 819 237 819 236 757 c 1,4,-1
 312 757 l 1,5,6
 314 794 314 794 323.5 813 c 128,-1,7
 333 832 333 832 355 839 c 128,-1,8
 377 846 377 846 416 846 c 0,9,10
 452 846 452 846 473.5 839 c 128,-1,11
 495 832 495 832 505 813 c 128,-1,12
 515 794 515 794 517 757 c 1,13,-1
 597 757 l 1,14,15
 596 819 596 819 573.5 856.5 c 128,-1,16
 551 894 551 894 511 911 c 128,-1,17
 471 928 471 928 416 928 c 0,0,1
416 -25 m 0,18,19
 337 -25 337 -25 272 0 c 128,-1,20
 207 25 207 25 160 73.5 c 128,-1,21
 113 122 113 122 87.5 192.5 c 128,-1,22
 62 263 62 263 62 355 c 0,23,24
 62 448 62 448 87.5 518.5 c 128,-1,25
 113 589 113 589 160 637.5 c 128,-1,26
 207 686 207 686 272 710.5 c 128,-1,27
 337 735 337 735 416 735 c 0,28,29
 496 735 496 735 561 710.5 c 128,-1,30
 626 686 626 686 672.5 637.5 c 128,-1,31
 719 589 719 589 744.5 518.5 c 128,-1,32
 770 448 770 448 770 355 c 0,33,34
 770 263 770 263 744.5 192.5 c 128,-1,35
 719 122 719 122 672.5 73.5 c 128,-1,36
 626 25 626 25 561 0 c 128,-1,37
 496 -25 496 -25 416 -25 c 0,18,19
416 54 m 0,38,39
 477 54 477 54 523 72.5 c 128,-1,40
 569 91 569 91 600 128 c 128,-1,41
 631 165 631 165 647 221.5 c 128,-1,42
 663 278 663 278 663 355 c 256,43,44
 663 432 663 432 647 489 c 128,-1,45
 631 546 631 546 600 583 c 128,-1,46
 569 620 569 620 523 638 c 128,-1,47
 477 656 477 656 416 656 c 0,48,49
 356 656 356 656 309.5 638 c 128,-1,50
 263 620 263 620 232 583 c 128,-1,51
 201 546 201 546 185.5 489 c 128,-1,52
 170 432 170 432 170 355 c 256,53,54
 170 278 170 278 185.5 221.5 c 128,-1,55
 201 165 201 165 232.5 128 c 128,-1,56
 264 91 264 91 310 72.5 c 128,-1,57
 356 54 356 54 416 54 c 0,38,39
EndSplineSet
EndChar

StartChar: P
Encoding: 80 80 147
Width: 702
GlyphClass: 2
Flags: W
AnchorPoint: "Anchor-0" 319 741 basechar 0
LayerCount: 2
Fore
SplineSet
249 87 m 2,0,-1
 249 633 l 1,1,-1
 397 633 l 2,2,3
 445 633 445 633 476 617.5 c 128,-1,4
 507 602 507 602 521.5 571 c 128,-1,5
 536 540 536 540 536 494 c 256,6,7
 536 448 536 448 521.5 416 c 128,-1,8
 507 384 507 384 476.5 368 c 128,-1,9
 446 352 446 352 397 352 c 2,10,-1
 231 352 l 1,11,-1
 231 275 l 1,12,-1
 397 275 l 2,13,14
 470 275 470 275 525 299 c 128,-1,15
 580 323 580 323 611 373 c 128,-1,16
 642 423 642 423 642 498 c 0,17,18
 642 608 642 608 577 659 c 128,-1,19
 512 710 512 710 397 710 c 2,20,-1
 60 710 l 1,21,-1
 60 633 l 1,22,-1
 71 633 l 2,23,24
 102 633 102 633 125.5 626 c 128,-1,25
 149 619 149 619 149 597 c 2,26,-1
 149 113 l 2,27,28
 149 91 149 91 125.5 84 c 128,-1,29
 102 77 102 77 71 77 c 2,30,-1
 60 77 l 1,31,-1
 60 0 l 1,32,-1
 364 0 l 1,33,-1
 364 77 l 1,34,-1
 344 77 l 2,35,36
 326 77 326 77 309 77.5 c 128,-1,37
 292 78 292 78 278.5 79.5 c 128,-1,38
 265 81 265 81 257 82.5 c 128,-1,39
 249 84 249 84 249 87 c 2,0,-1
EndSplineSet
EndChar

StartChar: Q
Encoding: 81 81 148
Width: 832
GlyphClass: 1
Flags: W
LayerCount: 2
Fore
SplineSet
373 -3 m 1,0,-1
 455 10 l 1,1,2
 457 -50 457 -50 472 -85 c 128,-1,3
 487 -120 487 -120 519 -135.5 c 128,-1,4
 551 -151 551 -151 602 -151 c 0,5,6
 635 -151 635 -151 664 -147 c 128,-1,7
 693 -143 693 -143 719.5 -136.5 c 128,-1,8
 746 -130 746 -130 769 -124 c 1,9,-1
 769 -224 l 1,10,11
 738 -230 738 -230 695 -234.5 c 128,-1,12
 652 -239 652 -239 610 -239 c 0,13,14
 530 -239 530 -239 477 -212 c 128,-1,15
 424 -185 424 -185 398.5 -132 c 128,-1,16
 373 -79 373 -79 373 -3 c 1,0,-1
416 -25 m 0,17,18
 337 -25 337 -25 272 0 c 128,-1,19
 207 25 207 25 160 73.5 c 128,-1,20
 113 122 113 122 87.5 192.5 c 128,-1,21
 62 263 62 263 62 355 c 0,22,23
 62 448 62 448 87.5 518.5 c 128,-1,24
 113 589 113 589 160 637.5 c 128,-1,25
 207 686 207 686 272 710.5 c 128,-1,26
 337 735 337 735 416 735 c 0,27,28
 496 735 496 735 561 710.5 c 128,-1,29
 626 686 626 686 672.5 637.5 c 128,-1,30
 719 589 719 589 744.5 518.5 c 128,-1,31
 770 448 770 448 770 355 c 0,32,33
 770 263 770 263 744.5 192.5 c 128,-1,34
 719 122 719 122 672.5 73.5 c 128,-1,35
 626 25 626 25 561 0 c 128,-1,36
 496 -25 496 -25 416 -25 c 0,17,18
416 54 m 256,37,38
 476 54 476 54 523.5 72.5 c 128,-1,39
 571 91 571 91 602.5 128 c 128,-1,40
 634 165 634 165 651.5 221 c 128,-1,41
 669 277 669 277 670 355 c 0,42,43
 672 432 672 432 655 489 c 128,-1,44
 638 546 638 546 605.5 583 c 128,-1,45
 573 620 573 620 524.5 638 c 128,-1,46
 476 656 476 656 416 656 c 256,47,48
 356 656 356 656 309.5 638 c 128,-1,49
 263 620 263 620 232 583 c 128,-1,50
 201 546 201 546 185.5 489 c 128,-1,51
 170 432 170 432 170 355 c 256,52,53
 170 278 170 278 185.5 221.5 c 128,-1,54
 201 165 201 165 232.5 128 c 128,-1,55
 264 91 264 91 310 72.5 c 128,-1,56
 356 54 356 54 416 54 c 256,37,38
EndSplineSet
EndChar

StartChar: R
Encoding: 82 82 149
Width: 771
GlyphClass: 2
Flags: W
AnchorPoint: "Anchor-1" 432 0 basechar 0
AnchorPoint: "Anchor-0" 432 741 basechar 0
LayerCount: 2
Fore
SplineSet
397 321 m 1,0,-1
 581 0 l 1,1,-1
 736 0 l 1,2,-1
 736 77 l 1,3,-1
 726 77 l 2,4,5
 703 77 703 77 684.5 81.5 c 128,-1,6
 666 86 666 86 650 99.5 c 128,-1,7
 634 113 634 113 618 138 c 2,8,-1
 483 364 l 1,9,-1
 397 321 l 1,0,-1
249 87 m 2,10,-1
 249 633 l 1,11,-1
 397 633 l 2,12,13
 447 633 447 633 479.5 619 c 128,-1,14
 512 605 512 605 527.5 577.5 c 128,-1,15
 543 550 543 550 543 508 c 256,16,17
 543 466 543 466 527 434 c 128,-1,18
 511 402 511 402 477.5 384.5 c 128,-1,19
 444 367 444 367 391 367 c 2,20,-1
 239 367 l 1,21,-1
 239 293 l 1,22,-1
 432 293 l 2,23,24
 436 293 436 293 439 295.5 c 128,-1,25
 442 298 442 298 446.5 302.5 c 128,-1,26
 451 307 451 307 457 311 c 0,27,28
 513 325 513 325 554.5 352 c 128,-1,29
 596 379 596 379 619 421 c 128,-1,30
 642 463 642 463 642 519 c 0,31,32
 642 582 642 582 613 624.5 c 128,-1,33
 584 667 584 667 530 688.5 c 128,-1,34
 476 710 476 710 399 710 c 2,35,-1
 60 710 l 1,36,-1
 60 633 l 1,37,-1
 71 633 l 2,38,39
 102 633 102 633 125.5 626 c 128,-1,40
 149 619 149 619 149 597 c 2,41,-1
 149 113 l 2,42,43
 149 91 149 91 125.5 84 c 128,-1,44
 102 77 102 77 71 77 c 2,45,-1
 60 77 l 1,46,-1
 60 0 l 1,47,-1
 364 0 l 1,48,-1
 364 77 l 1,49,-1
 344 77 l 2,50,51
 326 77 326 77 309 77.5 c 128,-1,52
 292 78 292 78 278.5 79.5 c 128,-1,53
 265 81 265 81 257 82.5 c 128,-1,54
 249 84 249 84 249 87 c 2,10,-1
EndSplineSet
EndChar

StartChar: Rcaron
Encoding: 344 344 152
Width: 771
GlyphClass: 1
Flags: W
LayerCount: 2
Fore
SplineSet
335 805 m 1,0,-1
 409 805 l 1,1,-1
 544 961 l 1,2,-1
 544 981 l 1,3,-1
 493 981 l 1,4,-1
 305 837 l 1,5,-1
 445 842 l 1,6,-1
 261 981 l 1,7,-1
 199 981 l 1,8,-1
 199 961 l 1,9,-1
 335 805 l 1,0,-1
397 321 m 1,10,-1
 581 0 l 1,11,-1
 736 0 l 1,12,-1
 736 77 l 1,13,-1
 726 77 l 2,14,15
 703 77 703 77 684.5 81.5 c 128,-1,16
 666 86 666 86 650 99.5 c 128,-1,17
 634 113 634 113 618 138 c 2,18,-1
 483 364 l 1,19,-1
 397 321 l 1,10,-1
249 87 m 2,20,-1
 249 633 l 1,21,-1
 397 633 l 2,22,23
 447 633 447 633 479.5 619 c 128,-1,24
 512 605 512 605 527.5 577.5 c 128,-1,25
 543 550 543 550 543 508 c 256,26,27
 543 466 543 466 527 434 c 128,-1,28
 511 402 511 402 477.5 384.5 c 128,-1,29
 444 367 444 367 391 367 c 2,30,-1
 239 367 l 1,31,-1
 239 293 l 1,32,-1
 432 293 l 2,33,34
 436 293 436 293 439 295.5 c 128,-1,35
 442 298 442 298 446.5 302.5 c 128,-1,36
 451 307 451 307 457 311 c 0,37,38
 513 325 513 325 554.5 352 c 128,-1,39
 596 379 596 379 619 421 c 128,-1,40
 642 463 642 463 642 519 c 0,41,42
 642 582 642 582 613 624.5 c 128,-1,43
 584 667 584 667 530 688.5 c 128,-1,44
 476 710 476 710 399 710 c 2,45,-1
 60 710 l 1,46,-1
 60 633 l 1,47,-1
 71 633 l 2,48,49
 102 633 102 633 125.5 626 c 128,-1,50
 149 619 149 619 149 597 c 2,51,-1
 149 113 l 2,52,53
 149 91 149 91 125.5 84 c 128,-1,54
 102 77 102 77 71 77 c 2,55,-1
 60 77 l 1,56,-1
 60 0 l 1,57,-1
 364 0 l 1,58,-1
 364 77 l 1,59,-1
 344 77 l 2,60,61
 326 77 326 77 309 77.5 c 128,-1,62
 292 78 292 78 278.5 79.5 c 128,-1,63
 265 81 265 81 257 82.5 c 128,-1,64
 249 84 249 84 249 87 c 2,20,-1
EndSplineSet
EndChar

StartChar: Rdblgrave
Encoding: 528 528 153
Width: 771
GlyphClass: 1
Flags: W
LayerCount: 2
Fore
SplineSet
470 929 m 2,0,-1
 516 827 l 1,1,-1
 516 793 l 1,2,-1
 473 793 l 1,3,-1
 401 854 l 2,4,5
 379 871 379 871 367 888 c 128,-1,6
 355 905 355 905 355 927 c 0,7,8
 355 945 355 945 369 958 c 128,-1,9
 383 971 383 971 406 971 c 0,10,11
 423 971 423 971 435 965.5 c 128,-1,12
 447 960 447 960 455.5 950.5 c 128,-1,13
 464 941 464 941 470 929 c 2,0,-1
271 929 m 2,14,-1
 314 827 l 1,15,-1
 314 793 l 1,16,-1
 271 793 l 1,17,-1
 199 854 l 2,18,19
 177 871 177 871 165 888 c 128,-1,20
 153 905 153 905 153 927 c 0,21,22
 153 945 153 945 167 958 c 128,-1,23
 181 971 181 971 204 971 c 0,24,25
 221 971 221 971 234 965.5 c 128,-1,26
 247 960 247 960 256 950.5 c 128,-1,27
 265 941 265 941 271 929 c 2,14,-1
397 321 m 1,28,-1
 581 0 l 1,29,-1
 736 0 l 1,30,-1
 736 77 l 1,31,-1
 726 77 l 2,32,33
 703 77 703 77 684.5 81.5 c 128,-1,34
 666 86 666 86 650 99.5 c 128,-1,35
 634 113 634 113 618 138 c 2,36,-1
 483 364 l 1,37,-1
 397 321 l 1,28,-1
249 87 m 2,38,-1
 249 633 l 1,39,-1
 397 633 l 2,40,41
 447 633 447 633 479.5 619 c 128,-1,42
 512 605 512 605 527.5 577.5 c 128,-1,43
 543 550 543 550 543 508 c 256,44,45
 543 466 543 466 527 434 c 128,-1,46
 511 402 511 402 477.5 384.5 c 128,-1,47
 444 367 444 367 391 367 c 2,48,-1
 239 367 l 1,49,-1
 239 293 l 1,50,-1
 432 293 l 2,51,52
 436 293 436 293 439 295.5 c 128,-1,53
 442 298 442 298 446.5 302.5 c 128,-1,54
 451 307 451 307 457 311 c 0,55,56
 513 325 513 325 554.5 352 c 128,-1,57
 596 379 596 379 619 421 c 128,-1,58
 642 463 642 463 642 519 c 0,59,60
 642 582 642 582 613 624.5 c 128,-1,61
 584 667 584 667 530 688.5 c 128,-1,62
 476 710 476 710 399 710 c 2,63,-1
 60 710 l 1,64,-1
 60 633 l 1,65,-1
 71 633 l 2,66,67
 102 633 102 633 125.5 626 c 128,-1,68
 149 619 149 619 149 597 c 2,69,-1
 149 113 l 2,70,71
 149 91 149 91 125.5 84 c 128,-1,72
 102 77 102 77 71 77 c 2,73,-1
 60 77 l 1,74,-1
 60 0 l 1,75,-1
 364 0 l 1,76,-1
 364 77 l 1,77,-1
 344 77 l 2,78,79
 326 77 326 77 309 77.5 c 128,-1,80
 292 78 292 78 278.5 79.5 c 128,-1,81
 265 81 265 81 257 82.5 c 128,-1,82
 249 84 249 84 249 87 c 2,38,-1
EndSplineSet
EndChar

StartChar: Rinvertedbreve
Encoding: 530 530 154
Width: 771
GlyphClass: 1
Flags: W
LayerCount: 2
Fore
SplineSet
372 928 m 0,0,1
 315 928 315 928 275.5 911 c 128,-1,2
 236 894 236 894 214.5 856.5 c 128,-1,3
 193 819 193 819 192 757 c 1,4,-1
 268 757 l 1,5,6
 270 794 270 794 279.5 813 c 128,-1,7
 289 832 289 832 311 839 c 128,-1,8
 333 846 333 846 372 846 c 0,9,10
 408 846 408 846 429.5 839 c 128,-1,11
 451 832 451 832 461 813 c 128,-1,12
 471 794 471 794 473 757 c 1,13,-1
 553 757 l 1,14,15
 552 819 552 819 529.5 856.5 c 128,-1,16
 507 894 507 894 467 911 c 128,-1,17
 427 928 427 928 372 928 c 0,0,1
397 321 m 1,18,-1
 581 0 l 1,19,-1
 736 0 l 1,20,-1
 736 77 l 1,21,-1
 726 77 l 2,22,23
 703 77 703 77 684.5 81.5 c 128,-1,24
 666 86 666 86 650 99.5 c 128,-1,25
 634 113 634 113 618 138 c 2,26,-1
 483 364 l 1,27,-1
 397 321 l 1,18,-1
249 87 m 2,28,-1
 249 633 l 1,29,-1
 397 633 l 2,30,31
 447 633 447 633 479.5 619 c 128,-1,32
 512 605 512 605 527.5 577.5 c 128,-1,33
 543 550 543 550 543 508 c 256,34,35
 543 466 543 466 527 434 c 128,-1,36
 511 402 511 402 477.5 384.5 c 128,-1,37
 444 367 444 367 391 367 c 2,38,-1
 239 367 l 1,39,-1
 239 293 l 1,40,-1
 432 293 l 2,41,42
 436 293 436 293 439 295.5 c 128,-1,43
 442 298 442 298 446.5 302.5 c 128,-1,44
 451 307 451 307 457 311 c 0,45,46
 513 325 513 325 554.5 352 c 128,-1,47
 596 379 596 379 619 421 c 128,-1,48
 642 463 642 463 642 519 c 0,49,50
 642 582 642 582 613 624.5 c 128,-1,51
 584 667 584 667 530 688.5 c 128,-1,52
 476 710 476 710 399 710 c 2,53,-1
 60 710 l 1,54,-1
 60 633 l 1,55,-1
 71 633 l 2,56,57
 102 633 102 633 125.5 626 c 128,-1,58
 149 619 149 619 149 597 c 2,59,-1
 149 113 l 2,60,61
 149 91 149 91 125.5 84 c 128,-1,62
 102 77 102 77 71 77 c 2,63,-1
 60 77 l 1,64,-1
 60 0 l 1,65,-1
 364 0 l 1,66,-1
 364 77 l 1,67,-1
 344 77 l 2,68,69
 326 77 326 77 309 77.5 c 128,-1,70
 292 78 292 78 278.5 79.5 c 128,-1,71
 265 81 265 81 257 82.5 c 128,-1,72
 249 84 249 84 249 87 c 2,28,-1
EndSplineSet
EndChar

StartChar: S
Encoding: 83 83 157
Width: 671
GlyphClass: 2
Flags: W
AnchorPoint: "Anchor-1" 368 0 basechar 0
AnchorPoint: "Anchor-0" 368 741 basechar 0
LayerCount: 2
Fore
SplineSet
374 52 m 0,0,1
 428 52 428 52 460.5 63 c 128,-1,2
 493 74 493 74 508 100 c 128,-1,3
 523 126 523 126 523 173 c 0,4,5
 523 212 523 212 505.5 237 c 128,-1,6
 488 262 488 262 459 278 c 128,-1,7
 430 294 430 294 393.5 304 c 128,-1,8
 357 314 357 314 318 323 c 0,9,10
 270 335 270 335 228 348.5 c 128,-1,11
 186 362 186 362 154 384.5 c 128,-1,12
 122 407 122 407 104 445 c 128,-1,13
 86 483 86 483 86 544 c 0,14,15
 86 603 86 603 111 646 c 128,-1,16
 136 689 136 689 186 712 c 128,-1,17
 236 735 236 735 311 735 c 0,18,19
 372 735 372 735 415.5 716 c 128,-1,20
 459 697 459 697 483 653.5 c 128,-1,21
 507 610 507 610 510 538 c 1,22,-1
 492 587 l 1,23,-1
 506 720 l 1,24,-1
 581 720 l 1,25,-1
 581 498 l 1,26,-1
 504 498 l 1,27,28
 490 550 490 550 465.5 586 c 128,-1,29
 441 622 441 622 404 641 c 128,-1,30
 367 660 367 660 311 660 c 0,31,32
 261 660 261 660 231.5 647 c 128,-1,33
 202 634 202 634 190 609 c 128,-1,34
 178 584 178 584 178 549 c 0,35,36
 178 512 178 512 191.5 489.5 c 128,-1,37
 205 467 205 467 231 454 c 128,-1,38
 257 441 257 441 293 431 c 128,-1,39
 329 421 329 421 374 409 c 0,40,41
 417 398 417 398 460.5 384.5 c 128,-1,42
 504 371 504 371 540 348 c 128,-1,43
 576 325 576 325 597.5 287 c 128,-1,44
 619 249 619 249 619 190 c 0,45,46
 619 113 619 113 587.5 65.5 c 128,-1,47
 556 18 556 18 501 -3.5 c 128,-1,48
 446 -25 446 -25 374 -25 c 0,49,50
 305 -25 305 -25 253 -4.5 c 128,-1,51
 201 16 201 16 170.5 65.5 c 128,-1,52
 140 115 140 115 134 200 c 1,53,-1
 155 147 l 1,54,-1
 143 -10 l 1,55,-1
 68 -10 l 1,56,-1
 68 239 l 1,57,-1
 148 239 l 1,58,59
 162 174 162 174 190 132.5 c 128,-1,60
 218 91 218 91 263.5 71.5 c 128,-1,61
 309 52 309 52 374 52 c 0,0,1
EndSplineSet
EndChar

StartChar: Scaron
Encoding: 352 352 161
Width: 671
GlyphClass: 1
Flags: W
LayerCount: 2
Fore
SplineSet
307 805 m 1,0,-1
 381 805 l 1,1,-1
 516 961 l 1,2,-1
 516 981 l 1,3,-1
 465 981 l 1,4,-1
 277 837 l 1,5,-1
 417 842 l 1,6,-1
 233 981 l 1,7,-1
 171 981 l 1,8,-1
 171 961 l 1,9,-1
 307 805 l 1,0,-1
374 52 m 0,10,11
 428 52 428 52 460.5 63 c 128,-1,12
 493 74 493 74 508 100 c 128,-1,13
 523 126 523 126 523 173 c 0,14,15
 523 212 523 212 505.5 237 c 128,-1,16
 488 262 488 262 459 278 c 128,-1,17
 430 294 430 294 393.5 304 c 128,-1,18
 357 314 357 314 318 323 c 0,19,20
 270 335 270 335 228 348.5 c 128,-1,21
 186 362 186 362 154 384.5 c 128,-1,22
 122 407 122 407 104 445 c 128,-1,23
 86 483 86 483 86 544 c 0,24,25
 86 603 86 603 111 646 c 128,-1,26
 136 689 136 689 186 712 c 128,-1,27
 236 735 236 735 311 735 c 0,28,29
 372 735 372 735 415.5 716 c 128,-1,30
 459 697 459 697 483 653.5 c 128,-1,31
 507 610 507 610 510 538 c 1,32,-1
 492 587 l 1,33,-1
 506 720 l 1,34,-1
 581 720 l 1,35,-1
 581 498 l 1,36,-1
 504 498 l 1,37,38
 490 550 490 550 465.5 586 c 128,-1,39
 441 622 441 622 404 641 c 128,-1,40
 367 660 367 660 311 660 c 0,41,42
 261 660 261 660 231.5 647 c 128,-1,43
 202 634 202 634 190 609 c 128,-1,44
 178 584 178 584 178 549 c 0,45,46
 178 512 178 512 191.5 489.5 c 128,-1,47
 205 467 205 467 231 454 c 128,-1,48
 257 441 257 441 293 431 c 128,-1,49
 329 421 329 421 374 409 c 0,50,51
 417 398 417 398 460.5 384.5 c 128,-1,52
 504 371 504 371 540 348 c 128,-1,53
 576 325 576 325 597.5 287 c 128,-1,54
 619 249 619 249 619 190 c 0,55,56
 619 113 619 113 587.5 65.5 c 128,-1,57
 556 18 556 18 501 -3.5 c 128,-1,58
 446 -25 446 -25 374 -25 c 0,59,60
 305 -25 305 -25 253 -4.5 c 128,-1,61
 201 16 201 16 170.5 65.5 c 128,-1,62
 140 115 140 115 134 200 c 1,63,-1
 155 147 l 1,64,-1
 143 -10 l 1,65,-1
 68 -10 l 1,66,-1
 68 239 l 1,67,-1
 148 239 l 1,68,69
 162 174 162 174 190 132.5 c 128,-1,70
 218 91 218 91 263.5 71.5 c 128,-1,71
 309 52 309 52 374 52 c 0,10,11
EndSplineSet
EndChar

StartChar: Scarondotaccent
Encoding: 7782 7782 166
Width: 671
GlyphClass: 1
Flags: W
LayerCount: 2
Fore
SplineSet
302 805 m 1,0,-1
 376 805 l 1,1,-1
 511 961 l 1,2,-1
 511 981 l 1,3,-1
 460 981 l 1,4,-1
 272 837 l 1,5,-1
 412 842 l 1,6,-1
 228 981 l 1,7,-1
 166 981 l 1,8,-1
 166 961 l 1,9,-1
 302 805 l 1,0,-1
374 52 m 0,10,11
 428 52 428 52 460.5 63 c 128,-1,12
 493 74 493 74 508 100 c 128,-1,13
 523 126 523 126 523 173 c 0,14,15
 523 212 523 212 505.5 237 c 128,-1,16
 488 262 488 262 459 278 c 128,-1,17
 430 294 430 294 393.5 304 c 128,-1,18
 357 314 357 314 318 323 c 0,19,20
 270 335 270 335 228 348.5 c 128,-1,21
 186 362 186 362 154 384.5 c 128,-1,22
 122 407 122 407 104 445 c 128,-1,23
 86 483 86 483 86 544 c 0,24,25
 86 603 86 603 111 646 c 128,-1,26
 136 689 136 689 186 712 c 128,-1,27
 236 735 236 735 311 735 c 0,28,29
 372 735 372 735 415.5 716 c 128,-1,30
 459 697 459 697 483 653.5 c 128,-1,31
 507 610 507 610 510 538 c 1,32,-1
 492 587 l 1,33,-1
 506 720 l 1,34,-1
 581 720 l 1,35,-1
 581 498 l 1,36,-1
 504 498 l 1,37,38
 490 550 490 550 465.5 586 c 128,-1,39
 441 622 441 622 404 641 c 128,-1,40
 367 660 367 660 311 660 c 0,41,42
 261 660 261 660 231.5 647 c 128,-1,43
 202 634 202 634 190 609 c 128,-1,44
 178 584 178 584 178 549 c 0,45,46
 178 512 178 512 191.5 489.5 c 128,-1,47
 205 467 205 467 231 454 c 128,-1,48
 257 441 257 441 293 431 c 128,-1,49
 329 421 329 421 374 409 c 0,50,51
 417 398 417 398 460.5 384.5 c 128,-1,52
 504 371 504 371 540 348 c 128,-1,53
 576 325 576 325 597.5 287 c 128,-1,54
 619 249 619 249 619 190 c 0,55,56
 619 113 619 113 587.5 65.5 c 128,-1,57
 556 18 556 18 501 -3.5 c 128,-1,58
 446 -25 446 -25 374 -25 c 0,59,60
 305 -25 305 -25 253 -4.5 c 128,-1,61
 201 16 201 16 170.5 65.5 c 128,-1,62
 140 115 140 115 134 200 c 1,63,-1
 155 147 l 1,64,-1
 143 -10 l 1,65,-1
 68 -10 l 1,66,-1
 68 239 l 1,67,-1
 148 239 l 1,68,69
 162 174 162 174 190 132.5 c 128,-1,70
 218 91 218 91 263.5 71.5 c 128,-1,71
 309 52 309 52 374 52 c 0,10,11
339 1006 m 256,72,73
 303 1006 303 1006 283 1025 c 128,-1,74
 263 1044 263 1044 263 1080 c 0,75,76
 263 1115 263 1115 283 1134.5 c 128,-1,77
 303 1154 303 1154 339 1154 c 256,78,79
 375 1154 375 1154 395.5 1134.5 c 128,-1,80
 416 1115 416 1115 416 1080 c 0,81,82
 416 1044 416 1044 395.5 1025 c 128,-1,83
 375 1006 375 1006 339 1006 c 256,72,73
EndSplineSet
EndChar

StartChar: T
Encoding: 84 84 168
Width: 739
GlyphClass: 2
Flags: W
AnchorPoint: "Anchor-1" 374 0 basechar 0
AnchorPoint: "Anchor-0" 374 741 basechar 0
LayerCount: 2
Fore
SplineSet
319 113 m 2,0,-1
 319 633 l 1,1,-1
 256 633 l 2,2,3
 211 633 211 633 187 627 c 128,-1,4
 163 621 163 621 153.5 608.5 c 128,-1,5
 144 596 144 596 142 576 c 2,6,-1
 130 469 l 1,7,-1
 55 469 l 1,8,-1
 55 710 l 1,9,-1
 684 710 l 1,10,-1
 684 469 l 1,11,-1
 609 469 l 1,12,-1
 597 576 l 2,13,14
 595 596 595 596 586 608.5 c 128,-1,15
 577 621 577 621 552.5 627 c 128,-1,16
 528 633 528 633 483 633 c 2,17,-1
 420 633 l 1,18,-1
 420 113 l 2,19,20
 420 91 420 91 446 84 c 128,-1,21
 472 77 472 77 506 77 c 2,22,-1
 526 77 l 1,23,-1
 526 0 l 1,24,-1
 213 0 l 1,25,-1
 213 77 l 1,26,-1
 233 77 l 2,27,28
 267 77 267 77 293 84 c 128,-1,29
 319 91 319 91 319 113 c 2,0,-1
EndSplineSet
EndChar

StartChar: Tcaron
Encoding: 356 356 170
Width: 739
GlyphClass: 1
Flags: W
LayerCount: 2
Fore
SplineSet
326 805 m 1,0,-1
 400 805 l 1,1,-1
 535 961 l 1,2,-1
 535 981 l 1,3,-1
 484 981 l 1,4,-1
 297 837 l 1,5,-1
 436 842 l 1,6,-1
 252 981 l 1,7,-1
 190 981 l 1,8,-1
 190 961 l 1,9,-1
 326 805 l 1,0,-1
319 113 m 2,10,-1
 319 633 l 1,11,-1
 256 633 l 2,12,13
 211 633 211 633 187 627 c 128,-1,14
 163 621 163 621 153.5 608.5 c 128,-1,15
 144 596 144 596 141 576 c 2,16,-1
 130 469 l 1,17,-1
 55 469 l 1,18,-1
 55 710 l 1,19,-1
 684 710 l 1,20,-1
 684 469 l 1,21,-1
 609 469 l 1,22,-1
 597 576 l 2,23,24
 595 596 595 596 586 608.5 c 128,-1,25
 577 621 577 621 552.5 627 c 128,-1,26
 528 633 528 633 483 633 c 2,27,-1
 420 633 l 1,28,-1
 420 113 l 2,29,30
 420 91 420 91 446 84 c 128,-1,31
 472 77 472 77 506 77 c 2,32,-1
 526 77 l 1,33,-1
 526 0 l 1,34,-1
 213 0 l 1,35,-1
 213 77 l 1,36,-1
 233 77 l 2,37,38
 267 77 267 77 293 84 c 128,-1,39
 319 91 319 91 319 113 c 2,10,-1
EndSplineSet
EndChar

StartChar: U
Encoding: 85 85 174
Width: 834
GlyphClass: 2
Flags: W
AnchorPoint: "Anchor-2" 478 0 basechar 0
AnchorPoint: "Anchor-1" 422 0 basechar 0
AnchorPoint: "Anchor-0" 422 741 basechar 0
LayerCount: 2
Fore
SplineSet
241 267 m 2,0,1
 241 209 241 209 255 169 c 128,-1,2
 269 129 269 129 294 105 c 128,-1,3
 319 81 319 81 352.5 70.5 c 128,-1,4
 386 60 386 60 426 60 c 0,5,6
 467 60 467 60 500.5 70.5 c 128,-1,7
 534 81 534 81 558.5 105 c 128,-1,8
 583 129 583 129 596 169 c 128,-1,9
 609 209 609 209 609 267 c 2,10,-1
 609 614 l 2,11,12
 609 619 609 619 601 622.5 c 128,-1,13
 593 626 593 626 580.5 628 c 128,-1,14
 568 630 568 630 554.5 631.5 c 128,-1,15
 541 633 541 633 529 633 c 2,16,-1
 520 633 l 1,17,-1
 520 710 l 1,18,-1
 782 710 l 1,19,-1
 782 633 l 1,20,-1
 771 633 l 2,21,22
 751 633 751 633 733 629 c 128,-1,23
 715 625 715 625 704 615 c 128,-1,24
 693 605 693 605 693 588 c 2,25,-1
 693 256 l 2,26,27
 693 181 693 181 671.5 127.5 c 128,-1,28
 650 74 650 74 612 40 c 128,-1,29
 574 6 574 6 525 -9.5 c 128,-1,30
 476 -25 476 -25 421 -25 c 0,31,32
 362 -25 362 -25 311 -9 c 128,-1,33
 260 7 260 7 221.5 40.5 c 128,-1,34
 183 74 183 74 162 127.5 c 128,-1,35
 141 181 141 181 141 256 c 2,36,-1
 141 597 l 2,37,38
 141 619 141 619 117.5 626 c 128,-1,39
 94 633 94 633 63 633 c 2,40,-1
 52 633 l 1,41,-1
 52 710 l 1,42,-1
 337 710 l 1,43,-1
 337 633 l 1,44,-1
 328 633 l 2,45,46
 314 633 314 633 298.5 632.5 c 128,-1,47
 283 632 283 632 270 630.5 c 128,-1,48
 257 629 257 629 249 627.5 c 128,-1,49
 241 626 241 626 241 623 c 2,50,-1
 241 267 l 2,0,1
EndSplineSet
EndChar

StartChar: Uogonek
Encoding: 370 370 184
Width: 834
GlyphClass: 1
Flags: W
LayerCount: 2
Fore
SplineSet
533 39 m 1,0,-1
 534 -6 l 1,1,2
 509 -16 509 -16 480.5 -20.5 c 128,-1,3
 452 -25 452 -25 421 -25 c 0,4,5
 360 -25 360 -25 309 -9 c 128,-1,6
 258 7 258 7 220 40.5 c 128,-1,7
 182 74 182 74 161.5 127.5 c 128,-1,8
 141 181 141 181 141 256 c 2,9,-1
 141 597 l 2,10,11
 141 619 141 619 120.5 626 c 128,-1,12
 100 633 100 633 63 633 c 2,13,-1
 52 633 l 1,14,-1
 52 710 l 1,15,-1
 337 710 l 1,16,-1
 337 634 l 1,17,-1
 328 634 l 2,18,19
 314 634 314 634 298.5 633 c 128,-1,20
 283 632 283 632 270 630.5 c 128,-1,21
 257 629 257 629 249 627.5 c 128,-1,22
 241 626 241 626 241 623 c 2,23,-1
 241 256 l 2,24,25
 241 201 241 201 255 163.5 c 128,-1,26
 269 126 269 126 294 103.5 c 128,-1,27
 319 81 319 81 353.5 71.5 c 128,-1,28
 388 62 388 62 429 62 c 256,29,30
 470 62 470 62 503 71.5 c 128,-1,31
 536 81 536 81 559.5 103.5 c 128,-1,32
 583 126 583 126 596 163.5 c 128,-1,33
 609 201 609 201 609 256 c 2,34,-1
 609 614 l 2,35,36
 609 619 609 619 602 622.5 c 128,-1,37
 595 626 595 626 583.5 628 c 128,-1,38
 572 630 572 630 557.5 631.5 c 128,-1,39
 543 633 543 633 529 633 c 2,40,-1
 520 633 l 1,41,-1
 520 710 l 1,42,-1
 782 710 l 1,43,-1
 782 633 l 1,44,-1
 771 633 l 2,45,46
 747 633 747 633 729.5 629 c 128,-1,47
 712 625 712 625 703 615 c 128,-1,48
 694 605 694 605 694 588 c 2,49,-1
 694 256 l 2,50,51
 694 207 694 207 683.5 166.5 c 128,-1,52
 673 126 673 126 655.5 94.5 c 128,-1,53
 638 63 638 63 615 40 c 0,54,55
 596 21 596 21 567.5 0 c 128,-1,56
 539 -21 539 -21 511.5 -44 c 128,-1,57
 484 -67 484 -67 465.5 -93.5 c 128,-1,58
 447 -120 447 -120 447 -150 c 0,59,60
 447 -163 447 -163 456.5 -173.5 c 128,-1,61
 466 -184 466 -184 490 -184 c 0,62,63
 522 -184 522 -184 542 -170 c 128,-1,64
 562 -156 562 -156 575 -140 c 1,65,-1
 617 -182 l 1,66,67
 591 -213 591 -213 556 -232.5 c 128,-1,68
 521 -252 521 -252 466 -252 c 0,69,70
 430 -252 430 -252 400.5 -242.5 c 128,-1,71
 371 -233 371 -233 354 -213 c 128,-1,72
 337 -193 337 -193 337 -162 c 0,73,74
 337 -138 337 -138 345.5 -118 c 128,-1,75
 354 -98 354 -98 375.5 -77.5 c 128,-1,76
 397 -57 397 -57 435.5 -29 c 128,-1,77
 474 -1 474 -1 533 39 c 1,0,-1
EndSplineSet
EndChar

StartChar: Uhorn
Encoding: 431 431 185
Width: 944
GlyphClass: 2
Flags: W
AnchorPoint: "Anchor-1" 476 -35 basechar 0
AnchorPoint: "Anchor-0" 476 663 basechar 0
LayerCount: 2
Fore
SplineSet
141 256 m 2,0,-1
 141 597 l 2,1,2
 141 619 141 619 120.5 626 c 128,-1,3
 100 633 100 633 63 633 c 2,4,-1
 52 633 l 1,5,-1
 52 710 l 1,6,-1
 337 710 l 1,7,-1
 337 634 l 1,8,-1
 328 634 l 2,9,10
 314 634 314 634 298.5 633 c 128,-1,11
 283 632 283 632 270 630.5 c 128,-1,12
 257 629 257 629 249 627.5 c 128,-1,13
 241 626 241 626 241 623 c 2,14,-1
 241 256 l 2,15,16
 241 201 241 201 255 163 c 128,-1,17
 269 125 269 125 294 103 c 128,-1,18
 319 81 319 81 353.5 71 c 128,-1,19
 388 61 388 61 429 61 c 0,20,21
 481 61 481 61 521.5 79 c 128,-1,22
 562 97 562 97 585.5 140 c 128,-1,23
 609 183 609 183 609 256 c 2,24,-1
 609 614 l 2,25,26
 609 619 609 619 602 622.5 c 128,-1,27
 595 626 595 626 583.5 628 c 128,-1,28
 572 630 572 630 557.5 631.5 c 128,-1,29
 543 633 543 633 529 633 c 2,30,-1
 520 633 l 1,31,-1
 520 710 l 1,32,-1
 758 710 l 2,33,34
 795 710 795 710 819.5 722.5 c 128,-1,35
 844 735 844 735 859 759.5 c 128,-1,36
 874 784 874 784 881.5 819 c 128,-1,37
 889 854 889 854 892 899 c 1,38,-1
 986 899 l 1,39,40
 984 846 984 846 976 805 c 128,-1,41
 968 764 968 764 952 733.5 c 128,-1,42
 936 703 936 703 910 682.5 c 128,-1,43
 884 662 884 662 847 649.5 c 128,-1,44
 810 637 810 637 760 633 c 0,45,46
 741 632 741 632 726 627.5 c 128,-1,47
 711 623 711 623 702.5 614 c 128,-1,48
 694 605 694 605 694 588 c 2,49,-1
 694 256 l 2,50,51
 694 181 694 181 673 127.5 c 128,-1,52
 652 74 652 74 614.5 40 c 128,-1,53
 577 6 577 6 527.5 -9.5 c 128,-1,54
 478 -25 478 -25 421 -25 c 0,55,56
 360 -25 360 -25 309 -9 c 128,-1,57
 258 7 258 7 220 40.5 c 128,-1,58
 182 74 182 74 161.5 127.5 c 128,-1,59
 141 181 141 181 141 256 c 2,0,-1
EndSplineSet
EndChar

StartChar: Ucaron
Encoding: 467 467 186
Width: 834
GlyphClass: 1
Flags: W
LayerCount: 2
Fore
SplineSet
388 805 m 1,0,-1
 462 805 l 1,1,-1
 597 961 l 1,2,-1
 597 981 l 1,3,-1
 546 981 l 1,4,-1
 358 837 l 1,5,-1
 498 842 l 1,6,-1
 314 981 l 1,7,-1
 252 981 l 1,8,-1
 252 961 l 1,9,-1
 388 805 l 1,0,-1
241 267 m 2,10,11
 241 209 241 209 255 169 c 128,-1,12
 269 129 269 129 294 105 c 128,-1,13
 319 81 319 81 352.5 70.5 c 128,-1,14
 386 60 386 60 426 60 c 0,15,16
 467 60 467 60 500.5 70.5 c 128,-1,17
 534 81 534 81 558.5 105 c 128,-1,18
 583 129 583 129 596 169 c 128,-1,19
 609 209 609 209 609 267 c 2,20,-1
 609 614 l 2,21,22
 609 619 609 619 601 622.5 c 128,-1,23
 593 626 593 626 580.5 628 c 128,-1,24
 568 630 568 630 554.5 631.5 c 128,-1,25
 541 633 541 633 529 633 c 2,26,-1
 520 633 l 1,27,-1
 520 710 l 1,28,-1
 782 710 l 1,29,-1
 782 633 l 1,30,-1
 771 633 l 2,31,32
 751 633 751 633 733 629 c 128,-1,33
 715 625 715 625 704 615 c 128,-1,34
 693 605 693 605 693 588 c 2,35,-1
 693 256 l 2,36,37
 693 181 693 181 671.5 127.5 c 128,-1,38
 650 74 650 74 612 40 c 128,-1,39
 574 6 574 6 525 -9.5 c 128,-1,40
 476 -25 476 -25 421 -25 c 0,41,42
 362 -25 362 -25 311 -9 c 128,-1,43
 260 7 260 7 221.5 40.5 c 128,-1,44
 183 74 183 74 162 127.5 c 128,-1,45
 141 181 141 181 141 256 c 2,46,-1
 141 597 l 2,47,48
 141 619 141 619 117.5 626 c 128,-1,49
 94 633 94 633 63 633 c 2,50,-1
 52 633 l 1,51,-1
 52 710 l 1,52,-1
 337 710 l 1,53,-1
 337 633 l 1,54,-1
 328 633 l 2,55,56
 314 633 314 633 298.5 632.5 c 128,-1,57
 283 632 283 632 270 630.5 c 128,-1,58
 257 629 257 629 249 627.5 c 128,-1,59
 241 626 241 626 241 623 c 2,60,-1
 241 267 l 2,10,11
EndSplineSet
EndChar

StartChar: Udieresiscaron
Encoding: 473 473 187
Width: 834
GlyphClass: 1
Flags: W
LayerCount: 2
Fore
SplineSet
395 994 m 1,0,-1
 469 994 l 1,1,-1
 604 1150 l 1,2,-1
 604 1170 l 1,3,-1
 553 1170 l 1,4,-1
 365 1026 l 1,5,-1
 505 1031 l 1,6,-1
 321 1170 l 1,7,-1
 259 1170 l 1,8,-1
 259 1150 l 1,9,-1
 395 994 l 1,0,-1
241 267 m 2,10,11
 241 209 241 209 255 169 c 128,-1,12
 269 129 269 129 294 105 c 128,-1,13
 319 81 319 81 352.5 70.5 c 128,-1,14
 386 60 386 60 426 60 c 0,15,16
 467 60 467 60 500.5 70.5 c 128,-1,17
 534 81 534 81 558.5 105 c 128,-1,18
 583 129 583 129 596 169 c 128,-1,19
 609 209 609 209 609 267 c 2,20,-1
 609 614 l 2,21,22
 609 619 609 619 601 622.5 c 128,-1,23
 593 626 593 626 580.5 628 c 128,-1,24
 568 630 568 630 554.5 631.5 c 128,-1,25
 541 633 541 633 529 633 c 2,26,-1
 520 633 l 1,27,-1
 520 710 l 1,28,-1
 782 710 l 1,29,-1
 782 633 l 1,30,-1
 771 633 l 2,31,32
 751 633 751 633 733 629 c 128,-1,33
 715 625 715 625 704 615 c 128,-1,34
 693 605 693 605 693 588 c 2,35,-1
 693 256 l 2,36,37
 693 181 693 181 671.5 127.5 c 128,-1,38
 650 74 650 74 612 40 c 128,-1,39
 574 6 574 6 525 -9.5 c 128,-1,40
 476 -25 476 -25 421 -25 c 0,41,42
 362 -25 362 -25 311 -9 c 128,-1,43
 260 7 260 7 221.5 40.5 c 128,-1,44
 183 74 183 74 162 127.5 c 128,-1,45
 141 181 141 181 141 256 c 2,46,-1
 141 597 l 2,47,48
 141 619 141 619 117.5 626 c 128,-1,49
 94 633 94 633 63 633 c 2,50,-1
 52 633 l 1,51,-1
 52 710 l 1,52,-1
 337 710 l 1,53,-1
 337 633 l 1,54,-1
 328 633 l 2,55,56
 314 633 314 633 298.5 632.5 c 128,-1,57
 283 632 283 632 270 630.5 c 128,-1,58
 257 629 257 629 249 627.5 c 128,-1,59
 241 626 241 626 241 623 c 2,60,-1
 241 267 l 2,10,11
374 889 m 0,61,62
 374 852 374 852 353.5 835 c 128,-1,63
 333 818 333 818 301 818 c 0,64,65
 268 818 268 818 248 835 c 128,-1,66
 228 852 228 852 228 889 c 0,67,68
 228 925 228 925 248 942 c 128,-1,69
 268 959 268 959 301 959 c 0,70,71
 333 959 333 959 353.5 942 c 128,-1,72
 374 925 374 925 374 889 c 0,61,62
634 889 m 0,73,74
 634 852 634 852 613.5 835 c 128,-1,75
 593 818 593 818 561 818 c 256,76,77
 529 818 529 818 508.5 835 c 128,-1,78
 488 852 488 852 488 889 c 0,79,80
 488 925 488 925 508.5 942 c 128,-1,81
 529 959 529 959 561 959 c 256,82,83
 593 959 593 959 613.5 942 c 128,-1,84
 634 925 634 925 634 889 c 0,73,74
EndSplineSet
EndChar

StartChar: Udblgrave
Encoding: 532 532 188
Width: 834
GlyphClass: 1
Flags: W
LayerCount: 2
Fore
SplineSet
510 929 m 2,0,-1
 556 827 l 1,1,-1
 556 793 l 1,2,-1
 513 793 l 1,3,-1
 441 854 l 2,4,5
 419 871 419 871 407 888 c 128,-1,6
 395 905 395 905 395 927 c 0,7,8
 395 945 395 945 409 958 c 128,-1,9
 423 971 423 971 446 971 c 0,10,11
 463 971 463 971 475 965.5 c 128,-1,12
 487 960 487 960 495.5 950.5 c 128,-1,13
 504 941 504 941 510 929 c 2,0,-1
311 929 m 2,14,-1
 354 827 l 1,15,-1
 354 793 l 1,16,-1
 311 793 l 1,17,-1
 239 854 l 2,18,19
 217 871 217 871 205 888 c 128,-1,20
 193 905 193 905 193 927 c 0,21,22
 193 945 193 945 207 958 c 128,-1,23
 221 971 221 971 244 971 c 0,24,25
 261 971 261 971 274 965.5 c 128,-1,26
 287 960 287 960 296 950.5 c 128,-1,27
 305 941 305 941 311 929 c 2,14,-1
241 267 m 2,28,29
 241 209 241 209 255 169 c 128,-1,30
 269 129 269 129 294 105 c 128,-1,31
 319 81 319 81 352.5 70.5 c 128,-1,32
 386 60 386 60 426 60 c 0,33,34
 467 60 467 60 500.5 70.5 c 128,-1,35
 534 81 534 81 558.5 105 c 128,-1,36
 583 129 583 129 596 169 c 128,-1,37
 609 209 609 209 609 267 c 2,38,-1
 609 614 l 2,39,40
 609 619 609 619 601 622.5 c 128,-1,41
 593 626 593 626 580.5 628 c 128,-1,42
 568 630 568 630 554.5 631.5 c 128,-1,43
 541 633 541 633 529 633 c 2,44,-1
 520 633 l 1,45,-1
 520 710 l 1,46,-1
 782 710 l 1,47,-1
 782 633 l 1,48,-1
 771 633 l 2,49,50
 751 633 751 633 733 629 c 128,-1,51
 715 625 715 625 704 615 c 128,-1,52
 693 605 693 605 693 588 c 2,53,-1
 693 256 l 2,54,55
 693 181 693 181 671.5 127.5 c 128,-1,56
 650 74 650 74 612 40 c 128,-1,57
 574 6 574 6 525 -9.5 c 128,-1,58
 476 -25 476 -25 421 -25 c 0,59,60
 362 -25 362 -25 311 -9 c 128,-1,61
 260 7 260 7 221.5 40.5 c 128,-1,62
 183 74 183 74 162 127.5 c 128,-1,63
 141 181 141 181 141 256 c 2,64,-1
 141 597 l 2,65,66
 141 619 141 619 117.5 626 c 128,-1,67
 94 633 94 633 63 633 c 2,68,-1
 52 633 l 1,69,-1
 52 710 l 1,70,-1
 337 710 l 1,71,-1
 337 633 l 1,72,-1
 328 633 l 2,73,74
 314 633 314 633 298.5 632.5 c 128,-1,75
 283 632 283 632 270 630.5 c 128,-1,76
 257 629 257 629 249 627.5 c 128,-1,77
 241 626 241 626 241 623 c 2,78,-1
 241 267 l 2,28,29
EndSplineSet
EndChar

StartChar: Uinvertedbreve
Encoding: 534 534 189
Width: 834
GlyphClass: 1
Flags: W
LayerCount: 2
Fore
SplineSet
417 928 m 0,0,1
 360 928 360 928 320.5 911 c 128,-1,2
 281 894 281 894 259.5 856.5 c 128,-1,3
 238 819 238 819 237 757 c 1,4,-1
 313 757 l 1,5,6
 315 794 315 794 324.5 813 c 128,-1,7
 334 832 334 832 356 839 c 128,-1,8
 378 846 378 846 417 846 c 0,9,10
 453 846 453 846 474.5 839 c 128,-1,11
 496 832 496 832 506 813 c 128,-1,12
 516 794 516 794 518 757 c 1,13,-1
 598 757 l 1,14,15
 597 819 597 819 574.5 856.5 c 128,-1,16
 552 894 552 894 512 911 c 128,-1,17
 472 928 472 928 417 928 c 0,0,1
241 267 m 2,18,19
 241 209 241 209 255 169 c 128,-1,20
 269 129 269 129 294 105 c 128,-1,21
 319 81 319 81 352.5 70.5 c 128,-1,22
 386 60 386 60 426 60 c 0,23,24
 467 60 467 60 500.5 70.5 c 128,-1,25
 534 81 534 81 558.5 105 c 128,-1,26
 583 129 583 129 596 169 c 128,-1,27
 609 209 609 209 609 267 c 2,28,-1
 609 614 l 2,29,30
 609 619 609 619 601 622.5 c 128,-1,31
 593 626 593 626 580.5 628 c 128,-1,32
 568 630 568 630 554.5 631.5 c 128,-1,33
 541 633 541 633 529 633 c 2,34,-1
 520 633 l 1,35,-1
 520 710 l 1,36,-1
 782 710 l 1,37,-1
 782 633 l 1,38,-1
 771 633 l 2,39,40
 751 633 751 633 733 629 c 128,-1,41
 715 625 715 625 704 615 c 128,-1,42
 693 605 693 605 693 588 c 2,43,-1
 693 256 l 2,44,45
 693 181 693 181 671.5 127.5 c 128,-1,46
 650 74 650 74 612 40 c 128,-1,47
 574 6 574 6 525 -9.5 c 128,-1,48
 476 -25 476 -25 421 -25 c 0,49,50
 362 -25 362 -25 311 -9 c 128,-1,51
 260 7 260 7 221.5 40.5 c 128,-1,52
 183 74 183 74 162 127.5 c 128,-1,53
 141 181 141 181 141 256 c 2,54,-1
 141 597 l 2,55,56
 141 619 141 619 117.5 626 c 128,-1,57
 94 633 94 633 63 633 c 2,58,-1
 52 633 l 1,59,-1
 52 710 l 1,60,-1
 337 710 l 1,61,-1
 337 633 l 1,62,-1
 328 633 l 2,63,64
 314 633 314 633 298.5 632.5 c 128,-1,65
 283 632 283 632 270 630.5 c 128,-1,66
 257 629 257 629 249 627.5 c 128,-1,67
 241 626 241 626 241 623 c 2,68,-1
 241 267 l 2,18,19
EndSplineSet
EndChar

StartChar: V
Encoding: 86 86 199
Width: 755
GlyphClass: 2
Flags: W
AnchorPoint: "Anchor-0" 360 741 basechar 0
LayerCount: 2
Fore
SplineSet
399 30 m 1,0,-1
 377 44 l 1,1,-1
 578 610 l 2,2,3
 578 617 578 617 567 622 c 128,-1,4
 556 627 556 627 537.5 630 c 128,-1,5
 519 633 519 633 495 633 c 2,6,-1
 482 633 l 1,7,-1
 482 710 l 1,8,-1
 735 710 l 1,9,-1
 735 633 l 1,10,-1
 729 633 l 2,11,12
 704 633 704 633 684.5 621 c 128,-1,13
 665 609 665 609 651 569 c 2,14,-1
 443 -12 l 1,15,-1
 316 -12 l 1,16,-1
 105 569 l 2,17,18
 91 609 91 609 71 621 c 128,-1,19
 51 633 51 633 26 633 c 2,20,-1
 20 633 l 1,21,-1
 20 710 l 1,22,-1
 290 710 l 1,23,-1
 290 633 l 1,24,-1
 278 633 l 2,25,26
 250 633 250 633 230 631.5 c 128,-1,27
 210 630 210 630 199 628 c 128,-1,28
 188 626 188 626 188 622 c 2,29,-1
 399 30 l 1,0,-1
EndSplineSet
EndChar

StartChar: W
Encoding: 87 87 200
Width: 1051
GlyphClass: 2
Flags: W
AnchorPoint: "Anchor-0" 540 741 basechar 0
LayerCount: 2
Fore
SplineSet
20 710 m 1,0,-1
 275 710 l 1,1,-1
 275 633 l 1,2,-1
 258 633 l 2,3,4
 245 633 245 633 228.5 631.5 c 128,-1,5
 212 630 212 630 200 628 c 128,-1,6
 188 626 188 626 188 622 c 2,7,-1
 339 52 l 1,8,-1
 302 52 l 1,9,-1
 480 710 l 1,10,-1
 592 710 l 1,11,-1
 772 55 l 1,12,-1
 737 55 l 1,13,-1
 885 609 l 2,14,15
 885 616 885 616 874.5 621.5 c 128,-1,16
 864 627 864 627 849.5 630 c 128,-1,17
 835 633 835 633 822 633 c 2,18,-1
 807 633 l 1,19,-1
 807 710 l 1,20,-1
 1031 710 l 1,21,-1
 1031 633 l 1,22,-1
 1024 633 l 2,23,24
 1001 633 1001 633 983.5 622 c 128,-1,25
 966 611 966 611 959 588 c 2,26,-1
 802 0 l 1,27,-1
 693 0 l 1,28,-1
 509 656 l 1,29,-1
 544 656 l 1,30,-1
 369 0 l 1,31,-1
 260 0 l 1,32,-1
 92 600 l 2,33,34
 85 624 85 624 69 628.5 c 128,-1,35
 53 633 53 633 27 633 c 2,36,-1
 20 633 l 1,37,-1
 20 710 l 1,0,-1
EndSplineSet
EndChar

StartChar: X
Encoding: 88 88 205
Width: 772
GlyphClass: 2
Flags: W
AnchorPoint: "Anchor-1" 355 0 basechar 0
AnchorPoint: "Anchor-0" 378 741 basechar 0
LayerCount: 2
Fore
SplineSet
44 633 m 1,0,-1
 44 710 l 1,1,-1
 326 710 l 1,2,-1
 326 633 l 1,3,-1
 309 633 l 2,4,5
 291 633 291 633 274.5 632 c 128,-1,6
 258 631 258 631 247 629 c 128,-1,7
 236 627 236 627 236 624 c 2,8,-1
 419 391 l 1,9,-1
 430 389 l 1,10,-1
 646 111 l 2,11,12
 664 89 664 89 681.5 83 c 128,-1,13
 699 77 699 77 721 77 c 2,14,-1
 742 77 l 1,15,-1
 742 0 l 1,16,-1
 454 0 l 1,17,-1
 454 77 l 1,18,-1
 471 77 l 2,19,20
 489 77 489 77 506 78 c 128,-1,21
 523 79 523 79 534 81.5 c 128,-1,22
 545 84 545 84 545 87 c 2,23,-1
 348 338 l 1,24,-1
 338 341 l 1,25,-1
 136 599 l 2,26,27
 118 622 118 622 99.5 627.5 c 128,-1,28
 81 633 81 633 59 633 c 2,29,-1
 44 633 l 1,0,-1
30 0 m 1,30,-1
 30 77 l 1,31,-1
 50 77 l 2,32,33
 72 77 72 77 90 86.5 c 128,-1,34
 108 96 108 96 129 123 c 2,35,-1
 328 379 l 1,36,-1
 388 334 l 1,37,-1
 203 94 l 2,38,39
 203 90 203 90 214.5 86 c 128,-1,40
 226 82 226 82 242.5 79.5 c 128,-1,41
 259 77 259 77 273 77 c 2,42,-1
 292 77 l 1,43,-1
 292 0 l 1,44,-1
 30 0 l 1,30,-1
442 355 m 1,45,-1
 380 397 l 1,46,-1
 556 616 l 2,47,48
 556 621 556 621 544 625 c 128,-1,49
 532 629 532 629 515.5 631 c 128,-1,50
 499 633 499 633 484 633 c 2,51,-1
 469 633 l 1,52,-1
 469 710 l 1,53,-1
 727 710 l 1,54,-1
 727 633 l 1,55,-1
 712 633 l 2,56,57
 690 633 690 633 671.5 624.5 c 128,-1,58
 653 616 653 616 631 588 c 2,59,-1
 442 355 l 1,45,-1
EndSplineSet
EndChar

StartChar: Y
Encoding: 89 89 206
Width: 722
GlyphClass: 2
Flags: W
AnchorPoint: "Anchor-1" 365 0 basechar 0
AnchorPoint: "Anchor-0" 365 741 basechar 0
LayerCount: 2
Fore
SplineSet
314 309 m 1,0,-1
 322 264 l 1,1,-1
 111 599 l 2,2,3
 102 614 102 614 92 621.5 c 128,-1,4
 82 629 82 629 70 631 c 128,-1,5
 58 633 58 633 43 633 c 2,6,-1
 30 633 l 1,7,-1
 30 710 l 1,8,-1
 282 710 l 1,9,-1
 282 633 l 1,10,-1
 265 633 l 2,11,12
 250 633 250 633 235 631.5 c 128,-1,13
 220 630 220 630 210.5 628 c 128,-1,14
 201 626 201 626 201 622 c 2,15,-1
 392 308 l 1,16,-1
 357 308 l 1,17,-1
 533 610 l 2,18,19
 533 617 533 617 522.5 622 c 128,-1,20
 512 627 512 627 498 630 c 128,-1,21
 484 633 484 633 473 633 c 2,22,-1
 462 633 l 1,23,-1
 462 710 l 1,24,-1
 692 710 l 1,25,-1
 692 633 l 1,26,-1
 679 633 l 2,27,28
 666 633 666 633 653.5 628.5 c 128,-1,29
 641 624 641 624 629.5 614 c 128,-1,30
 618 604 618 604 606 586 c 2,31,-1
 407 263 l 1,32,-1
 415 309 l 1,33,-1
 415 113 l 2,34,35
 415 91 415 91 439.5 84 c 128,-1,36
 464 77 464 77 499 77 c 2,37,-1
 520 77 l 1,38,-1
 520 0 l 1,39,-1
 209 0 l 1,40,-1
 209 77 l 1,41,-1
 230 77 l 2,42,43
 266 77 266 77 290 84 c 128,-1,44
 314 91 314 91 314 113 c 2,45,-1
 314 309 l 1,0,-1
EndSplineSet
EndChar

StartChar: Z
Encoding: 90 90 216
Width: 685
GlyphClass: 2
Flags: W
AnchorPoint: "Anchor-1" 362 0 basechar 0
AnchorPoint: "Anchor-0" 362 741 basechar 0
LayerCount: 2
Fore
SplineSet
278 633 m 2,0,1
 246 633 246 633 225.5 631 c 128,-1,2
 205 629 205 629 193.5 624 c 128,-1,3
 182 619 182 619 176 610.5 c 128,-1,4
 170 602 170 602 168 588 c 2,5,-1
 155 503 l 1,6,-1
 80 503 l 1,7,-1
 80 710 l 1,8,-1
 604 710 l 1,9,-1
 604 626 l 1,10,-1
 136 21 l 1,11,-1
 120 77 l 1,12,-1
 418 77 l 2,13,14
 461 77 461 77 484 80.5 c 128,-1,15
 507 84 507 84 516.5 94 c 128,-1,16
 526 104 526 104 528 122 c 2,17,-1
 543 231 l 1,18,-1
 620 231 l 1,19,-1
 620 0 l 1,20,-1
 65 0 l 1,21,-1
 65 87 l 1,22,-1
 520 676 l 1,23,-1
 542 633 l 1,24,-1
 278 633 l 2,0,1
EndSplineSet
EndChar

StartChar: Zcaron
Encoding: 381 381 219
Width: 685
GlyphClass: 1
Flags: W
LayerCount: 2
Fore
SplineSet
300 805 m 1,0,-1
 374 805 l 1,1,-1
 509 961 l 1,2,-1
 509 981 l 1,3,-1
 458 981 l 1,4,-1
 270 837 l 1,5,-1
 410 842 l 1,6,-1
 226 981 l 1,7,-1
 164 981 l 1,8,-1
 164 961 l 1,9,-1
 300 805 l 1,0,-1
278 633 m 2,10,11
 246 633 246 633 225.5 631 c 128,-1,12
 205 629 205 629 193.5 624 c 128,-1,13
 182 619 182 619 176 610.5 c 128,-1,14
 170 602 170 602 168 588 c 2,15,-1
 155 503 l 1,16,-1
 80 503 l 1,17,-1
 80 710 l 1,18,-1
 604 710 l 1,19,-1
 604 626 l 1,20,-1
 136 21 l 1,21,-1
 120 77 l 1,22,-1
 418 77 l 2,23,24
 461 77 461 77 484 80.5 c 128,-1,25
 507 84 507 84 516.5 94 c 128,-1,26
 526 104 526 104 528 122 c 2,27,-1
 543 231 l 1,28,-1
 620 231 l 1,29,-1
 620 0 l 1,30,-1
 65 0 l 1,31,-1
 65 87 l 1,32,-1
 520 676 l 1,33,-1
 542 633 l 1,34,-1
 278 633 l 2,10,11
EndSplineSet
EndChar

StartChar: AE
Encoding: 198 198 221
Width: 1106
GlyphClass: 2
Flags: W
AnchorPoint: "Anchor-0" 682 741 basechar 0
LayerCount: 2
Fore
SplineSet
247 301 m 1,0,-1
 581 301 l 1,1,-1
 600 225 l 1,2,-1
 227 225 l 1,3,-1
 247 301 l 1,0,-1
623 402 m 1,4,5
 669 403 669 403 716 405 c 128,-1,6
 763 407 763 407 812 410 c 128,-1,7
 861 413 861 413 911 417 c 1,8,-1
 911 313 l 1,9,10
 863 315 863 315 815 317 c 128,-1,11
 767 319 767 319 719 322 c 128,-1,12
 671 325 671 325 623 329 c 1,13,-1
 623 402 l 1,4,5
452 0 m 1,14,-1
 452 77 l 1,15,-1
 458 77 l 2,16,17
 486 77 486 77 505 80 c 128,-1,18
 524 83 524 83 534 88.5 c 128,-1,19
 544 94 544 94 544 100 c 2,20,-1
 544 656 l 1,21,-1
 522 641 l 1,22,-1
 181 100 l 2,23,24
 181 94 181 94 189 88.5 c 128,-1,25
 197 83 197 83 214 80 c 128,-1,26
 231 77 231 77 259 77 c 2,27,-1
 269 77 l 1,28,-1
 269 0 l 1,29,-1
 5 0 l 1,30,-1
 5 77 l 1,31,-1
 11 77 l 2,32,33
 32 77 32 77 48 83.5 c 128,-1,34
 64 90 64 90 79 104 c 128,-1,35
 94 118 94 118 108 141 c 2,36,-1
 398 601 l 1,37,38
 398 616 398 616 391.5 622.5 c 128,-1,39
 385 629 385 629 370.5 631 c 128,-1,40
 356 633 356 633 331 633 c 2,41,-1
 320 633 l 1,42,-1
 320 710 l 1,43,-1
 1012 710 l 1,44,-1
 1012 508 l 1,45,-1
 937 508 l 1,46,-1
 924 588 l 2,47,48
 921 606 921 606 908 615.5 c 128,-1,49
 895 625 895 625 868 629 c 128,-1,50
 841 633 841 633 799 633 c 2,51,-1
 643 633 l 1,52,-1
 643 77 l 1,53,-1
 815 77 l 2,54,55
 847 77 847 77 870 79 c 128,-1,56
 893 81 893 81 907.5 86 c 128,-1,57
 922 91 922 91 929.5 100 c 128,-1,58
 937 109 937 109 939 122 c 2,59,-1
 954 227 l 1,60,-1
 1031 227 l 1,61,-1
 1031 0 l 1,62,-1
 452 0 l 1,14,-1
EndSplineSet
EndChar

StartChar: Eth
Encoding: 208 208 223
Width: 815
GlyphClass: 1
Flags: W
LayerCount: 2
Fore
SplineSet
50 399 m 1,0,-1
 460 399 l 1,1,-1
 460 322 l 1,2,-1
 50 322 l 1,3,-1
 50 399 l 1,0,-1
60 633 m 1,4,-1
 60 710 l 1,5,-1
 369 710 l 2,6,7
 460 710 460 710 531.5 688.5 c 128,-1,8
 603 667 603 667 652.5 623.5 c 128,-1,9
 702 580 702 580 727.5 514 c 128,-1,10
 753 448 753 448 753 359 c 0,11,12
 753 271 753 271 727.5 203.5 c 128,-1,13
 702 136 702 136 652.5 91 c 128,-1,14
 603 46 603 46 531.5 23 c 128,-1,15
 460 0 460 0 369 0 c 2,16,-1
 60 0 l 1,17,-1
 60 77 l 1,18,-1
 71 77 l 2,19,20
 102 77 102 77 125.5 84 c 128,-1,21
 149 91 149 91 149 113 c 2,22,-1
 149 597 l 2,23,24
 149 619 149 619 125.5 626 c 128,-1,25
 102 633 102 633 71 633 c 2,26,-1
 60 633 l 1,4,-1
369 633 m 2,27,-1
 249 633 l 1,28,-1
 249 77 l 1,29,-1
 369 77 l 2,30,31
 440 77 440 77 492 94 c 128,-1,32
 544 111 544 111 578 146 c 128,-1,33
 612 181 612 181 629 234 c 128,-1,34
 646 287 646 287 646 359 c 256,35,36
 646 431 646 431 629 482.5 c 128,-1,37
 612 534 612 534 578 567.5 c 128,-1,38
 544 601 544 601 492 617 c 128,-1,39
 440 633 440 633 369 633 c 2,27,-1
EndSplineSet
EndChar

StartChar: Oslash
Encoding: 216 216 224
Width: 832
GlyphClass: 2
Flags: W
AnchorPoint: "Anchor-0" 415 731 basechar 0
LayerCount: 2
Fore
SplineSet
416 656 m 256,0,1
 355 656 355 656 309 638 c 128,-1,2
 263 620 263 620 232 582.5 c 128,-1,3
 201 545 201 545 185.5 488.5 c 128,-1,4
 170 432 170 432 170 355 c 0,5,6
 170 273 170 273 185.5 215 c 128,-1,7
 201 157 201 157 231.5 122 c 128,-1,8
 262 87 262 87 308.5 70.5 c 128,-1,9
 355 54 355 54 416 54 c 256,10,11
 477 54 477 54 523 72.5 c 128,-1,12
 569 91 569 91 600 128 c 128,-1,13
 631 165 631 165 647 221.5 c 128,-1,14
 663 278 663 278 663 355 c 0,15,16
 663 438 663 438 647.5 495.5 c 128,-1,17
 632 553 632 553 601 588.5 c 128,-1,18
 570 624 570 624 523.5 640 c 128,-1,19
 477 656 477 656 416 656 c 256,0,1
416 -25 m 0,20,21
 337 -25 337 -25 271.5 2 c 128,-1,22
 206 29 206 29 159.5 79.5 c 128,-1,23
 113 130 113 130 87.5 200 c 128,-1,24
 62 270 62 270 62 355 c 0,25,26
 62 448 62 448 87.5 518.5 c 128,-1,27
 113 589 113 589 160 637.5 c 128,-1,28
 207 686 207 686 272 710.5 c 128,-1,29
 337 735 337 735 416 735 c 0,30,31
 496 735 496 735 561 708 c 128,-1,32
 626 681 626 681 672.5 630.5 c 128,-1,33
 719 580 719 580 744.5 510 c 128,-1,34
 770 440 770 440 770 355 c 0,35,36
 770 263 770 263 744.5 192 c 128,-1,37
 719 121 719 121 672.5 72.5 c 128,-1,38
 626 24 626 24 561 -0.5 c 128,-1,39
 496 -25 496 -25 416 -25 c 0,20,21
0 -25 m 1,40,-1
 741 735 l 1,41,-1
 832 735 l 1,42,-1
 92 -25 l 1,43,-1
 0 -25 l 1,40,-1
EndSplineSet
EndChar

StartChar: Thorn
Encoding: 222 222 226
Width: 725
GlyphClass: 1
Flags: W
LayerCount: 2
Fore
SplineSet
364 710 m 1,0,-1
 60 710 l 1,1,-1
 60 633 l 1,2,-1
 71 633 l 2,3,4
 108 633 108 633 128.5 626 c 128,-1,5
 149 619 149 619 149 597 c 2,6,-1
 149 113 l 2,7,8
 149 91 149 91 128.5 84 c 128,-1,9
 108 77 108 77 71 77 c 2,10,-1
 60 77 l 1,11,-1
 60 0 l 1,12,-1
 364 0 l 1,13,-1
 364 77 l 1,14,-1
 344 77 l 2,15,16
 326 77 326 77 309 77.5 c 128,-1,17
 292 78 292 78 278.5 79.5 c 128,-1,18
 265 81 265 81 257 82.5 c 128,-1,19
 249 84 249 84 249 87 c 2,20,-1
 249 623 l 2,21,22
 249 626 249 626 257 627.5 c 128,-1,23
 265 629 265 629 278.5 630.5 c 128,-1,24
 292 632 292 632 309 632.5 c 128,-1,25
 326 633 326 633 344 633 c 2,26,-1
 364 633 l 1,27,-1
 364 710 l 1,0,-1
665 366 m 0,28,29
 665 431 665 431 635.5 472.5 c 128,-1,30
 606 514 606 514 551.5 533.5 c 128,-1,31
 497 553 497 553 420 553 c 2,32,-1
 222 553 l 1,33,-1
 222 476 l 1,34,-1
 419 476 l 2,35,36
 470 476 470 476 500.5 465 c 128,-1,37
 531 454 531 454 544.5 429.5 c 128,-1,38
 558 405 558 405 558 366 c 0,39,40
 558 326 558 326 544.5 301 c 128,-1,41
 531 276 531 276 500 264 c 128,-1,42
 469 252 469 252 419 252 c 2,43,-1
 222 252 l 1,44,-1
 222 175 l 1,45,-1
 420 175 l 2,46,47
 493 175 493 175 548 196.5 c 128,-1,48
 603 218 603 218 634 260.5 c 128,-1,49
 665 303 665 303 665 366 c 0,28,29
EndSplineSet
EndChar

StartChar: Hbar
Encoding: 294 294 228
Width: 873
GlyphClass: 1
Flags: W
LayerCount: 2
Fore
SplineSet
229 373 m 1,0,-1
 644 373 l 1,1,-1
 644 304 l 1,2,-1
 229 304 l 1,3,-1
 229 373 l 1,0,-1
60 0 m 1,4,-1
 60 77 l 1,5,-1
 71 77 l 2,6,7
 102 77 102 77 125.5 84 c 128,-1,8
 149 91 149 91 149 113 c 2,9,-1
 149 597 l 2,10,11
 149 619 149 619 125.5 626 c 128,-1,12
 102 633 102 633 71 633 c 2,13,-1
 60 633 l 1,14,-1
 60 710 l 1,15,-1
 345 710 l 1,16,-1
 345 634 l 1,17,-1
 336 634 l 2,18,19
 322 634 322 634 306.5 633 c 128,-1,20
 291 632 291 632 278 630.5 c 128,-1,21
 265 629 265 629 257 627.5 c 128,-1,22
 249 626 249 626 249 623 c 2,23,-1
 249 86 l 2,24,25
 249 84 249 84 257 82.5 c 128,-1,26
 265 81 265 81 278 79.5 c 128,-1,27
 291 78 291 78 306.5 77.5 c 128,-1,28
 322 77 322 77 336 77 c 2,29,-1
 345 77 l 1,30,-1
 345 0 l 1,31,-1
 60 0 l 1,4,-1
528 0 m 1,32,-1
 528 76 l 1,33,-1
 537 76 l 2,34,35
 551 76 551 76 566.5 77 c 128,-1,36
 582 78 582 78 595 79.5 c 128,-1,37
 608 81 608 81 616 82.5 c 128,-1,38
 624 84 624 84 624 87 c 2,39,-1
 624 624 l 2,40,41
 624 626 624 626 616 627.5 c 128,-1,42
 608 629 608 629 595 630.5 c 128,-1,43
 582 632 582 632 566.5 632.5 c 128,-1,44
 551 633 551 633 537 633 c 2,45,-1
 528 633 l 1,46,-1
 528 710 l 1,47,-1
 813 710 l 1,48,-1
 813 633 l 1,49,-1
 802 633 l 2,50,51
 771 633 771 633 748 626 c 128,-1,52
 725 619 725 619 725 597 c 2,53,-1
 725 113 l 2,54,55
 725 91 725 91 748 84 c 128,-1,56
 771 77 771 77 802 77 c 2,57,-1
 813 77 l 1,58,-1
 813 0 l 1,59,-1
 528 0 l 1,32,-1
50 473 m 1,60,-1
 50 542 l 1,61,-1
 823 542 l 1,62,-1
 823 473 l 1,63,-1
 50 473 l 1,60,-1
EndSplineSet
EndChar

StartChar: Ldot
Encoding: 319 319 230
Width: 664
GlyphClass: 1
Flags: W
LayerCount: 2
Fore
SplineSet
356 710 m 1,0,-1
 60 710 l 1,1,-1
 60 633 l 1,2,-1
 71 633 l 2,3,4
 102 633 102 633 125.5 626 c 128,-1,5
 149 619 149 619 149 597 c 2,6,-1
 149 113 l 2,7,8
 149 91 149 91 125.5 84 c 128,-1,9
 102 77 102 77 71 77 c 2,10,-1
 60 77 l 1,11,-1
 60 0 l 1,12,-1
 614 0 l 1,13,-1
 614 221 l 1,14,-1
 537 221 l 1,15,-1
 522 122 l 2,16,17
 520 104 520 104 506.5 94 c 128,-1,18
 493 84 493 84 466 80.5 c 128,-1,19
 439 77 439 77 397 77 c 2,20,-1
 249 77 l 1,21,-1
 249 597 l 2,22,23
 249 619 249 619 275 626 c 128,-1,24
 301 633 301 633 340 633 c 2,25,-1
 356 633 l 1,26,-1
 356 710 l 1,0,-1
548 341 m 0,27,28
 508 341 508 341 481.5 365.5 c 128,-1,29
 455 390 455 390 455 429 c 0,30,31
 455 469 455 469 481.5 492.5 c 128,-1,32
 508 516 508 516 548 516 c 0,33,34
 590 516 590 516 617 492.5 c 128,-1,35
 644 469 644 469 644 429 c 0,36,37
 644 390 644 390 617 365.5 c 128,-1,38
 590 341 590 341 548 341 c 0,27,28
EndSplineSet
Ligature2: "Ligature Substitution lookup 5 subtable" L periodcentered
EndChar

StartChar: Lslash
Encoding: 321 321 231
Width: 664
GlyphClass: 1
Flags: W
LayerCount: 2
Fore
SplineSet
31 182 m 1,0,-1
 520 470 l 1,1,-1
 520 552 l 1,2,-1
 31 264 l 1,3,-1
 31 182 l 1,0,-1
356 710 m 1,4,-1
 60 710 l 1,5,-1
 60 633 l 1,6,-1
 71 633 l 2,7,8
 102 633 102 633 125.5 626 c 128,-1,9
 149 619 149 619 149 597 c 2,10,-1
 149 113 l 2,11,12
 149 91 149 91 125.5 84 c 128,-1,13
 102 77 102 77 71 77 c 2,14,-1
 60 77 l 1,15,-1
 60 0 l 1,16,-1
 614 0 l 1,17,-1
 614 236 l 1,18,-1
 537 236 l 1,19,-1
 522 122 l 2,20,21
 520 104 520 104 507 94 c 128,-1,22
 494 84 494 84 467 80.5 c 128,-1,23
 440 77 440 77 397 77 c 2,24,-1
 249 77 l 1,25,-1
 249 597 l 2,26,27
 249 619 249 619 275 626 c 128,-1,28
 301 633 301 633 340 633 c 2,29,-1
 356 633 l 1,30,-1
 356 710 l 1,4,-1
EndSplineSet
EndChar

StartChar: Eng
Encoding: 330 330 232
Width: 848
GlyphClass: 1
Flags: W
LayerCount: 2
Fore
SplineSet
710 -11 m 2,0,1
 710 -75 710 -75 692 -121 c 128,-1,2
 674 -167 674 -167 641.5 -195 c 128,-1,3
 609 -223 609 -223 566 -236.5 c 128,-1,4
 523 -250 523 -250 472 -250 c 0,5,6
 429 -250 429 -250 398.5 -244.5 c 128,-1,7
 368 -239 368 -239 349 -231 c 1,8,-1
 349 -147 l 1,9,10
 364 -153 364 -153 382 -158 c 128,-1,11
 400 -163 400 -163 422 -166 c 128,-1,12
 444 -169 444 -169 469 -169 c 0,13,14
 522 -169 522 -169 556 -154.5 c 128,-1,15
 590 -140 590 -140 607.5 -103 c 128,-1,16
 625 -66 625 -66 625 0 c 2,17,-1
 625 67 l 1,18,-1
 643 -31 l 1,19,-1
 205 666 l 1,20,-1
 236 669 l 1,21,-1
 236 87 l 2,22,23
 236 84 236 84 247.5 81.5 c 128,-1,24
 259 79 259 79 276.5 78 c 128,-1,25
 294 77 294 77 310 77 c 2,26,-1
 324 77 l 1,27,-1
 324 0 l 1,28,-1
 62 0 l 1,29,-1
 62 77 l 1,30,-1
 73 77 l 2,31,32
 98 77 98 77 115 80 c 128,-1,33
 132 83 132 83 141.5 91 c 128,-1,34
 151 99 151 99 151 113 c 2,35,-1
 151 597 l 2,36,37
 151 612 151 612 141.5 619.5 c 128,-1,38
 132 627 132 627 115 630 c 128,-1,39
 98 633 98 633 73 633 c 2,40,-1
 62 633 l 1,41,-1
 62 710 l 1,42,-1
 287 710 l 1,43,-1
 678 85 l 1,44,-1
 624 86 l 1,45,-1
 624 623 l 2,46,47
 624 627 624 627 612.5 629 c 128,-1,48
 601 631 601 631 584 632 c 128,-1,49
 567 633 567 633 550 633 c 2,50,-1
 536 633 l 1,51,-1
 536 710 l 1,52,-1
 798 710 l 1,53,-1
 798 633 l 1,54,-1
 787 633 l 2,55,56
 763 633 763 633 745.5 630 c 128,-1,57
 728 627 728 627 719 619.5 c 128,-1,58
 710 612 710 612 710 597 c 2,59,-1
 710 -11 l 2,0,1
EndSplineSet
Substitution2: "'ss07' Style Set 7 lookup 67 subtable" Eng.afr
EndChar

StartChar: OE
Encoding: 338 338 233
Width: 1124
GlyphClass: 1
Flags: W
LayerCount: 2
Fore
SplineSet
642 402 m 1,0,1
 690 405 690 405 738 407.5 c 128,-1,2
 786 410 786 410 833.5 412.5 c 128,-1,3
 881 415 881 415 929 417 c 1,4,-1
 929 314 l 1,5,6
 881 317 881 317 833.5 319.5 c 128,-1,7
 786 322 786 322 738 324.5 c 128,-1,8
 690 327 690 327 642 329 c 1,9,-1
 642 402 l 1,0,1
446 77 m 2,10,-1
 562 77 l 1,11,-1
 562 633 l 1,12,-1
 446 633 l 2,13,14
 376 633 376 633 324 616.5 c 128,-1,15
 272 600 272 600 238 566.5 c 128,-1,16
 204 533 204 533 187 479 c 128,-1,17
 170 425 170 425 170 351 c 256,18,19
 170 277 170 277 187 224.5 c 128,-1,20
 204 172 204 172 238 139.5 c 128,-1,21
 272 107 272 107 324 92 c 128,-1,22
 376 77 376 77 446 77 c 2,10,-1
446 0 m 2,23,24
 355 0 355 0 283.5 21.5 c 128,-1,25
 212 43 212 43 162.5 86.5 c 128,-1,26
 113 130 113 130 87.5 196 c 128,-1,27
 62 262 62 262 62 351 c 256,28,29
 62 440 62 440 87.5 507 c 128,-1,30
 113 574 113 574 162.5 619 c 128,-1,31
 212 664 212 664 283.5 687 c 128,-1,32
 355 710 355 710 446 710 c 2,33,-1
 1030 710 l 1,34,-1
 1030 508 l 1,35,-1
 955 508 l 1,36,-1
 943 588 l 2,37,38
 941 606 941 606 930 615.5 c 128,-1,39
 919 625 919 625 895 629 c 128,-1,40
 871 633 871 633 828 633 c 2,41,-1
 663 633 l 1,42,-1
 663 77 l 1,43,-1
 843 77 l 2,44,45
 875 77 875 77 896.5 79 c 128,-1,46
 918 81 918 81 931 86 c 128,-1,47
 944 91 944 91 950 100 c 128,-1,48
 956 109 956 109 958 122 c 2,49,-1
 972 227 l 1,50,-1
 1049 227 l 1,51,-1
 1049 0 l 1,52,-1
 446 0 l 2,23,24
EndSplineSet
EndChar

StartChar: Tbar
Encoding: 358 358 234
Width: 739
GlyphClass: 1
Flags: W
LayerCount: 2
Fore
SplineSet
136 342 m 1,0,-1
 600 342 l 1,1,-1
 600 267 l 1,2,-1
 136 267 l 1,3,-1
 136 342 l 1,0,-1
319 113 m 2,4,-1
 319 633 l 1,5,-1
 256 633 l 2,6,7
 211 633 211 633 187 627 c 128,-1,8
 163 621 163 621 153.5 608.5 c 128,-1,9
 144 596 144 596 142 576 c 2,10,-1
 130 469 l 1,11,-1
 55 469 l 1,12,-1
 55 710 l 1,13,-1
 684 710 l 1,14,-1
 684 469 l 1,15,-1
 609 469 l 1,16,-1
 597 576 l 2,17,18
 595 596 595 596 586 608.5 c 128,-1,19
 577 621 577 621 552.5 627 c 128,-1,20
 528 633 528 633 483 633 c 2,21,-1
 420 633 l 1,22,-1
 420 113 l 2,23,24
 420 91 420 91 446 84 c 128,-1,25
 472 77 472 77 506 77 c 2,26,-1
 526 77 l 1,27,-1
 526 0 l 1,28,-1
 213 0 l 1,29,-1
 213 77 l 1,30,-1
 233 77 l 2,31,32
 267 77 267 77 293 84 c 128,-1,33
 319 91 319 91 319 113 c 2,4,-1
EndSplineSet
EndChar

StartChar: Bhook
Encoding: 385 385 235
Width: 781
GlyphClass: 2
Flags: W
AnchorPoint: "Anchor-1" 422 0 basechar 0
AnchorPoint: "Anchor-0" 391 741 basechar 0
LayerCount: 2
Fore
SplineSet
265 410 m 1,0,-1
 456 410 l 2,1,2
 500 410 500 410 526 422.5 c 128,-1,3
 552 435 552 435 564.5 461 c 128,-1,4
 577 487 577 487 577 526 c 0,5,6
 577 560 577 560 565 583.5 c 128,-1,7
 553 607 553 607 527 620 c 128,-1,8
 501 633 501 633 457 633 c 2,9,-1
 307 633 l 1,10,-1
 307 77 l 1,11,-1
 467 77 l 2,12,13
 517 77 517 77 547 92 c 128,-1,14
 577 107 577 107 591.5 135.5 c 128,-1,15
 606 164 606 164 606 204 c 0,16,17
 606 245 606 245 590.5 274 c 128,-1,18
 575 303 575 303 542 319 c 128,-1,19
 509 335 509 335 456 335 c 2,20,-1
 265 335 l 1,21,-1
 265 410 l 1,0,-1
188 710 m 2,22,-1
 460 710 l 2,23,24
 513 710 513 710 554 699 c 128,-1,25
 595 688 595 688 623 665.5 c 128,-1,26
 651 643 651 643 665.5 609 c 128,-1,27
 680 575 680 575 680 530 c 0,28,29
 680 486 680 486 659 450.5 c 128,-1,30
 638 415 638 415 595.5 395 c 128,-1,31
 553 375 553 375 489 375 c 1,32,-1
 499 392 l 1,33,-1
 499 351 l 1,34,-1
 489 371 l 1,35,36
 562 368 562 368 611 346.5 c 128,-1,37
 660 325 660 325 685.5 288 c 128,-1,38
 711 251 711 251 711 199 c 0,39,40
 711 149 711 149 695 111.5 c 128,-1,41
 679 74 679 74 648 49.5 c 128,-1,42
 617 25 617 25 572.5 12.5 c 128,-1,43
 528 0 528 0 470 0 c 2,44,-1
 118 0 l 1,45,-1
 118 77 l 1,46,-1
 129 77 l 2,47,48
 160 77 160 77 183.5 84 c 128,-1,49
 207 91 207 91 207 113 c 2,50,-1
 207 633 l 1,51,-1
 189 633 l 2,52,53
 159 633 159 633 139 624.5 c 128,-1,54
 119 616 119 616 110 597 c 128,-1,55
 101 578 101 578 101 544 c 0,56,57
 101 522 101 522 103.5 504 c 128,-1,58
 106 486 106 486 110 468 c 1,59,-1
 12 468 l 1,60,61
 10 483 10 483 8 501.5 c 128,-1,62
 6 520 6 520 6 538 c 0,63,64
 6 596 6 596 26 633.5 c 128,-1,65
 46 671 46 671 86 690.5 c 128,-1,66
 126 710 126 710 188 710 c 2,22,-1
EndSplineSet
EndChar

StartChar: Dhook
Encoding: 394 394 236
Width: 873
GlyphClass: 2
Flags: W
AnchorPoint: "Anchor-1" 437 0 basechar 0
AnchorPoint: "Anchor-0" 410 741 basechar 0
LayerCount: 2
Fore
SplineSet
187 710 m 2,0,-1
 427 710 l 2,1,2
 518 710 518 710 589.5 688.5 c 128,-1,3
 661 667 661 667 710.5 623.5 c 128,-1,4
 760 580 760 580 785.5 514 c 128,-1,5
 811 448 811 448 811 359 c 0,6,7
 811 271 811 271 785.5 203.5 c 128,-1,8
 760 136 760 136 710.5 91 c 128,-1,9
 661 46 661 46 589.5 23 c 128,-1,10
 518 0 518 0 427 0 c 2,11,-1
 118 0 l 1,12,-1
 118 77 l 1,13,-1
 129 77 l 2,14,15
 160 77 160 77 183.5 84 c 128,-1,16
 207 91 207 91 207 113 c 2,17,-1
 207 633 l 1,18,-1
 188 633 l 2,19,20
 158 633 158 633 139 624.5 c 128,-1,21
 120 616 120 616 110.5 597 c 128,-1,22
 101 578 101 578 101 544 c 0,23,24
 101 523 101 523 103.5 504.5 c 128,-1,25
 106 486 106 486 110 468 c 1,26,-1
 11 468 l 1,27,28
 10 483 10 483 8 501.5 c 128,-1,29
 6 520 6 520 6 538 c 0,30,31
 6 596 6 596 26 634 c 128,-1,32
 46 672 46 672 86 691 c 128,-1,33
 126 710 126 710 187 710 c 2,0,-1
427 633 m 2,34,-1
 307 633 l 1,35,-1
 307 77 l 1,36,-1
 427 77 l 2,37,38
 498 77 498 77 550 94 c 128,-1,39
 602 111 602 111 636 146 c 128,-1,40
 670 181 670 181 687 234 c 128,-1,41
 704 287 704 287 704 359 c 256,42,43
 704 431 704 431 687 482.5 c 128,-1,44
 670 534 670 534 636 567.5 c 128,-1,45
 602 601 602 601 550 617 c 128,-1,46
 498 633 498 633 427 633 c 2,34,-1
EndSplineSet
EndChar

StartChar: Schwa
Encoding: 399 399 237
Width: 774
GlyphClass: 1
Flags: W
LayerCount: 2
Fore
SplineSet
373 750 m 0,0,1
 476 750 476 750 552 707.5 c 128,-1,2
 628 665 628 665 670 580.5 c 128,-1,3
 712 496 712 496 712 369 c 0,4,5
 712 279 712 279 688 206.5 c 128,-1,6
 664 134 664 134 620 82.5 c 128,-1,7
 576 31 576 31 514 3 c 128,-1,8
 452 -25 452 -25 375 -25 c 0,9,10
 266 -25 266 -25 198.5 22.5 c 128,-1,11
 131 70 131 70 99.5 163.5 c 128,-1,12
 68 257 68 257 65 397 c 1,13,-1
 646 397 l 1,14,-1
 646 318 l 1,15,-1
 151 318 l 1,16,-1
 173 339 l 1,17,18
 177 256 177 256 189.5 200.5 c 128,-1,19
 202 145 202 145 226 113 c 128,-1,20
 250 81 250 81 286.5 67.5 c 128,-1,21
 323 54 323 54 374 54 c 0,22,23
 429 54 429 54 471.5 71 c 128,-1,24
 514 88 514 88 543.5 125.5 c 128,-1,25
 573 163 573 163 589 223 c 128,-1,26
 605 283 605 283 605 369 c 0,27,28
 605 463 605 463 588 522 c 128,-1,29
 571 581 571 581 540 613.5 c 128,-1,30
 509 646 509 646 467 658.5 c 128,-1,31
 425 671 425 671 373 671 c 0,32,33
 313 671 313 671 269.5 658 c 128,-1,34
 226 645 226 645 192.5 616 c 128,-1,35
 159 587 159 587 129 538 c 1,36,-1
 62 584 l 1,37,38
 92 634 92 634 136 671 c 128,-1,39
 180 708 180 708 239.5 729 c 128,-1,40
 299 750 299 750 373 750 c 0,0,1
EndSplineSet
EndChar

StartChar: Khook
Encoding: 408 408 238
Width: 793
GlyphClass: 2
Flags: W
AnchorPoint: "Anchor-1" 404 0 basechar 0
AnchorPoint: "Anchor-0" 452 741 basechar 0
LayerCount: 2
Fore
SplineSet
60 0 m 1,0,-1
 60 77 l 1,1,-1
 71 77 l 2,2,3
 102 77 102 77 125.5 84 c 128,-1,4
 149 91 149 91 149 113 c 2,5,-1
 149 597 l 2,6,7
 149 619 149 619 125.5 626 c 128,-1,8
 102 633 102 633 71 633 c 2,9,-1
 60 633 l 1,10,-1
 60 710 l 1,11,-1
 340 710 l 1,12,-1
 340 633 l 1,13,-1
 331 633 l 2,14,15
 319 633 319 633 304.5 632.5 c 128,-1,16
 290 632 290 632 277.5 630.5 c 128,-1,17
 265 629 265 629 257 627.5 c 128,-1,18
 249 626 249 626 249 623 c 2,19,-1
 249 87 l 2,20,21
 249 84 249 84 257 82.5 c 128,-1,22
 265 81 265 81 277.5 79.5 c 128,-1,23
 290 78 290 78 304.5 77.5 c 128,-1,24
 319 77 319 77 331 77 c 2,25,-1
 340 77 l 1,26,-1
 340 0 l 1,27,-1
 60 0 l 1,0,-1
707 719 m 0,28,29
 737 719 737 719 758 705 c 128,-1,30
 779 691 779 691 790.5 663 c 128,-1,31
 802 635 802 635 802 592 c 0,32,33
 802 555 802 555 797 521 c 128,-1,34
 792 487 792 487 785 468 c 1,35,-1
 684 468 l 1,36,37
 690 480 690 480 695.5 499 c 128,-1,38
 701 518 701 518 704.5 540 c 128,-1,39
 708 562 708 562 708 585 c 0,40,41
 708 606 708 606 700 617 c 128,-1,42
 692 628 692 628 676 628 c 0,43,44
 665 628 665 628 652.5 621 c 128,-1,45
 640 614 640 614 617.5 593 c 128,-1,46
 595 572 595 572 551 529 c 2,47,-1
 376 356 l 1,48,-1
 376 399 l 1,49,-1
 679 98 l 2,50,51
 688 89 688 89 698.5 84.5 c 128,-1,52
 709 80 709 80 720.5 78.5 c 128,-1,53
 732 77 732 77 745 77 c 2,54,-1
 763 77 l 1,55,-1
 763 0 l 1,56,-1
 463 0 l 1,57,-1
 463 77 l 1,58,-1
 472 77 l 2,59,60
 493 77 493 77 512 78 c 128,-1,61
 531 79 531 79 543.5 81.5 c 128,-1,62
 556 84 556 84 556 87 c 2,63,-1
 299 343 l 1,64,-1
 299 373 l 1,65,-1
 500 573 l 2,66,67
 547 620 547 620 578.5 648.5 c 128,-1,68
 610 677 610 677 631.5 692.5 c 128,-1,69
 653 708 653 708 670.5 713.5 c 128,-1,70
 688 719 688 719 707 719 c 0,28,29
EndSplineSet
EndChar

StartChar: Yhook
Encoding: 435 435 239
Width: 767
GlyphClass: 2
Flags: W
AnchorPoint: "Anchor-1" 360 0 basechar 0
AnchorPoint: "Anchor-0" 391 741 basechar 0
LayerCount: 2
Fore
SplineSet
513 576 m 2,0,1
 544 627 544 627 569.5 658.5 c 128,-1,2
 595 690 595 690 621 704.5 c 128,-1,3
 647 719 647 719 679 719 c 0,4,5
 720 719 720 719 743.5 700.5 c 128,-1,6
 767 682 767 682 777 651 c 128,-1,7
 787 620 787 620 787 584 c 0,8,9
 787 553 787 553 782 519.5 c 128,-1,10
 777 486 777 486 771 468 c 1,11,-1
 671 468 l 1,12,13
 676 481 676 481 681 498 c 128,-1,14
 686 515 686 515 689.5 534.5 c 128,-1,15
 693 554 693 554 693 572 c 0,16,17
 693 599 693 599 686 612.5 c 128,-1,18
 679 626 679 626 660 626 c 0,19,20
 647 626 647 626 636 617.5 c 128,-1,21
 625 609 625 609 612 592 c 128,-1,22
 599 575 599 575 582 548 c 2,23,-1
 407 263 l 1,24,-1
 415 309 l 1,25,-1
 415 113 l 2,26,27
 415 91 415 91 439.5 84 c 128,-1,28
 464 77 464 77 499 77 c 2,29,-1
 520 77 l 1,30,-1
 520 0 l 1,31,-1
 209 0 l 1,32,-1
 209 77 l 1,33,-1
 230 77 l 2,34,35
 266 77 266 77 290 84 c 128,-1,36
 314 91 314 91 314 113 c 2,37,-1
 314 309 l 1,38,-1
 322 264 l 1,39,-1
 111 599 l 2,40,41
 102 614 102 614 92 621.5 c 128,-1,42
 82 629 82 629 70 631 c 128,-1,43
 58 633 58 633 43 633 c 2,44,-1
 30 633 l 1,45,-1
 30 710 l 1,46,-1
 282 710 l 1,47,-1
 282 633 l 1,48,-1
 265 633 l 2,49,50
 250 633 250 633 235 631.5 c 128,-1,51
 220 630 220 630 210.5 628 c 128,-1,52
 201 626 201 626 201 622 c 2,53,-1
 392 308 l 1,54,-1
 357 308 l 1,55,-1
 513 576 l 2,0,1
EndSplineSet
EndChar

StartChar: Germandbls
Encoding: 7838 7838 240
Width: 887
GlyphClass: 1
Flags: W
LayerCount: 2
Fore
SplineSet
614 59 m 0,0,1
 661 59 661 59 684.5 72 c 128,-1,2
 708 85 708 85 716.5 112.5 c 128,-1,3
 725 140 725 140 725 183 c 0,4,5
 725 228 725 228 712.5 256 c 128,-1,6
 700 284 700 284 673.5 301.5 c 128,-1,7
 647 319 647 319 604 333 c 128,-1,8
 561 347 561 347 500 364 c 1,9,-1
 500 441 l 1,10,-1
 653 668 l 1,11,-1
 685 633 l 1,12,-1
 402 633 l 2,13,14
 357 633 357 633 326.5 622 c 128,-1,15
 296 611 296 611 278 590 c 128,-1,16
 260 569 260 569 252.5 537.5 c 128,-1,17
 245 506 245 506 245 465 c 2,18,-1
 245 0 l 1,19,-1
 52 0 l 1,20,-1
 52 77 l 1,21,-1
 63 77 l 2,22,23
 100 77 100 77 122 84 c 128,-1,24
 144 91 144 91 144 113 c 2,25,-1
 144 458 l 2,26,27
 144 519 144 519 158 566 c 128,-1,28
 172 613 172 613 202 645 c 128,-1,29
 232 677 232 677 281.5 693.5 c 128,-1,30
 331 710 331 710 402 710 c 2,31,-1
 734 710 l 1,32,-1
 734 630 l 1,33,-1
 583 402 l 1,34,-1
 545 422 l 1,35,36
 605 406 605 406 656 389.5 c 128,-1,37
 707 373 707 373 745 348.5 c 128,-1,38
 783 324 783 324 804 285 c 128,-1,39
 825 246 825 246 825 186 c 0,40,41
 825 125 825 125 802.5 80 c 128,-1,42
 780 35 780 35 733.5 10.5 c 128,-1,43
 687 -14 687 -14 614 -14 c 0,44,45
 553 -14 553 -14 514 7.5 c 128,-1,46
 475 29 475 29 455.5 74.5 c 128,-1,47
 436 120 436 120 431 190 c 1,48,-1
 446 139 l 1,49,-1
 433 0 l 1,50,-1
 357 0 l 1,51,-1
 357 233 l 1,52,-1
 441 233 l 1,53,54
 452 192 452 192 464.5 160 c 128,-1,55
 477 128 477 128 495.5 105.5 c 128,-1,56
 514 83 514 83 542.5 71 c 128,-1,57
 571 59 571 59 614 59 c 0,0,1
EndSplineSet
EndChar

StartChar: Delta
Encoding: 916 916 241
Width: 773
GlyphClass: 1
Flags: W
LayerCount: 2
Fore
SplineSet
56 0 m 1,0,-1
 56 87 l 1,1,-1
 328 710 l 1,2,-1
 445 710 l 1,3,-1
 717 87 l 1,4,-1
 717 0 l 1,5,-1
 56 0 l 1,0,-1
629 57 m 1,6,-1
 352 700 l 1,7,-1
 404 698 l 1,8,-1
 127 55 l 1,9,-1
 87 90 l 1,10,-1
 656 90 l 1,11,-1
 629 57 l 1,6,-1
EndSplineSet
EndChar

StartChar: Omega
Encoding: 937 937 242
Width: 884
GlyphClass: 1
Flags: W
LayerCount: 2
Fore
SplineSet
442 735 m 256,0,1
 369 735 369 735 308.5 718.5 c 128,-1,2
 248 702 248 702 204.5 668.5 c 128,-1,3
 161 635 161 635 137 585 c 128,-1,4
 113 535 113 535 113 468 c 0,5,6
 113 431 113 431 122.5 395.5 c 128,-1,7
 132 360 132 360 150 324 c 128,-1,8
 168 288 168 288 196 248 c 128,-1,9
 224 208 224 208 262 161.5 c 128,-1,10
 300 115 300 115 347 59 c 1,11,-1
 356 72 l 1,12,-1
 251 72 l 2,13,14
 208 72 208 72 184.5 77 c 128,-1,15
 161 82 161 82 150.5 93.5 c 128,-1,16
 140 105 140 105 137 123 c 2,17,-1
 122 216 l 1,18,-1
 50 216 l 1,19,-1
 50 0 l 1,20,-1
 394 0 l 1,21,-1
 394 117 l 1,22,23
 356 166 356 166 324.5 207 c 128,-1,24
 293 248 293 248 269.5 286.5 c 128,-1,25
 246 325 246 325 233.5 365.5 c 128,-1,26
 221 406 221 406 221 455 c 0,27,28
 221 533 221 533 246 577.5 c 128,-1,29
 271 622 271 622 320.5 641 c 128,-1,30
 370 660 370 660 442 660 c 0,31,32
 515 660 515 660 564 641 c 128,-1,33
 613 622 613 622 638.5 577.5 c 128,-1,34
 664 533 664 533 664 455 c 0,35,36
 664 406 664 406 651 365.5 c 128,-1,37
 638 325 638 325 614.5 286.5 c 128,-1,38
 591 248 591 248 560 207 c 128,-1,39
 529 166 529 166 491 117 c 1,40,-1
 491 0 l 1,41,-1
 834 0 l 1,42,-1
 834 216 l 1,43,-1
 762 216 l 1,44,-1
 747 123 l 2,45,46
 744 105 744 105 733.5 93.5 c 128,-1,47
 723 82 723 82 699.5 77 c 128,-1,48
 676 72 676 72 633 72 c 2,49,-1
 529 72 l 1,50,-1
 538 59 l 1,51,52
 585 115 585 115 622.5 161.5 c 128,-1,53
 660 208 660 208 688 248 c 128,-1,54
 716 288 716 288 734.5 324 c 128,-1,55
 753 360 753 360 762 395.5 c 128,-1,56
 771 431 771 431 771 468 c 0,57,58
 771 535 771 535 747 585 c 128,-1,59
 723 635 723 635 679.5 668.5 c 128,-1,60
 636 702 636 702 575.5 718.5 c 128,-1,61
 515 735 515 735 442 735 c 256,0,1
EndSplineSet
EndChar

StartChar: Djecyr
Encoding: 1026 1026 244
Width: 885
GlyphClass: 2
Flags: W
AnchorPoint: "Anchor-0" 345 741 basechar 0
LayerCount: 2
Fore
SplineSet
820 199 m 0,0,1
 820 145 820 145 803.5 103.5 c 128,-1,2
 787 62 787 62 755 33 c 128,-1,3
 723 4 723 4 677.5 -10.5 c 128,-1,4
 632 -25 632 -25 575 -25 c 1,5,-1
 575 52 l 1,6,7
 620 52 620 52 650.5 66.5 c 128,-1,8
 681 81 681 81 697.5 113.5 c 128,-1,9
 714 146 714 146 714 199 c 0,10,11
 714 262 714 262 676 303.5 c 128,-1,12
 638 345 638 345 563 345 c 0,13,14
 502 345 502 345 453 332 c 128,-1,15
 404 319 404 319 349 286 c 1,16,-1
 349 363 l 1,17,18
 399 392 399 392 451.5 407 c 128,-1,19
 504 422 504 422 565 422 c 0,20,21
 652 422 652 422 708.5 393.5 c 128,-1,22
 765 365 765 365 792.5 315 c 128,-1,23
 820 265 820 265 820 199 c 0,0,1
193 0 m 1,24,-1
 193 77 l 1,25,-1
 213 77 l 2,26,27
 248 77 248 77 273.5 84 c 128,-1,28
 299 91 299 91 299 113 c 2,29,-1
 299 633 l 1,30,-1
 256 633 l 2,31,32
 211 633 211 633 187 627 c 128,-1,33
 163 621 163 621 153.5 608.5 c 128,-1,34
 144 596 144 596 142 576 c 2,35,-1
 130 469 l 1,36,-1
 55 469 l 1,37,-1
 55 710 l 1,38,-1
 684 710 l 1,39,-1
 684 489 l 1,40,-1
 609 489 l 1,41,-1
 597 576 l 2,42,43
 595 596 595 596 585.5 608.5 c 128,-1,44
 576 621 576 621 552 627 c 128,-1,45
 528 633 528 633 483 633 c 2,46,-1
 400 633 l 1,47,-1
 400 87 l 2,48,49
 400 84 400 84 411 81.5 c 128,-1,50
 422 79 422 79 439.5 78 c 128,-1,51
 457 77 457 77 476 77 c 2,52,-1
 486 77 l 1,53,-1
 486 0 l 1,54,-1
 193 0 l 1,24,-1
EndSplineSet
EndChar

StartChar: Eukrcyr
Encoding: 1028 1028 245
Width: 794
GlyphClass: 2
Flags: W
AnchorPoint: "Anchor-1" 413 0 basechar 0
AnchorPoint: "Anchor-0" 413 741 basechar 0
LayerCount: 2
Fore
SplineSet
134 402 m 1,0,1
 165 403 165 403 196 404.5 c 128,-1,2
 227 406 227 406 258 407 c 128,-1,3
 289 408 289 408 320.5 409.5 c 128,-1,4
 352 411 352 411 383 412 c 128,-1,5
 414 413 414 413 445 414.5 c 128,-1,6
 476 416 476 416 507 417 c 1,7,-1
 507 314 l 1,8,9
 476 315 476 315 445 316.5 c 128,-1,10
 414 318 414 318 383 319 c 128,-1,11
 352 320 352 320 320.5 321.5 c 128,-1,12
 289 323 289 323 258 324 c 128,-1,13
 227 325 227 325 196 326.5 c 128,-1,14
 165 328 165 328 134 329 c 1,15,-1
 134 402 l 1,0,1
403 656 m 0,16,17
 344 656 344 656 300 638.5 c 128,-1,18
 256 621 256 621 227.5 584.5 c 128,-1,19
 199 548 199 548 184.5 491 c 128,-1,20
 170 434 170 434 170 355 c 0,21,22
 170 277 170 277 184.5 219.5 c 128,-1,23
 199 162 199 162 229 125 c 128,-1,24
 259 88 259 88 305 70.5 c 128,-1,25
 351 53 351 53 414 53 c 0,26,27
 488 53 488 53 536.5 80 c 128,-1,28
 585 107 585 107 615 151 c 128,-1,29
 645 195 645 195 663 245 c 1,30,-1
 737 217 l 1,31,32
 713 141 713 141 668.5 87 c 128,-1,33
 624 33 624 33 559.5 4 c 128,-1,34
 495 -25 495 -25 410 -25 c 0,35,36
 331 -25 331 -25 267 -1 c 128,-1,37
 203 23 203 23 157 71 c 128,-1,38
 111 119 111 119 86.5 190 c 128,-1,39
 62 261 62 261 62 355 c 0,40,41
 62 450 62 450 86.5 521 c 128,-1,42
 111 592 111 592 157 639.5 c 128,-1,43
 203 687 203 687 265.5 711 c 128,-1,44
 328 735 328 735 403 735 c 0,45,46
 471 735 471 735 523.5 708.5 c 128,-1,47
 576 682 576 682 608.5 629.5 c 128,-1,48
 641 577 641 577 649 498 c 1,49,-1
 630 548 l 1,50,-1
 644 720 l 1,51,-1
 721 720 l 1,52,-1
 721 458 l 1,53,-1
 637 458 l 1,54,55
 620 517 620 517 589.5 561.5 c 128,-1,56
 559 606 559 606 512.5 631 c 128,-1,57
 466 656 466 656 403 656 c 0,16,17
EndSplineSet
Substitution2: "'ss01' Style Set 1 lookup 61 subtable" Ieukran.alt1
EndChar

StartChar: Yukrcyr
Encoding: 1031 1031 248
Width: 423
GlyphClass: 2
Flags: W
AnchorPoint: "Anchor-1" 212 0 basechar 0
AnchorPoint: "Anchor-0" 212 915 basechar 0
LayerCount: 2
Fore
SplineSet
179 855 m 0,0,1
 179 818 179 818 158.5 801 c 128,-1,2
 138 784 138 784 106 784 c 0,3,4
 73 784 73 784 53 801 c 128,-1,5
 33 818 33 818 33 855 c 0,6,7
 33 891 33 891 53 908 c 128,-1,8
 73 925 73 925 106 925 c 0,9,10
 138 925 138 925 158.5 908 c 128,-1,11
 179 891 179 891 179 855 c 0,0,1
390 855 m 0,12,13
 390 818 390 818 369.5 801 c 128,-1,14
 349 784 349 784 317 784 c 256,15,16
 285 784 285 784 264.5 801 c 128,-1,17
 244 818 244 818 244 855 c 0,18,19
 244 891 244 891 264 908 c 128,-1,20
 284 925 284 925 317 925 c 0,21,22
 349 925 349 925 369.5 908 c 128,-1,23
 390 891 390 891 390 855 c 0,12,13
161 113 m 2,24,-1
 161 597 l 2,25,26
 161 619 161 619 137.5 626 c 128,-1,27
 114 633 114 633 80 633 c 2,28,-1
 60 633 l 1,29,-1
 60 710 l 1,30,-1
 363 710 l 1,31,-1
 363 633 l 1,32,-1
 343 633 l 2,33,34
 309 633 309 633 285.5 626 c 128,-1,35
 262 619 262 619 262 597 c 2,36,-1
 262 113 l 2,37,38
 262 91 262 91 285.5 84 c 128,-1,39
 309 77 309 77 343 77 c 2,40,-1
 363 77 l 1,41,-1
 363 0 l 1,42,-1
 60 0 l 1,43,-1
 60 77 l 1,44,-1
 80 77 l 2,45,46
 114 77 114 77 137.5 84 c 128,-1,47
 161 91 161 91 161 113 c 2,24,-1
EndSplineSet
EndChar

StartChar: Ljecyr
Encoding: 1033 1033 250
Width: 1082
GlyphClass: 2
Flags: W
AnchorPoint: "Anchor-0" 433 741 basechar 0
LayerCount: 2
Fore
SplineSet
259 710 m 1,0,-1
 589 710 l 1,1,-1
 589 633 l 1,2,-1
 259 633 l 1,3,-1
 259 710 l 1,0,-1
189 270 m 2,4,-1
 217 597 l 2,5,6
 219 619 219 619 196 626 c 128,-1,7
 173 633 173 633 141 633 c 2,8,-1
 130 633 l 1,9,-1
 130 710 l 1,10,-1
 315 710 l 1,11,-1
 278 266 l 2,12,13
 270 167 270 167 246 105 c 128,-1,14
 222 43 222 43 182.5 14 c 128,-1,15
 143 -15 143 -15 84 -15 c 0,16,17
 59 -15 59 -15 42 -10 c 128,-1,18
 25 -5 25 -5 15 0 c 1,19,-1
 15 99 l 1,20,21
 21 96 21 96 38.5 90 c 128,-1,22
 56 84 56 84 82 84 c 0,23,24
 113 84 113 84 135 102.5 c 128,-1,25
 157 121 157 121 170.5 162 c 128,-1,26
 184 203 184 203 189 270 c 2,4,-1
777 0 m 2,27,-1
 441 0 l 1,28,-1
 441 77 l 1,29,-1
 449 77 l 2,30,31
 468 77 468 77 487.5 78 c 128,-1,32
 507 79 507 79 519.5 81.5 c 128,-1,33
 532 84 532 84 532 87 c 2,34,-1
 532 710 l 1,35,-1
 734 710 l 1,36,-1
 734 633 l 1,37,-1
 706 633 l 2,38,39
 676 633 676 633 654.5 626 c 128,-1,40
 633 619 633 619 633 597 c 2,41,-1
 633 77 l 1,42,-1
 777 77 l 2,43,44
 827 77 827 77 857 91.5 c 128,-1,45
 887 106 887 106 901 137 c 128,-1,46
 915 168 915 168 915 215 c 0,47,48
 915 264 915 264 901 296 c 128,-1,49
 887 328 887 328 857 343.5 c 128,-1,50
 827 359 827 359 777 359 c 2,51,-1
 588 359 l 1,52,-1
 588 436 l 1,53,-1
 777 436 l 2,54,55
 854 436 854 436 908.5 413 c 128,-1,56
 963 390 963 390 992.5 341.5 c 128,-1,57
 1022 293 1022 293 1022 215 c 0,58,59
 1022 145 1022 145 991 97 c 128,-1,60
 960 49 960 49 905 24.5 c 128,-1,61
 850 0 850 0 777 0 c 2,27,-1
EndSplineSet
EndChar

StartChar: Njecyr
Encoding: 1034 1034 251
Width: 1125
GlyphClass: 2
Flags: W
AnchorPoint: "Anchor-0" 416 741 basechar 0
LayerCount: 2
Fore
SplineSet
229 428 m 1,0,-1
 599 428 l 1,1,-1
 599 351 l 1,2,-1
 229 351 l 1,3,-1
 229 428 l 1,0,-1
60 0 m 1,4,-1
 60 77 l 1,5,-1
 71 77 l 2,6,7
 102 77 102 77 125.5 84 c 128,-1,8
 149 91 149 91 149 113 c 2,9,-1
 149 597 l 2,10,11
 149 619 149 619 125.5 626 c 128,-1,12
 102 633 102 633 71 633 c 2,13,-1
 60 633 l 1,14,-1
 60 710 l 1,15,-1
 345 710 l 1,16,-1
 345 633 l 1,17,-1
 336 633 l 2,18,19
 317 633 317 633 297 632 c 128,-1,20
 277 631 277 631 263 629 c 128,-1,21
 249 627 249 627 249 623 c 2,22,-1
 249 86 l 2,23,24
 249 84 249 84 263 81.5 c 128,-1,25
 277 79 277 79 297 78 c 128,-1,26
 317 77 317 77 336 77 c 2,27,-1
 345 77 l 1,28,-1
 345 0 l 1,29,-1
 60 0 l 1,4,-1
483 0 m 1,30,-1
 483 77 l 1,31,-1
 492 77 l 2,32,33
 510 77 510 77 529 78 c 128,-1,34
 548 79 548 79 561.5 81.5 c 128,-1,35
 575 84 575 84 575 87 c 2,36,-1
 575 624 l 2,37,38
 575 627 575 627 561.5 629 c 128,-1,39
 548 631 548 631 529 632 c 128,-1,40
 510 633 510 633 492 633 c 2,41,-1
 483 633 l 1,42,-1
 483 710 l 1,43,-1
 788 710 l 1,44,-1
 788 633 l 1,45,-1
 757 633 l 2,46,47
 736 633 736 633 717.5 630 c 128,-1,48
 699 627 699 627 687.5 619.5 c 128,-1,49
 676 612 676 612 676 597 c 2,50,-1
 676 77 l 1,51,-1
 820 77 l 2,52,53
 867 77 867 77 897.5 91 c 128,-1,54
 928 105 928 105 943 135.5 c 128,-1,55
 958 166 958 166 958 211 c 0,56,57
 958 258 958 258 943 289 c 128,-1,58
 928 320 928 320 897.5 335.5 c 128,-1,59
 867 351 867 351 820 351 c 2,60,-1
 646 351 l 1,61,-1
 646 428 l 1,62,-1
 820 428 l 2,63,64
 897 428 897 428 951.5 404.5 c 128,-1,65
 1006 381 1006 381 1035.5 333 c 128,-1,66
 1065 285 1065 285 1065 211 c 0,67,68
 1065 142 1065 142 1034 95 c 128,-1,69
 1003 48 1003 48 948 24 c 128,-1,70
 893 0 893 0 820 0 c 2,71,-1
 483 0 l 1,30,-1
EndSplineSet
EndChar

StartChar: Tshecyr
Encoding: 1035 1035 252
Width: 935
GlyphClass: 2
Flags: W
AnchorPoint: "Anchor-0" 337 741 basechar 0
LayerCount: 2
Fore
SplineSet
570 422 m 0,0,1
 660 422 660 422 711.5 397.5 c 128,-1,2
 763 373 763 373 785 323 c 128,-1,3
 807 273 807 273 807 194 c 2,4,-1
 807 113 l 2,5,6
 807 91 807 91 829 84 c 128,-1,7
 851 77 851 77 884 77 c 2,8,-1
 895 77 l 1,9,-1
 895 0 l 1,10,-1
 706 0 l 1,11,-1
 706 189 l 2,12,13
 706 249 706 249 690 283 c 128,-1,14
 674 317 674 317 644 331 c 128,-1,15
 614 345 614 345 570 345 c 0,16,17
 515 345 515 345 458.5 332.5 c 128,-1,18
 402 320 402 320 349 286 c 1,19,-1
 349 364 l 1,20,21
 402 395 402 395 459 408.5 c 128,-1,22
 516 422 516 422 570 422 c 0,0,1
193 0 m 1,23,-1
 193 77 l 1,24,-1
 213 77 l 2,25,26
 249 77 249 77 274 84 c 128,-1,27
 299 91 299 91 299 113 c 2,28,-1
 299 633 l 1,29,-1
 256 633 l 2,30,31
 211 633 211 633 187 627 c 128,-1,32
 163 621 163 621 153.5 608.5 c 128,-1,33
 144 596 144 596 142 576 c 2,34,-1
 130 469 l 1,35,-1
 55 469 l 1,36,-1
 55 710 l 1,37,-1
 684 710 l 1,38,-1
 684 489 l 1,39,-1
 609 489 l 1,40,-1
 597 576 l 2,41,42
 595 596 595 596 585.5 608.5 c 128,-1,43
 576 621 576 621 552 627 c 128,-1,44
 528 633 528 633 483 633 c 2,45,-1
 400 633 l 1,46,-1
 400 87 l 2,47,48
 400 84 400 84 412 81.5 c 128,-1,49
 424 79 424 79 444 78 c 128,-1,50
 464 77 464 77 486 77 c 2,51,-1
 506 77 l 1,52,-1
 506 0 l 1,53,-1
 193 0 l 1,23,-1
EndSplineSet
EndChar

StartChar: Dzhecyr
Encoding: 1039 1039 253
Width: 863
GlyphClass: 2
Flags: W
AnchorPoint: "Anchor-0" 432 741 basechar 0
LayerCount: 2
Fore
SplineSet
60 710 m 1,0,-1
 345 710 l 1,1,-1
 345 633 l 1,2,-1
 336 633 l 2,3,4
 317 633 317 633 297 632 c 128,-1,5
 277 631 277 631 263 629 c 128,-1,6
 249 627 249 627 249 623 c 2,7,-1
 249 0 l 1,8,-1
 60 0 l 1,9,-1
 60 77 l 1,10,-1
 71 77 l 2,11,12
 102 77 102 77 125.5 84 c 128,-1,13
 149 91 149 91 149 113 c 2,14,-1
 149 597 l 2,15,16
 149 619 149 619 125.5 626 c 128,-1,17
 102 633 102 633 71 633 c 2,18,-1
 60 633 l 1,19,-1
 60 710 l 1,0,-1
518 710 m 1,20,-1
 803 710 l 1,21,-1
 803 633 l 1,22,-1
 792 633 l 2,23,24
 761 633 761 633 738 626 c 128,-1,25
 715 619 715 619 715 597 c 2,26,-1
 715 113 l 2,27,28
 715 91 715 91 738 84 c 128,-1,29
 761 77 761 77 792 77 c 2,30,-1
 803 77 l 1,31,-1
 803 0 l 1,32,-1
 614 0 l 1,33,-1
 614 623 l 2,34,35
 614 627 614 627 600 629 c 128,-1,36
 586 631 586 631 566 632 c 128,-1,37
 546 633 546 633 527 633 c 2,38,-1
 518 633 l 1,39,-1
 518 710 l 1,20,-1
205 0 m 1,40,-1
 205 77 l 1,41,-1
 658 77 l 1,42,-1
 658 0 l 1,43,-1
 616 0 l 2,44,45
 568 0 568 0 539 -5.5 c 128,-1,46
 510 -11 510 -11 496.5 -23 c 128,-1,47
 483 -35 483 -35 481 -53 c 2,48,-1
 468 -189 l 1,49,-1
 395 -189 l 1,50,-1
 382 -53 l 2,51,52
 381 -35 381 -35 367 -23 c 128,-1,53
 353 -11 353 -11 324 -5.5 c 128,-1,54
 295 0 295 0 247 0 c 2,55,-1
 205 0 l 1,40,-1
EndSplineSet
EndChar

StartChar: Becyr
Encoding: 1041 1041 257
Width: 707
GlyphClass: 2
Flags: W
AnchorPoint: "Anchor-0" 361 741 basechar 0
LayerCount: 2
Fore
SplineSet
60 710 m 1,0,-1
 600 710 l 1,1,-1
 600 504 l 1,2,-1
 525 504 l 1,3,-1
 513 588 l 2,4,5
 511 606 511 606 497.5 615.5 c 128,-1,6
 484 625 484 625 457 629 c 128,-1,7
 430 633 430 633 387 633 c 2,8,-1
 250 633 l 1,9,-1
 250 77 l 1,10,-1
 397 77 l 2,11,12
 447 77 447 77 477 91 c 128,-1,13
 507 105 507 105 521 134.5 c 128,-1,14
 535 164 535 164 535 210 c 256,15,16
 535 256 535 256 521 287 c 128,-1,17
 507 318 507 318 477 333.5 c 128,-1,18
 447 349 447 349 397 349 c 2,19,-1
 208 349 l 1,20,-1
 208 426 l 1,21,-1
 397 426 l 2,22,23
 474 426 474 426 528.5 404 c 128,-1,24
 583 382 583 382 612.5 334.5 c 128,-1,25
 642 287 642 287 642 210 c 0,26,27
 642 141 642 141 611 94 c 128,-1,28
 580 47 580 47 525 23.5 c 128,-1,29
 470 0 470 0 397 0 c 2,30,-1
 60 0 l 1,31,-1
 60 77 l 1,32,-1
 71 77 l 2,33,34
 102 77 102 77 125.5 84 c 128,-1,35
 149 91 149 91 149 113 c 2,36,-1
 149 598 l 2,37,38
 149 619 149 619 125.5 626 c 128,-1,39
 102 633 102 633 71 633 c 2,40,-1
 60 633 l 1,41,-1
 60 710 l 1,0,-1
EndSplineSet
EndChar

StartChar: Gecyr
Encoding: 1043 1043 259
Width: 670
GlyphClass: 2
Flags: W
AnchorPoint: "Anchor-0" 342 741 basechar 0
LayerCount: 2
Fore
SplineSet
249 633 m 1,0,-1
 249 113 l 2,1,2
 249 99 249 99 260 91 c 128,-1,3
 271 83 271 83 290.5 80 c 128,-1,4
 310 77 310 77 334 77 c 2,5,-1
 364 77 l 1,6,-1
 364 0 l 1,7,-1
 60 0 l 1,8,-1
 60 77 l 1,9,-1
 71 77 l 2,10,11
 102 77 102 77 125.5 84 c 128,-1,12
 149 91 149 91 149 113 c 2,13,-1
 149 597 l 2,14,15
 149 619 149 619 125.5 626 c 128,-1,16
 102 633 102 633 71 633 c 2,17,-1
 60 633 l 1,18,-1
 60 710 l 1,19,-1
 615 710 l 1,20,-1
 615 469 l 1,21,-1
 540 469 l 1,22,-1
 529 576 l 2,23,24
 527 598 527 598 516 610.5 c 128,-1,25
 505 623 505 623 480 628 c 128,-1,26
 455 633 455 633 411 633 c 2,27,-1
 249 633 l 1,0,-1
EndSplineSet
EndChar

StartChar: Decyr
Encoding: 1044 1044 261
Width: 842
GlyphClass: 2
Flags: W
AnchorPoint: "Anchor-0" 455 741 basechar 0
LayerCount: 2
Fore
SplineSet
252 710 m 1,0,-1
 649 710 l 1,1,-1
 649 633 l 1,2,-1
 252 633 l 1,3,-1
 252 710 l 1,0,-1
694 9 m 1,4,-1
 593 9 l 1,5,-1
 593 710 l 1,6,-1
 782 710 l 1,7,-1
 782 633 l 1,8,-1
 771 633 l 2,9,10
 738 633 738 633 716 626 c 128,-1,11
 694 619 694 619 694 597 c 2,12,-1
 694 9 l 1,4,-1
704 -52 m 2,13,14
 703 -35 703 -35 689.5 -23.5 c 128,-1,15
 676 -12 676 -12 647 -6 c 128,-1,16
 618 0 618 0 571 0 c 2,17,-1
 256 0 l 2,18,19
 209 0 209 0 180.5 -6 c 128,-1,20
 152 -12 152 -12 138.5 -23 c 128,-1,21
 125 -34 125 -34 123 -51 c 2,22,-1
 110 -189 l 1,23,-1
 35 -189 l 1,24,-1
 35 77 l 1,25,-1
 792 77 l 1,26,-1
 792 -189 l 1,27,-1
 717 -189 l 1,28,-1
 704 -52 l 2,13,14
186 31 m 1,29,-1
 84 31 l 1,30,31
 106 58 106 58 122.5 88 c 128,-1,32
 139 118 139 118 151.5 157 c 128,-1,33
 164 196 164 196 173 248.5 c 128,-1,34
 182 301 182 301 188 373 c 2,35,-1
 207 597 l 2,36,37
 209 619 209 619 186.5 626 c 128,-1,38
 164 633 164 633 131 633 c 2,39,-1
 120 633 l 1,40,-1
 120 710 l 1,41,-1
 305 710 l 1,42,-1
 277 373 l 2,43,44
 269 280 269 280 257 216 c 128,-1,45
 245 152 245 152 227.5 108 c 128,-1,46
 210 64 210 64 186 31 c 1,29,-1
EndSplineSet
Substitution2: "'locl' Localized Forms in Cyrillic lookup 12 subtable" De.bgr
EndChar

StartChar: Zhecyr
Encoding: 1046 1046 266
Width: 1140
GlyphClass: 2
Flags: W
AnchorPoint: "Anchor-1" 559 0 basechar 0
AnchorPoint: "Anchor-0" 559 741 basechar 0
LayerCount: 2
Fore
SplineSet
813 0 m 1,0,-1
 813 77 l 1,1,-1
 822 77 l 2,2,3
 843 77 843 77 862 78 c 128,-1,4
 881 79 881 79 893.5 81.5 c 128,-1,5
 906 84 906 84 906 87 c 2,6,-1
 668 343 l 1,7,-1
 668 373 l 1,8,-1
 915 622 l 2,9,10
 915 626 915 626 903 628 c 128,-1,11
 891 630 891 630 873.5 631.5 c 128,-1,12
 856 633 856 633 836 633 c 2,13,-1
 827 633 l 1,14,-1
 827 710 l 1,15,-1
 1085 710 l 1,16,-1
 1085 633 l 1,17,-1
 1054 633 l 2,18,19
 1044 633 1044 633 1033.5 630.5 c 128,-1,20
 1023 628 1023 628 1012 621.5 c 128,-1,21
 1001 615 1001 615 990 604 c 2,22,-1
 744 357 l 1,23,-1
 744 399 l 1,24,-1
 1026 96 l 2,25,26
 1035 88 1035 88 1044.5 83.5 c 128,-1,27
 1054 79 1054 79 1066.5 78 c 128,-1,28
 1079 77 1079 77 1092 77 c 2,29,-1
 1110 77 l 1,30,-1
 1110 0 l 1,31,-1
 813 0 l 1,0,-1
322 0 m 1,32,-1
 30 0 l 1,33,-1
 30 77 l 1,34,-1
 48 77 l 2,35,36
 62 77 62 77 74 78 c 128,-1,37
 86 79 86 79 96 83.5 c 128,-1,38
 106 88 106 88 114 96 c 2,39,-1
 397 399 l 1,40,-1
 389 357 l 1,41,-1
 144 604 l 2,42,43
 133 615 133 615 122 621.5 c 128,-1,44
 111 628 111 628 100 630.5 c 128,-1,45
 89 633 89 633 79 633 c 2,46,-1
 48 633 l 1,47,-1
 48 710 l 1,48,-1
 308 710 l 1,49,-1
 308 633 l 1,50,-1
 299 633 l 2,51,52
 280 633 280 633 262 631.5 c 128,-1,53
 244 630 244 630 232 628 c 128,-1,54
 220 626 220 626 220 622 c 2,55,-1
 467 373 l 1,56,-1
 467 343 l 1,57,-1
 230 87 l 2,58,59
 230 84 230 84 242 81.5 c 128,-1,60
 254 79 254 79 273.5 78 c 128,-1,61
 293 77 293 77 313 77 c 2,62,-1
 322 77 l 1,63,-1
 322 0 l 1,32,-1
425 0 m 1,64,-1
 425 77 l 1,65,-1
 434 77 l 2,66,67
 448 77 448 77 462.5 77.5 c 128,-1,68
 477 78 477 78 489.5 79.5 c 128,-1,69
 502 81 502 81 509.5 82.5 c 128,-1,70
 517 84 517 84 517 87 c 2,71,-1
 517 624 l 2,72,73
 517 626 517 626 509.5 627.5 c 128,-1,74
 502 629 502 629 489.5 630.5 c 128,-1,75
 477 632 477 632 462.5 632.5 c 128,-1,76
 448 633 448 633 434 633 c 2,77,-1
 425 633 l 1,78,-1
 425 710 l 1,79,-1
 710 710 l 1,80,-1
 710 633 l 1,81,-1
 701 633 l 2,82,83
 688 633 688 633 673 632.5 c 128,-1,84
 658 632 658 632 645.5 630.5 c 128,-1,85
 633 629 633 629 625.5 627.5 c 128,-1,86
 618 626 618 626 618 623 c 2,87,-1
 618 86 l 2,88,89
 618 84 618 84 625.5 82.5 c 128,-1,90
 633 81 633 81 645.5 79.5 c 128,-1,91
 658 78 658 78 673 77.5 c 128,-1,92
 688 77 688 77 701 77 c 2,93,-1
 710 77 l 1,94,-1
 710 0 l 1,95,-1
 425 0 l 1,64,-1
EndSplineSet
EndChar

StartChar: Zecyr
Encoding: 1047 1047 269
Width: 731
GlyphClass: 2
Flags: W
AnchorPoint: "Anchor-1" 395 0 basechar 0
AnchorPoint: "Anchor-0" 395 741 basechar 0
LayerCount: 2
Fore
SplineSet
412 -25 m 0,0,1
 337 -25 337 -25 284.5 -0.5 c 128,-1,2
 232 24 232 24 202 74.5 c 128,-1,3
 172 125 172 125 164 202 c 1,4,-1
 183 159 l 1,5,-1
 170 -10 l 1,6,-1
 92 -10 l 1,7,-1
 92 242 l 1,8,-1
 176 242 l 1,9,10
 194 186 194 186 225 144 c 128,-1,11
 256 102 256 102 302.5 78 c 128,-1,12
 349 54 349 54 412 54 c 0,13,14
 462 54 462 54 494 70 c 128,-1,15
 526 86 526 86 541 116 c 128,-1,16
 556 146 556 146 556 188 c 0,17,18
 556 225 556 225 541.5 255 c 128,-1,19
 527 285 527 285 493 302 c 128,-1,20
 459 319 459 319 398 317 c 0,21,22
 383 316 383 316 367.5 315.5 c 128,-1,23
 352 315 352 315 336 314.5 c 128,-1,24
 320 314 320 314 305 313 c 1,25,-1
 305 416 l 1,26,27
 321 415 321 415 336.5 414.5 c 128,-1,28
 352 414 352 414 367.5 413.5 c 128,-1,29
 383 413 383 413 399 412 c 0,30,31
 449 410 449 410 479 426.5 c 128,-1,32
 509 443 509 443 522.5 472.5 c 128,-1,33
 536 502 536 502 536 540 c 0,34,35
 536 574 536 574 524 601 c 128,-1,36
 512 628 512 628 485.5 643 c 128,-1,37
 459 658 459 658 414 658 c 0,38,39
 355 658 355 658 310 636 c 128,-1,40
 265 614 265 614 234 572 c 128,-1,41
 203 530 203 530 186 468 c 1,42,-1
 102 468 l 1,43,-1
 102 720 l 1,44,-1
 180 720 l 1,45,-1
 193 551 l 1,46,-1
 174 508 l 1,47,48
 180 565 180 565 199 608 c 128,-1,49
 218 651 218 651 249 679 c 128,-1,50
 280 707 280 707 321 721 c 128,-1,51
 362 735 362 735 412 735 c 0,52,53
 489 735 489 735 540 709.5 c 128,-1,54
 591 684 591 684 616 641 c 128,-1,55
 641 598 641 598 641 545 c 0,56,57
 641 496 641 496 615 456 c 128,-1,58
 589 416 589 416 546 392.5 c 128,-1,59
 503 369 503 369 451 369 c 1,60,-1
 461 386 l 1,61,-1
 461 344 l 1,62,-1
 451 365 l 1,63,64
 513 365 513 365 560.5 341.5 c 128,-1,65
 608 318 608 318 634.5 277 c 128,-1,66
 661 236 661 236 661 183 c 0,67,68
 661 137 661 137 644.5 99 c 128,-1,69
 628 61 628 61 596 33 c 128,-1,70
 564 5 564 5 518 -10 c 128,-1,71
 472 -25 472 -25 412 -25 c 0,0,1
EndSplineSet
EndChar

StartChar: Icyr
Encoding: 1048 1048 270
Width: 893
GlyphClass: 2
Flags: W
AnchorPoint: "Anchor-0" 447 741 basechar 0
LayerCount: 2
Fore
SplineSet
202 184 m 1,0,-1
 644 592 l 1,1,-1
 691 538 l 1,2,-1
 249 129 l 1,3,-1
 202 184 l 1,0,-1
60 0 m 1,4,-1
 60 77 l 1,5,-1
 71 77 l 2,6,7
 102 77 102 77 125.5 84 c 128,-1,8
 149 91 149 91 149 113 c 2,9,-1
 149 597 l 2,10,11
 149 619 149 619 125.5 626 c 128,-1,12
 102 633 102 633 71 633 c 2,13,-1
 60 633 l 1,14,-1
 60 710 l 1,15,-1
 345 710 l 1,16,-1
 345 633 l 1,17,-1
 336 633 l 2,18,19
 317 633 317 633 297 632 c 128,-1,20
 277 631 277 631 263 629 c 128,-1,21
 249 627 249 627 249 623 c 2,22,-1
 249 86 l 2,23,24
 249 84 249 84 263 81.5 c 128,-1,25
 277 79 277 79 297 78 c 128,-1,26
 317 77 317 77 336 77 c 2,27,-1
 345 77 l 1,28,-1
 345 0 l 1,29,-1
 60 0 l 1,4,-1
548 0 m 1,30,-1
 548 77 l 1,31,-1
 557 77 l 2,32,33
 576 77 576 77 596 78 c 128,-1,34
 616 79 616 79 630 81.5 c 128,-1,35
 644 84 644 84 644 87 c 2,36,-1
 644 624 l 2,37,38
 644 627 644 627 630 629 c 128,-1,39
 616 631 616 631 596 632 c 128,-1,40
 576 633 576 633 557 633 c 2,41,-1
 548 633 l 1,42,-1
 548 710 l 1,43,-1
 833 710 l 1,44,-1
 833 633 l 1,45,-1
 822 633 l 2,46,47
 791 633 791 633 768 626 c 128,-1,48
 745 619 745 619 745 597 c 2,49,-1
 745 113 l 2,50,51
 745 91 745 91 768 84 c 128,-1,52
 791 77 791 77 822 77 c 2,53,-1
 833 77 l 1,54,-1
 833 0 l 1,55,-1
 548 0 l 1,30,-1
EndSplineSet
EndChar

StartChar: Elcyr
Encoding: 1051 1051 276
Width: 825
GlyphClass: 2
Flags: W
AnchorPoint: "Anchor-0" 454 741 basechar 0
LayerCount: 2
Fore
SplineSet
259 710 m 1,0,-1
 632 710 l 1,1,-1
 632 633 l 1,2,-1
 259 633 l 1,3,-1
 259 710 l 1,0,-1
480 0 m 1,4,-1
 480 77 l 1,5,-1
 489 77 l 2,6,7
 508 77 508 77 528 78 c 128,-1,8
 548 79 548 79 562 81.5 c 128,-1,9
 576 84 576 84 576 87 c 2,10,-1
 576 710 l 1,11,-1
 765 710 l 1,12,-1
 765 633 l 1,13,-1
 754 633 l 2,14,15
 723 633 723 633 700 626 c 128,-1,16
 677 619 677 619 677 597 c 2,17,-1
 677 113 l 2,18,19
 677 91 677 91 700 84 c 128,-1,20
 723 77 723 77 754 77 c 2,21,-1
 765 77 l 1,22,-1
 765 0 l 1,23,-1
 480 0 l 1,4,-1
189 270 m 2,24,-1
 217 597 l 2,25,26
 219 619 219 619 196 626 c 128,-1,27
 173 633 173 633 141 633 c 2,28,-1
 130 633 l 1,29,-1
 130 710 l 1,30,-1
 315 710 l 1,31,-1
 278 266 l 2,32,33
 270 167 270 167 246 105 c 128,-1,34
 222 43 222 43 182.5 14 c 128,-1,35
 143 -15 143 -15 84 -15 c 0,36,37
 59 -15 59 -15 42 -10 c 128,-1,38
 25 -5 25 -5 15 0 c 1,39,-1
 15 99 l 1,40,41
 21 96 21 96 38.5 90 c 128,-1,42
 56 84 56 84 82 84 c 0,43,44
 113 84 113 84 135 102.5 c 128,-1,45
 157 121 157 121 170.5 162 c 128,-1,46
 184 203 184 203 189 270 c 2,24,-1
EndSplineSet
Substitution2: "'locl' Localized Forms in Cyrillic lookup 12 subtable" El.bgr
EndChar

StartChar: Pecyr
Encoding: 1055 1055 281
Width: 863
GlyphClass: 2
Flags: W
AnchorPoint: "Anchor-0" 432 741 basechar 0
LayerCount: 2
Fore
SplineSet
203 710 m 1,0,-1
 660 710 l 1,1,-1
 660 633 l 1,2,-1
 203 633 l 1,3,-1
 203 710 l 1,0,-1
60 0 m 1,4,-1
 60 77 l 1,5,-1
 71 77 l 2,6,7
 102 77 102 77 125.5 84 c 128,-1,8
 149 91 149 91 149 113 c 2,9,-1
 149 597 l 2,10,11
 149 619 149 619 125.5 626 c 128,-1,12
 102 633 102 633 71 633 c 2,13,-1
 60 633 l 1,14,-1
 60 710 l 1,15,-1
 249 710 l 1,16,-1
 249 87 l 2,17,18
 249 84 249 84 263 81.5 c 128,-1,19
 277 79 277 79 297 78 c 128,-1,20
 317 77 317 77 336 77 c 2,21,-1
 345 77 l 1,22,-1
 345 0 l 1,23,-1
 60 0 l 1,4,-1
518 0 m 1,24,-1
 518 77 l 1,25,-1
 527 77 l 2,26,27
 546 77 546 77 566 78 c 128,-1,28
 586 79 586 79 600 81.5 c 128,-1,29
 614 84 614 84 614 87 c 2,30,-1
 614 710 l 1,31,-1
 803 710 l 1,32,-1
 803 633 l 1,33,-1
 792 633 l 2,34,35
 761 633 761 633 738 626 c 128,-1,36
 715 619 715 619 715 597 c 2,37,-1
 715 113 l 2,38,39
 715 91 715 91 738 84 c 128,-1,40
 761 77 761 77 792 77 c 2,41,-1
 803 77 l 1,42,-1
 803 0 l 1,43,-1
 518 0 l 1,24,-1
EndSplineSet
EndChar

StartChar: Ucyr
Encoding: 1059 1059 285
Width: 722
GlyphClass: 2
Flags: W
AnchorPoint: "Anchor-1" 238 0 basechar 0
AnchorPoint: "Anchor-0" 368 741 basechar 0
LayerCount: 2
Fore
SplineSet
423 200 m 2,0,1
 392 136 392 136 367 94 c 128,-1,2
 342 52 342 52 318.5 28.5 c 128,-1,3
 295 5 295 5 269.5 -5 c 128,-1,4
 244 -15 244 -15 213 -15 c 0,5,6
 186 -15 186 -15 168.5 -10 c 128,-1,7
 151 -5 151 -5 140 0 c 1,8,-1
 140 97 l 1,9,10
 146 94 146 94 164.5 88 c 128,-1,11
 183 82 183 82 208 82 c 0,12,13
 238 82 238 82 262.5 93.5 c 128,-1,14
 287 105 287 105 309.5 136 c 128,-1,15
 332 167 332 167 359 225 c 2,16,-1
 534 610 l 2,17,18
 534 617 534 617 524 622 c 128,-1,19
 514 627 514 627 500 630 c 128,-1,20
 486 633 486 633 473 633 c 2,21,-1
 462 633 l 1,22,-1
 462 710 l 1,23,-1
 692 710 l 1,24,-1
 692 633 l 1,25,-1
 679 633 l 2,26,27
 663 633 663 633 649.5 628 c 128,-1,28
 636 623 636 623 625.5 612.5 c 128,-1,29
 615 602 615 602 608 586 c 2,30,-1
 423 200 l 2,0,1
388 222 m 1,31,-1
 333 137 l 1,32,-1
 110 599 l 2,33,34
 103 614 103 614 94 621 c 128,-1,35
 85 628 85 628 72.5 630.5 c 128,-1,36
 60 633 60 633 43 633 c 2,37,-1
 30 633 l 1,38,-1
 30 710 l 1,39,-1
 282 710 l 1,40,-1
 282 633 l 1,41,-1
 265 633 l 2,42,43
 251 633 251 633 235 631.5 c 128,-1,44
 219 630 219 630 208.5 628 c 128,-1,45
 198 626 198 626 198 622 c 2,46,-1
 388 222 l 1,31,-1
EndSplineSet
EndChar

StartChar: Efcyr
Encoding: 1060 1060 290
Width: 921
GlyphClass: 2
Flags: W
AnchorPoint: "Anchor-1" 461 0 basechar 0
AnchorPoint: "Anchor-0" 461 741 basechar 0
LayerCount: 2
Fore
SplineSet
414 88 m 2,0,-1
 414 622 l 2,1,2
 414 644 414 644 390 651 c 128,-1,3
 366 658 366 658 329 658 c 2,4,-1
 309 658 l 1,5,-1
 309 735 l 1,6,-1
 612 735 l 1,7,-1
 612 658 l 1,8,-1
 592 658 l 2,9,10
 555 658 555 658 531 651 c 128,-1,11
 507 644 507 644 507 622 c 2,12,-1
 507 88 l 2,13,14
 507 66 507 66 531 59 c 128,-1,15
 555 52 555 52 592 52 c 2,16,-1
 612 52 l 1,17,-1
 612 -25 l 1,18,-1
 309 -25 l 1,19,-1
 309 52 l 1,20,-1
 329 52 l 2,21,22
 366 52 366 52 390 59 c 128,-1,23
 414 66 414 66 414 88 c 2,0,-1
430 605 m 1,24,-1
 430 526 l 1,25,26
 330 526 330 526 270 508 c 128,-1,27
 210 490 210 490 184 453 c 128,-1,28
 158 416 158 416 158 360 c 0,29,30
 158 305 158 305 184 268 c 128,-1,31
 210 231 210 231 270 212.5 c 128,-1,32
 330 194 330 194 430 194 c 1,33,-1
 430 115 l 1,34,35
 302 115 302 115 217.5 144 c 128,-1,36
 133 173 133 173 91.5 228 c 128,-1,37
 50 283 50 283 50 360 c 0,38,39
 50 438 50 438 91.5 492.5 c 128,-1,40
 133 547 133 547 217.5 576 c 128,-1,41
 302 605 302 605 430 605 c 1,24,-1
491 115 m 1,42,-1
 491 194 l 1,43,44
 592 194 592 194 651.5 212.5 c 128,-1,45
 711 231 711 231 737.5 268 c 128,-1,46
 764 305 764 305 764 360 c 0,47,48
 764 416 764 416 737.5 453 c 128,-1,49
 711 490 711 490 651.5 508 c 128,-1,50
 592 526 592 526 491 526 c 1,51,-1
 491 605 l 1,52,53
 619 605 619 605 703.5 576 c 128,-1,54
 788 547 788 547 829.5 492.5 c 128,-1,55
 871 438 871 438 871 360 c 0,56,57
 871 283 871 283 829.5 228 c 128,-1,58
 788 173 788 173 703.5 144 c 128,-1,59
 619 115 619 115 491 115 c 1,42,-1
EndSplineSet
EndChar

StartChar: Tsecyr
Encoding: 1062 1062 292
Width: 863
GlyphClass: 2
Flags: W
AnchorPoint: "Anchor-0" 432 741 basechar 0
LayerCount: 2
Fore
SplineSet
215 0 m 1,0,-1
 215 77 l 1,1,-1
 656 77 l 1,2,-1
 656 0 l 1,3,-1
 215 0 l 1,0,-1
60 710 m 1,4,-1
 345 710 l 1,5,-1
 345 633 l 1,6,-1
 336 633 l 2,7,8
 317 633 317 633 297 632 c 128,-1,9
 277 631 277 631 263 629 c 128,-1,10
 249 627 249 627 249 623 c 2,11,-1
 249 0 l 1,12,-1
 60 0 l 1,13,-1
 60 77 l 1,14,-1
 71 77 l 2,15,16
 102 77 102 77 125.5 84 c 128,-1,17
 149 91 149 91 149 113 c 2,18,-1
 149 597 l 2,19,20
 149 619 149 619 125.5 626 c 128,-1,21
 102 633 102 633 71 633 c 2,22,-1
 60 633 l 1,23,-1
 60 710 l 1,4,-1
518 710 m 1,24,-1
 803 710 l 1,25,-1
 803 633 l 1,26,-1
 792 633 l 2,27,28
 761 633 761 633 738 626 c 128,-1,29
 715 619 715 619 715 597 c 2,30,-1
 715 0 l 1,31,-1
 614 0 l 1,32,-1
 614 623 l 2,33,34
 614 627 614 627 600 629 c 128,-1,35
 586 631 586 631 566 632 c 128,-1,36
 546 633 546 633 527 633 c 2,37,-1
 518 633 l 1,38,-1
 518 710 l 1,24,-1
554 0 m 1,39,-1
 554 77 l 1,40,-1
 813 77 l 1,41,-1
 813 -189 l 1,42,-1
 738 -189 l 1,43,-1
 725 -53 l 2,44,45
 724 -35 724 -35 710 -23 c 128,-1,46
 696 -11 696 -11 667 -5.5 c 128,-1,47
 638 0 638 0 590 0 c 2,48,-1
 554 0 l 1,39,-1
EndSplineSet
EndChar

StartChar: Checyr
Encoding: 1063 1063 293
Width: 813
GlyphClass: 2
Flags: W
AnchorPoint: "Anchor-0" 398 741 basechar 0
LayerCount: 2
Fore
SplineSet
468 0 m 1,0,-1
 468 77 l 1,1,-1
 477 77 l 2,2,3
 496 77 496 77 516 78 c 128,-1,4
 536 79 536 79 550 81.5 c 128,-1,5
 564 84 564 84 564 87 c 2,6,-1
 564 624 l 2,7,8
 564 627 564 627 550 629 c 128,-1,9
 536 631 536 631 516 632 c 128,-1,10
 496 633 496 633 477 633 c 2,11,-1
 468 633 l 1,12,-1
 468 710 l 1,13,-1
 753 710 l 1,14,-1
 753 633 l 1,15,-1
 742 633 l 2,16,17
 711 633 711 633 688 626 c 128,-1,18
 665 619 665 619 665 597 c 2,19,-1
 665 113 l 2,20,21
 665 91 665 91 688 84 c 128,-1,22
 711 77 711 77 742 77 c 2,23,-1
 753 77 l 1,24,-1
 753 0 l 1,25,-1
 468 0 l 1,0,-1
375 273 m 0,26,27
 284 273 284 273 230 295.5 c 128,-1,28
 176 318 176 318 152.5 368 c 128,-1,29
 129 418 129 418 129 500 c 2,30,-1
 129 597 l 2,31,32
 129 619 129 619 105.5 626 c 128,-1,33
 82 633 82 633 51 633 c 2,34,-1
 40 633 l 1,35,-1
 40 710 l 1,36,-1
 325 710 l 1,37,-1
 325 633 l 1,38,-1
 316 633 l 2,39,40
 297 633 297 633 277 632 c 128,-1,41
 257 631 257 631 243 629 c 128,-1,42
 229 627 229 627 229 623 c 2,43,-1
 229 505 l 2,44,45
 229 448 229 448 243 413.5 c 128,-1,46
 257 379 257 379 288.5 364.5 c 128,-1,47
 320 350 320 350 375 350 c 0,48,49
 433 350 433 350 495 362.5 c 128,-1,50
 557 375 557 375 611 408 c 1,51,-1
 611 330 l 1,52,53
 557 300 557 300 495 286.5 c 128,-1,54
 433 273 433 273 375 273 c 0,26,27
EndSplineSet
EndChar

StartChar: Shacyr
Encoding: 1064 1064 294
Width: 1191
GlyphClass: 2
Flags: W
AnchorPoint: "Anchor-0" 584 741 basechar 0
LayerCount: 2
Fore
SplineSet
972 0 m 1,0,-1
 219 0 l 1,1,-1
 219 77 l 1,2,-1
 972 77 l 1,3,-1
 972 0 l 1,0,-1
1131 710 m 1,4,-1
 1131 633 l 1,5,-1
 1120 633 l 2,6,7
 1089 633 1089 633 1066 626 c 128,-1,8
 1043 619 1043 619 1043 597 c 2,9,-1
 1043 113 l 2,10,11
 1043 91 1043 91 1066 84 c 128,-1,12
 1089 77 1089 77 1120 77 c 2,13,-1
 1131 77 l 1,14,-1
 1131 0 l 1,15,-1
 942 0 l 1,16,-1
 942 623 l 2,17,18
 942 627 942 627 928 629 c 128,-1,19
 914 631 914 631 894 632 c 128,-1,20
 874 633 874 633 855 633 c 2,21,-1
 846 633 l 1,22,-1
 846 710 l 1,23,-1
 1131 710 l 1,4,-1
345 710 m 1,24,-1
 345 633 l 1,25,-1
 336 633 l 2,26,27
 317 633 317 633 297 632 c 128,-1,28
 277 631 277 631 263 629 c 128,-1,29
 249 627 249 627 249 623 c 2,30,-1
 249 0 l 1,31,-1
 60 0 l 1,32,-1
 60 77 l 1,33,-1
 71 77 l 2,34,35
 102 77 102 77 125.5 84 c 128,-1,36
 149 91 149 91 149 113 c 2,37,-1
 149 597 l 2,38,39
 149 619 149 619 125.5 626 c 128,-1,40
 102 633 102 633 71 633 c 2,41,-1
 60 633 l 1,42,-1
 60 710 l 1,43,-1
 345 710 l 1,24,-1
453 710 m 1,44,-1
 738 710 l 1,45,-1
 738 633 l 1,46,-1
 729 633 l 2,47,48
 711 633 711 633 692 632 c 128,-1,49
 673 631 673 631 659.5 629 c 128,-1,50
 646 627 646 627 646 623 c 2,51,-1
 646 0 l 1,52,-1
 545 0 l 1,53,-1
 545 623 l 2,54,55
 545 627 545 627 531.5 629 c 128,-1,56
 518 631 518 631 499 632 c 128,-1,57
 480 633 480 633 462 633 c 2,58,-1
 453 633 l 1,59,-1
 453 710 l 1,44,-1
EndSplineSet
EndChar

StartChar: Shchacyr
Encoding: 1065 1065 295
Width: 1191
GlyphClass: 2
Flags: W
AnchorPoint: "Anchor-0" 584 741 basechar 0
LayerCount: 2
Fore
SplineSet
989 0 m 1,0,-1
 219 0 l 1,1,-1
 219 77 l 1,2,-1
 989 77 l 1,3,-1
 989 0 l 1,0,-1
345 710 m 1,4,-1
 345 633 l 1,5,-1
 336 633 l 2,6,7
 317 633 317 633 297 632 c 128,-1,8
 277 631 277 631 263 629 c 128,-1,9
 249 627 249 627 249 623 c 2,10,-1
 249 0 l 1,11,-1
 60 0 l 1,12,-1
 60 77 l 1,13,-1
 71 77 l 2,14,15
 102 77 102 77 125.5 84 c 128,-1,16
 149 91 149 91 149 113 c 2,17,-1
 149 597 l 2,18,19
 149 619 149 619 125.5 626 c 128,-1,20
 102 633 102 633 71 633 c 2,21,-1
 60 633 l 1,22,-1
 60 710 l 1,23,-1
 345 710 l 1,4,-1
846 710 m 1,24,-1
 1131 710 l 1,25,-1
 1131 633 l 1,26,-1
 1120 633 l 2,27,28
 1089 633 1089 633 1066 626 c 128,-1,29
 1043 619 1043 619 1043 597 c 2,30,-1
 1043 0 l 1,31,-1
 942 0 l 1,32,-1
 942 623 l 2,33,34
 942 627 942 627 928 629 c 128,-1,35
 914 631 914 631 894 632 c 128,-1,36
 874 633 874 633 855 633 c 2,37,-1
 846 633 l 1,38,-1
 846 710 l 1,24,-1
920 0 m 2,39,-1
 882 0 l 1,40,-1
 882 77 l 1,41,-1
 1141 77 l 1,42,-1
 1141 -189 l 1,43,-1
 1066 -189 l 1,44,-1
 1053 -52 l 2,45,46
 1052 -35 1052 -35 1038.5 -23.5 c 128,-1,47
 1025 -12 1025 -12 996 -6 c 128,-1,48
 967 0 967 0 920 0 c 2,39,-1
453 710 m 1,49,-1
 738 710 l 1,50,-1
 738 633 l 1,51,-1
 729 633 l 2,52,53
 711 633 711 633 692 632 c 128,-1,54
 673 631 673 631 659.5 629 c 128,-1,55
 646 627 646 627 646 623 c 2,56,-1
 646 0 l 1,57,-1
 545 0 l 1,58,-1
 545 623 l 2,59,60
 545 627 545 627 531.5 629 c 128,-1,61
 518 631 518 631 499 632 c 128,-1,62
 480 633 480 633 462 633 c 2,63,-1
 453 633 l 1,64,-1
 453 710 l 1,49,-1
EndSplineSet
EndChar

StartChar: Hardcyr
Encoding: 1066 1066 296
Width: 829
GlyphClass: 2
Flags: W
AnchorPoint: "Anchor-0" 290 741 basechar 0
LayerCount: 2
Fore
SplineSet
524 0 m 2,0,-1
 187 0 l 1,1,-1
 187 77 l 1,2,-1
 198 77 l 2,3,4
 229 77 229 77 252.5 84 c 128,-1,5
 276 91 276 91 276 113 c 2,6,-1
 276 633 l 1,7,-1
 256 633 l 2,8,9
 211 633 211 633 187 627 c 128,-1,10
 163 621 163 621 153.5 608.5 c 128,-1,11
 144 596 144 596 142 576 c 2,12,-1
 130 469 l 1,13,-1
 55 469 l 1,14,-1
 55 710 l 1,15,-1
 491 710 l 1,16,-1
 491 633 l 1,17,-1
 471 633 l 2,18,19
 447 633 447 633 425.5 632 c 128,-1,20
 404 631 404 631 390.5 629 c 128,-1,21
 377 627 377 627 377 623 c 2,22,-1
 377 77 l 1,23,-1
 524 77 l 2,24,25
 574 77 574 77 604 91.5 c 128,-1,26
 634 106 634 106 648 137 c 128,-1,27
 662 168 662 168 662 215 c 0,28,29
 662 264 662 264 648 296 c 128,-1,30
 634 328 634 328 604 343.5 c 128,-1,31
 574 359 574 359 524 359 c 2,32,-1
 334 359 l 1,33,-1
 334 436 l 1,34,-1
 524 436 l 2,35,36
 601 436 601 436 655.5 413 c 128,-1,37
 710 390 710 390 739.5 341.5 c 128,-1,38
 769 293 769 293 769 215 c 0,39,40
 769 145 769 145 738 97 c 128,-1,41
 707 49 707 49 652 24.5 c 128,-1,42
 597 0 597 0 524 0 c 2,0,-1
EndSplineSet
EndChar

StartChar: Ylongcyr
Encoding: 1067 1067 297
Width: 1027
GlyphClass: 2
Flags: W
AnchorPoint: "Anchor-1" 503 0 basechar 0
AnchorPoint: "Anchor-0" 503 741 basechar 0
LayerCount: 2
Fore
SplineSet
778 87 m 2,0,-1
 778 624 l 2,1,2
 778 627 778 627 764 629 c 128,-1,3
 750 631 750 631 730 632 c 128,-1,4
 710 633 710 633 691 633 c 2,5,-1
 682 633 l 1,6,-1
 682 710 l 1,7,-1
 967 710 l 1,8,-1
 967 633 l 1,9,-1
 956 633 l 2,10,11
 925 633 925 633 902 626 c 128,-1,12
 879 619 879 619 879 597 c 2,13,-1
 879 113 l 2,14,15
 879 91 879 91 902 84 c 128,-1,16
 925 77 925 77 956 77 c 2,17,-1
 967 77 l 1,18,-1
 967 0 l 1,19,-1
 682 0 l 1,20,-1
 682 77 l 1,21,-1
 691 77 l 2,22,23
 710 77 710 77 730 78 c 128,-1,24
 750 79 750 79 764 81.5 c 128,-1,25
 778 84 778 84 778 87 c 2,0,-1
397 0 m 2,26,-1
 60 0 l 1,27,-1
 60 77 l 1,28,-1
 71 77 l 2,29,30
 102 77 102 77 125.5 84 c 128,-1,31
 149 91 149 91 149 113 c 2,32,-1
 149 597 l 2,33,34
 149 619 149 619 125.5 626 c 128,-1,35
 102 633 102 633 71 633 c 2,36,-1
 60 633 l 1,37,-1
 60 710 l 1,38,-1
 364 710 l 1,39,-1
 364 633 l 1,40,-1
 344 633 l 2,41,42
 320 633 320 633 298.5 632 c 128,-1,43
 277 631 277 631 263.5 629 c 128,-1,44
 250 627 250 627 250 623 c 2,45,-1
 250 77 l 1,46,-1
 397 77 l 2,47,48
 447 77 447 77 477.5 91.5 c 128,-1,49
 508 106 508 106 522 137 c 128,-1,50
 536 168 536 168 536 215 c 0,51,52
 536 264 536 264 522 296 c 128,-1,53
 508 328 508 328 477.5 343.5 c 128,-1,54
 447 359 447 359 397 359 c 2,55,-1
 224 359 l 1,56,-1
 224 436 l 1,57,-1
 397 436 l 2,58,59
 474 436 474 436 528.5 413 c 128,-1,60
 583 390 583 390 612.5 341.5 c 128,-1,61
 642 293 642 293 642 215 c 0,62,63
 642 145 642 145 611 97 c 128,-1,64
 580 49 580 49 525 24.5 c 128,-1,65
 470 0 470 0 397 0 c 2,26,-1
EndSplineSet
EndChar

StartChar: Softcyr
Encoding: 1068 1068 298
Width: 702
GlyphClass: 2
Flags: W
AnchorPoint: "Anchor-0" 204 741 basechar 0
LayerCount: 2
Fore
SplineSet
397 0 m 2,0,-1
 60 0 l 1,1,-1
 60 77 l 1,2,-1
 71 77 l 2,3,4
 102 77 102 77 125.5 84 c 128,-1,5
 149 91 149 91 149 113 c 2,6,-1
 149 597 l 2,7,8
 149 619 149 619 125.5 626 c 128,-1,9
 102 633 102 633 71 633 c 2,10,-1
 60 633 l 1,11,-1
 60 710 l 1,12,-1
 364 710 l 1,13,-1
 364 633 l 1,14,-1
 344 633 l 2,15,16
 320 633 320 633 298.5 632 c 128,-1,17
 277 631 277 631 263.5 629 c 128,-1,18
 250 627 250 627 250 623 c 2,19,-1
 250 77 l 1,20,-1
 397 77 l 2,21,22
 447 77 447 77 477.5 91.5 c 128,-1,23
 508 106 508 106 522 137 c 128,-1,24
 536 168 536 168 536 215 c 0,25,26
 536 264 536 264 522 296 c 128,-1,27
 508 328 508 328 477.5 343.5 c 128,-1,28
 447 359 447 359 397 359 c 2,29,-1
 224 359 l 1,30,-1
 224 436 l 1,31,-1
 397 436 l 2,32,33
 474 436 474 436 528.5 413 c 128,-1,34
 583 390 583 390 612.5 341.5 c 128,-1,35
 642 293 642 293 642 215 c 0,36,37
 642 145 642 145 611 97 c 128,-1,38
 580 49 580 49 525 24.5 c 128,-1,39
 470 0 470 0 397 0 c 2,0,-1
EndSplineSet
EndChar

StartChar: Ereversedcyr
Encoding: 1069 1069 299
Width: 813
GlyphClass: 2
Flags: W
AnchorPoint: "Anchor-1" 390 0 basechar 0
AnchorPoint: "Anchor-0" 390 741 basechar 0
LayerCount: 2
Fore
SplineSet
679 401 m 1,0,-1
 679 328 l 1,1,2
 633 326 633 326 586.5 324 c 128,-1,3
 540 322 540 322 494 320.5 c 128,-1,4
 448 319 448 319 401.5 317 c 128,-1,5
 355 315 355 315 309 313 c 1,6,-1
 309 416 l 1,7,8
 355 414 355 414 401.5 412 c 128,-1,9
 448 410 448 410 494 408.5 c 128,-1,10
 540 407 540 407 586.5 405 c 128,-1,11
 633 403 633 403 679 401 c 1,0,-1
417 -25 m 256,12,13
 345 -25 345 -25 290.5 0.5 c 128,-1,14
 236 26 236 26 204 76 c 128,-1,15
 172 126 172 126 164 202 c 1,16,-1
 183 159 l 1,17,-1
 170 -10 l 1,18,-1
 92 -10 l 1,19,-1
 92 242 l 1,20,-1
 176 242 l 1,21,22
 193 187 193 187 225 144.5 c 128,-1,23
 257 102 257 102 305 78 c 128,-1,24
 353 54 353 54 417 54 c 0,25,26
 474 54 474 54 516.5 71.5 c 128,-1,27
 559 89 559 89 587.5 125.5 c 128,-1,28
 616 162 616 162 630 219 c 128,-1,29
 644 276 644 276 644 355 c 256,30,31
 644 434 644 434 627.5 491 c 128,-1,32
 611 548 611 548 581.5 584.5 c 128,-1,33
 552 621 552 621 511 638.5 c 128,-1,34
 470 656 470 656 420 656 c 0,35,36
 353 656 353 656 304 632.5 c 128,-1,37
 255 609 255 609 223.5 567 c 128,-1,38
 192 525 192 525 176 468 c 1,39,-1
 92 468 l 1,40,-1
 92 720 l 1,41,-1
 170 720 l 1,42,-1
 183 551 l 1,43,-1
 164 508 l 1,44,45
 172 584 172 584 205 634 c 128,-1,46
 238 684 238 684 293 709.5 c 128,-1,47
 348 735 348 735 417 735 c 0,48,49
 490 735 490 735 550.5 711.5 c 128,-1,50
 611 688 611 688 656 641 c 128,-1,51
 701 594 701 594 726 522.5 c 128,-1,52
 751 451 751 451 751 355 c 0,53,54
 751 265 751 265 726 194.5 c 128,-1,55
 701 124 701 124 656.5 75 c 128,-1,56
 612 26 612 26 550.5 0.5 c 128,-1,57
 489 -25 489 -25 417 -25 c 256,12,13
EndSplineSet
Substitution2: "'ss01' Style Set 1 lookup 61 subtable" Ecyr.alt1
EndChar

StartChar: Yucyr
Encoding: 1070 1070 300
Width: 1145
GlyphClass: 2
Flags: W
AnchorPoint: "Anchor-1" 595 0 basechar 0
AnchorPoint: "Anchor-0" 595 741 basechar 0
LayerCount: 2
Fore
SplineSet
219 405 m 1,0,-1
 433 405 l 1,1,-1
 433 328 l 1,2,-1
 219 328 l 1,3,-1
 219 405 l 1,0,-1
60 0 m 1,4,-1
 60 77 l 1,5,-1
 71 77 l 2,6,7
 102 77 102 77 125.5 84 c 128,-1,8
 149 91 149 91 149 113 c 2,9,-1
 149 597 l 2,10,11
 149 619 149 619 125.5 626 c 128,-1,12
 102 633 102 633 71 633 c 2,13,-1
 60 633 l 1,14,-1
 60 710 l 1,15,-1
 345 710 l 1,16,-1
 345 634 l 1,17,-1
 336 634 l 2,18,19
 322 634 322 634 306.5 633 c 128,-1,20
 291 632 291 632 278 630.5 c 128,-1,21
 265 629 265 629 257 627.5 c 128,-1,22
 249 626 249 626 249 623 c 2,23,-1
 249 86 l 2,24,25
 249 84 249 84 257 82.5 c 128,-1,26
 265 81 265 81 278 79.5 c 128,-1,27
 291 78 291 78 306.5 77.5 c 128,-1,28
 322 77 322 77 336 77 c 2,29,-1
 345 77 l 1,30,-1
 345 0 l 1,31,-1
 60 0 l 1,4,-1
739 -25 m 256,32,33
 662 -25 662 -25 599 0 c 128,-1,34
 536 25 536 25 490 73.5 c 128,-1,35
 444 122 444 122 419.5 192.5 c 128,-1,36
 395 263 395 263 395 356 c 0,37,38
 395 448 395 448 419.5 518.5 c 128,-1,39
 444 589 444 589 490 637.5 c 128,-1,40
 536 686 536 686 599 710.5 c 128,-1,41
 662 735 662 735 739 735 c 256,42,43
 816 735 816 735 879.5 710.5 c 128,-1,44
 943 686 943 686 988.5 637.5 c 128,-1,45
 1034 589 1034 589 1058.5 518.5 c 128,-1,46
 1083 448 1083 448 1083 356 c 0,47,48
 1083 263 1083 263 1058.5 192.5 c 128,-1,49
 1034 122 1034 122 988.5 73.5 c 128,-1,50
 943 25 943 25 879.5 0 c 128,-1,51
 816 -25 816 -25 739 -25 c 256,32,33
739 54 m 0,52,53
 798 54 798 54 842 72.5 c 128,-1,54
 886 91 886 91 915.5 128 c 128,-1,55
 945 165 945 165 960.5 221 c 128,-1,56
 976 277 976 277 976 355 c 0,57,58
 976 432 976 432 960.5 489 c 128,-1,59
 945 546 945 546 915.5 583 c 128,-1,60
 886 620 886 620 841.5 638 c 128,-1,61
 797 656 797 656 739 656 c 256,62,63
 681 656 681 656 636.5 638 c 128,-1,64
 592 620 592 620 562.5 583 c 128,-1,65
 533 546 533 546 518 489 c 128,-1,66
 503 432 503 432 503 355 c 256,67,68
 503 278 503 278 518 221.5 c 128,-1,69
 533 165 533 165 563 128 c 128,-1,70
 593 91 593 91 637 72.5 c 128,-1,71
 681 54 681 54 739 54 c 0,52,53
EndSplineSet
EndChar

StartChar: Yacyr
Encoding: 1071 1071 301
Width: 769
GlyphClass: 2
Flags: W
AnchorPoint: "Anchor-1" 385 0 basechar 0
AnchorPoint: "Anchor-0" 423 741 basechar 0
LayerCount: 2
Fore
SplineSet
368 321 m 1,0,-1
 185 0 l 1,1,-1
 35 0 l 1,2,-1
 35 77 l 1,3,-1
 45 77 l 2,4,5
 69 77 69 77 88 81.5 c 128,-1,6
 107 86 107 86 123.5 99.5 c 128,-1,7
 140 113 140 113 155 138 c 2,8,-1
 288 364 l 1,9,-1
 368 321 l 1,0,-1
520 87 m 2,10,-1
 520 633 l 1,11,-1
 375 633 l 2,12,13
 326 633 326 633 292.5 618 c 128,-1,14
 259 603 259 603 242 575 c 128,-1,15
 225 547 225 547 225 505 c 256,16,17
 225 463 225 463 241.5 432 c 128,-1,18
 258 401 258 401 292 384.5 c 128,-1,19
 326 368 326 368 378 368 c 2,20,-1
 530 368 l 1,21,-1
 530 291 l 1,22,-1
 337 291 l 1,23,-1
 312 298 l 1,24,25
 256 306 256 306 214 333.5 c 128,-1,26
 172 361 172 361 148.5 404.5 c 128,-1,27
 125 448 125 448 125 505 c 0,28,29
 125 571 125 571 154.5 616.5 c 128,-1,30
 184 662 184 662 239 686 c 128,-1,31
 294 710 294 710 370 710 c 2,32,-1
 709 710 l 1,33,-1
 709 633 l 1,34,-1
 698 633 l 2,35,36
 667 633 667 633 644 626 c 128,-1,37
 621 619 621 619 621 597 c 2,38,-1
 621 113 l 2,39,40
 621 91 621 91 644 84 c 128,-1,41
 667 77 667 77 698 77 c 2,42,-1
 709 77 l 1,43,-1
 709 0 l 1,44,-1
 405 0 l 1,45,-1
 405 77 l 1,46,-1
 425 77 l 2,47,48
 443 77 443 77 460 77.5 c 128,-1,49
 477 78 477 78 490.5 79.5 c 128,-1,50
 504 81 504 81 512 82.5 c 128,-1,51
 520 84 520 84 520 87 c 2,10,-1
EndSplineSet
EndChar

StartChar: Geupcyr
Encoding: 1168 1168 302
Width: 665
GlyphClass: 2
Flags: W
AnchorPoint: "Anchor-0" 313 741 basechar 0
LayerCount: 2
Fore
SplineSet
249 633 m 1,0,-1
 249 113 l 2,1,2
 249 99 249 99 260 91 c 128,-1,3
 271 83 271 83 290.5 80 c 128,-1,4
 310 77 310 77 334 77 c 2,5,-1
 364 77 l 1,6,-1
 364 0 l 1,7,-1
 60 0 l 1,8,-1
 60 77 l 1,9,-1
 71 77 l 2,10,11
 102 77 102 77 125.5 84 c 128,-1,12
 149 91 149 91 149 113 c 2,13,-1
 149 597 l 2,14,15
 149 619 149 619 125.5 626 c 128,-1,16
 102 633 102 633 71 633 c 2,17,-1
 60 633 l 1,18,-1
 60 710 l 1,19,-1
 392 710 l 2,20,21
 439 710 439 710 468.5 715.5 c 128,-1,22
 498 721 498 721 511.5 733 c 128,-1,23
 525 745 525 745 527 764 c 2,24,-1
 540 899 l 1,25,-1
 615 899 l 1,26,-1
 615 633 l 1,27,-1
 249 633 l 1,0,-1
EndSplineSet
EndChar

StartChar: Gestrokecyr
Encoding: 1170 1170 303
Width: 670
GlyphClass: 2
Flags: W
AnchorPoint: "Anchor-0" 342 741 basechar 0
LayerCount: 2
Fore
SplineSet
60 399 m 1,0,-1
 430 399 l 1,1,-1
 430 322 l 1,2,-1
 60 322 l 1,3,-1
 60 399 l 1,0,-1
249 633 m 1,4,-1
 249 113 l 2,5,6
 249 99 249 99 260 91 c 128,-1,7
 271 83 271 83 290.5 80 c 128,-1,8
 310 77 310 77 334 77 c 2,9,-1
 364 77 l 1,10,-1
 364 0 l 1,11,-1
 60 0 l 1,12,-1
 60 77 l 1,13,-1
 71 77 l 2,14,15
 102 77 102 77 125.5 84 c 128,-1,16
 149 91 149 91 149 113 c 2,17,-1
 149 597 l 2,18,19
 149 619 149 619 125.5 626 c 128,-1,20
 102 633 102 633 71 633 c 2,21,-1
 60 633 l 1,22,-1
 60 710 l 1,23,-1
 615 710 l 1,24,-1
 615 484 l 1,25,-1
 540 484 l 1,26,-1
 528 582 l 2,27,28
 526 602 526 602 515.5 613 c 128,-1,29
 505 624 505 624 480 628.5 c 128,-1,30
 455 633 455 633 411 633 c 2,31,-1
 249 633 l 1,4,-1
EndSplineSet
EndChar

StartChar: Zhetailcyr
Encoding: 1174 1174 304
Width: 1140
GlyphClass: 2
Flags: W
AnchorPoint: "Anchor-0" 559 741 basechar 0
LayerCount: 2
Fore
SplineSet
813 0 m 1,0,-1
 813 77 l 1,1,-1
 822 77 l 2,2,3
 843 77 843 77 862 78 c 128,-1,4
 881 79 881 79 893.5 81.5 c 128,-1,5
 906 84 906 84 906 87 c 2,6,-1
 668 343 l 1,7,-1
 668 373 l 1,8,-1
 915 622 l 2,9,10
 915 626 915 626 903 628 c 128,-1,11
 891 630 891 630 873.5 631.5 c 128,-1,12
 856 633 856 633 836 633 c 2,13,-1
 827 633 l 1,14,-1
 827 710 l 1,15,-1
 1085 710 l 1,16,-1
 1085 633 l 1,17,-1
 1054 633 l 2,18,19
 1044 633 1044 633 1033.5 630.5 c 128,-1,20
 1023 628 1023 628 1012 621.5 c 128,-1,21
 1001 615 1001 615 990 604 c 2,22,-1
 744 357 l 1,23,-1
 744 399 l 1,24,-1
 1044 77 l 1,25,-1
 1044 0 l 1,26,-1
 813 0 l 1,0,-1
322 0 m 1,27,-1
 30 0 l 1,28,-1
 30 77 l 1,29,-1
 48 77 l 2,30,31
 62 77 62 77 74 78 c 128,-1,32
 86 79 86 79 96 83.5 c 128,-1,33
 106 88 106 88 114 96 c 2,34,-1
 397 399 l 1,35,-1
 389 357 l 1,36,-1
 144 604 l 2,37,38
 133 615 133 615 122 621.5 c 128,-1,39
 111 628 111 628 100 630.5 c 128,-1,40
 89 633 89 633 79 633 c 2,41,-1
 48 633 l 1,42,-1
 48 710 l 1,43,-1
 308 710 l 1,44,-1
 308 633 l 1,45,-1
 299 633 l 2,46,47
 280 633 280 633 262 631.5 c 128,-1,48
 244 630 244 630 232 628 c 128,-1,49
 220 626 220 626 220 622 c 2,50,-1
 467 373 l 1,51,-1
 467 343 l 1,52,-1
 230 87 l 2,53,54
 230 84 230 84 242 81.5 c 128,-1,55
 254 79 254 79 273.5 78 c 128,-1,56
 293 77 293 77 313 77 c 2,57,-1
 322 77 l 1,58,-1
 322 0 l 1,27,-1
909 0 m 2,59,-1
 896 0 l 1,60,-1
 911 77 l 1,61,-1
 1130 77 l 1,62,-1
 1130 -189 l 1,63,-1
 1055 -189 l 1,64,-1
 1042 -52 l 2,65,66
 1041 -35 1041 -35 1027.5 -23.5 c 128,-1,67
 1014 -12 1014 -12 985 -6 c 128,-1,68
 956 0 956 0 909 0 c 2,59,-1
425 0 m 1,69,-1
 425 77 l 1,70,-1
 434 77 l 2,71,72
 448 77 448 77 462.5 77.5 c 128,-1,73
 477 78 477 78 489.5 79.5 c 128,-1,74
 502 81 502 81 509.5 82.5 c 128,-1,75
 517 84 517 84 517 87 c 2,76,-1
 517 624 l 2,77,78
 517 626 517 626 509.5 627.5 c 128,-1,79
 502 629 502 629 489.5 630.5 c 128,-1,80
 477 632 477 632 462.5 632.5 c 128,-1,81
 448 633 448 633 434 633 c 2,82,-1
 425 633 l 1,83,-1
 425 710 l 1,84,-1
 710 710 l 1,85,-1
 710 633 l 1,86,-1
 701 633 l 2,87,88
 688 633 688 633 673 632.5 c 128,-1,89
 658 632 658 632 645.5 630.5 c 128,-1,90
 633 629 633 629 625.5 627.5 c 128,-1,91
 618 626 618 626 618 623 c 2,92,-1
 618 86 l 2,93,94
 618 84 618 84 625.5 82.5 c 128,-1,95
 633 81 633 81 645.5 79.5 c 128,-1,96
 658 78 658 78 673 77.5 c 128,-1,97
 688 77 688 77 701 77 c 2,98,-1
 710 77 l 1,99,-1
 710 0 l 1,100,-1
 425 0 l 1,69,-1
EndSplineSet
EndChar

StartChar: Katailcyr
Encoding: 1178 1178 306
Width: 793
GlyphClass: 2
Flags: W
AnchorPoint: "Anchor-0" 404 741 basechar 0
LayerCount: 2
Fore
SplineSet
60 0 m 1,0,-1
 60 77 l 1,1,-1
 71 77 l 2,2,3
 102 77 102 77 125.5 84 c 128,-1,4
 149 91 149 91 149 113 c 2,5,-1
 149 597 l 2,6,7
 149 619 149 619 125.5 626 c 128,-1,8
 102 633 102 633 71 633 c 2,9,-1
 60 633 l 1,10,-1
 60 710 l 1,11,-1
 340 710 l 1,12,-1
 340 633 l 1,13,-1
 331 633 l 2,14,15
 319 633 319 633 304.5 632.5 c 128,-1,16
 290 632 290 632 277.5 630.5 c 128,-1,17
 265 629 265 629 257 627.5 c 128,-1,18
 249 626 249 626 249 623 c 2,19,-1
 249 87 l 2,20,21
 249 84 249 84 257 82.5 c 128,-1,22
 265 81 265 81 277.5 79.5 c 128,-1,23
 290 78 290 78 304.5 77.5 c 128,-1,24
 319 77 319 77 331 77 c 2,25,-1
 340 77 l 1,26,-1
 340 0 l 1,27,-1
 60 0 l 1,0,-1
463 0 m 1,28,-1
 463 77 l 1,29,-1
 472 77 l 2,30,31
 493 77 493 77 512 78 c 128,-1,32
 531 79 531 79 543.5 81.5 c 128,-1,33
 556 84 556 84 556 87 c 2,34,-1
 299 343 l 1,35,-1
 299 373 l 1,36,-1
 565 622 l 2,37,38
 565 626 565 626 553 628 c 128,-1,39
 541 630 541 630 523.5 631.5 c 128,-1,40
 506 633 506 633 486 633 c 2,41,-1
 477 633 l 1,42,-1
 477 710 l 1,43,-1
 737 710 l 1,44,-1
 737 633 l 1,45,-1
 710 633 l 2,46,47
 699 633 699 633 688 630.5 c 128,-1,48
 677 628 677 628 665.5 622 c 128,-1,49
 654 616 654 616 642 604 c 2,50,-1
 376 356 l 1,51,-1
 376 399 l 1,52,-1
 700 77 l 1,53,-1
 700 0 l 1,54,-1
 463 0 l 1,28,-1
562 0 m 2,55,-1
 549 0 l 1,56,-1
 564 77 l 1,57,-1
 783 77 l 1,58,-1
 783 -189 l 1,59,-1
 708 -189 l 1,60,-1
 695 -52 l 2,61,62
 694 -35 694 -35 680.5 -23.5 c 128,-1,63
 667 -12 667 -12 638 -6 c 128,-1,64
 609 0 609 0 562 0 c 2,55,-1
EndSplineSet
EndChar

StartChar: Kaverticalstrokecyr
Encoding: 1180 1180 307
Width: 870
GlyphClass: 2
Flags: W
AnchorPoint: "Anchor-0" 452 741 basechar 0
LayerCount: 2
Fore
SplineSet
329 171 m 1,0,-1
 329 544 l 1,1,-1
 406 544 l 1,2,-1
 406 171 l 1,3,-1
 329 171 l 1,0,-1
60 0 m 1,4,-1
 60 77 l 1,5,-1
 71 77 l 2,6,7
 102 77 102 77 125.5 84 c 128,-1,8
 149 91 149 91 149 113 c 2,9,-1
 149 597 l 2,10,11
 149 619 149 619 125.5 626 c 128,-1,12
 102 633 102 633 71 633 c 2,13,-1
 60 633 l 1,14,-1
 60 710 l 1,15,-1
 340 710 l 1,16,-1
 340 633 l 1,17,-1
 331 633 l 2,18,19
 319 633 319 633 304.5 632.5 c 128,-1,20
 290 632 290 632 277.5 630.5 c 128,-1,21
 265 629 265 629 257 627.5 c 128,-1,22
 249 626 249 626 249 623 c 2,23,-1
 249 87 l 2,24,25
 249 84 249 84 257 82.5 c 128,-1,26
 265 81 265 81 277.5 79.5 c 128,-1,27
 290 78 290 78 304.5 77.5 c 128,-1,28
 319 77 319 77 331 77 c 2,29,-1
 340 77 l 1,30,-1
 340 0 l 1,31,-1
 60 0 l 1,4,-1
550 0 m 1,32,-1
 550 77 l 1,33,-1
 559 77 l 2,34,35
 582 77 582 77 601.5 78 c 128,-1,36
 621 79 621 79 632.5 81.5 c 128,-1,37
 644 84 644 84 644 87 c 2,38,-1
 446 343 l 1,39,-1
 446 373 l 1,40,-1
 657 622 l 2,41,42
 658 626 658 626 646 628 c 128,-1,43
 634 630 634 630 614.5 631.5 c 128,-1,44
 595 633 595 633 573 633 c 2,45,-1
 564 633 l 1,46,-1
 564 710 l 1,47,-1
 820 710 l 1,48,-1
 820 633 l 1,49,-1
 789 633 l 2,50,51
 775 633 775 633 759 627 c 128,-1,52
 743 621 743 621 729 604 c 2,53,-1
 517 356 l 1,54,-1
 521 399 l 1,55,-1
 754 98 l 2,56,57
 761 89 761 89 772 84.5 c 128,-1,58
 783 80 783 80 796.5 78.5 c 128,-1,59
 810 77 810 77 822 77 c 2,60,-1
 840 77 l 1,61,-1
 840 0 l 1,62,-1
 550 0 l 1,32,-1
EndSplineSet
EndChar

StartChar: Kabashkcyr
Encoding: 1184 1184 308
Width: 940
GlyphClass: 2
Flags: W
AnchorPoint: "Anchor-0" 555 741 basechar 0
LayerCount: 2
Fore
SplineSet
610 0 m 1,0,-1
 610 77 l 1,1,-1
 619 77 l 2,2,3
 640 77 640 77 659 78 c 128,-1,4
 678 79 678 79 690.5 81.5 c 128,-1,5
 703 84 703 84 703 87 c 2,6,-1
 446 343 l 1,7,-1
 446 373 l 1,8,-1
 712 622 l 2,9,10
 712 626 712 626 700 628 c 128,-1,11
 688 630 688 630 670 631.5 c 128,-1,12
 652 633 652 633 633 633 c 2,13,-1
 624 633 l 1,14,-1
 624 710 l 1,15,-1
 884 710 l 1,16,-1
 884 633 l 1,17,-1
 857 633 l 2,18,19
 846 633 846 633 835 630.5 c 128,-1,20
 824 628 824 628 812.5 622 c 128,-1,21
 801 616 801 616 789 604 c 2,22,-1
 523 356 l 1,23,-1
 523 399 l 1,24,-1
 826 98 l 2,25,26
 835 89 835 89 845.5 84.5 c 128,-1,27
 856 80 856 80 867.5 78.5 c 128,-1,28
 879 77 879 77 892 77 c 2,29,-1
 910 77 l 1,30,-1
 910 0 l 1,31,-1
 610 0 l 1,0,-1
207 0 m 1,32,-1
 207 77 l 1,33,-1
 218 77 l 2,34,35
 249 77 249 77 272.5 84 c 128,-1,36
 296 91 296 91 296 113 c 2,37,-1
 296 633 l 1,38,-1
 256 633 l 2,39,40
 211 633 211 633 187 627 c 128,-1,41
 163 621 163 621 153.5 608.5 c 128,-1,42
 144 596 144 596 142 576 c 2,43,-1
 130 469 l 1,44,-1
 55 469 l 1,45,-1
 55 710 l 1,46,-1
 487 710 l 1,47,-1
 487 633 l 1,48,-1
 478 633 l 2,49,50
 462 633 462 633 442.5 632 c 128,-1,51
 423 631 423 631 409.5 629 c 128,-1,52
 396 627 396 627 396 623 c 2,53,-1
 396 87 l 2,54,55
 396 84 396 84 409.5 81.5 c 128,-1,56
 423 79 423 79 442.5 78 c 128,-1,57
 462 77 462 77 478 77 c 2,58,-1
 487 77 l 1,59,-1
 487 0 l 1,60,-1
 207 0 l 1,32,-1
EndSplineSet
EndChar

StartChar: Entailcyr
Encoding: 1186 1186 309
Width: 873
GlyphClass: 2
Flags: W
AnchorPoint: "Anchor-0" 437 741 basechar 0
LayerCount: 2
Fore
SplineSet
229 405 m 1,0,-1
 644 405 l 1,1,-1
 644 328 l 1,2,-1
 229 328 l 1,3,-1
 229 405 l 1,0,-1
60 0 m 1,4,-1
 60 77 l 1,5,-1
 71 77 l 2,6,7
 102 77 102 77 125.5 84 c 128,-1,8
 149 91 149 91 149 113 c 2,9,-1
 149 597 l 2,10,11
 149 619 149 619 125.5 626 c 128,-1,12
 102 633 102 633 71 633 c 2,13,-1
 60 633 l 1,14,-1
 60 710 l 1,15,-1
 345 710 l 1,16,-1
 345 634 l 1,17,-1
 336 634 l 2,18,19
 322 634 322 634 306.5 633 c 128,-1,20
 291 632 291 632 278 630.5 c 128,-1,21
 265 629 265 629 257 627.5 c 128,-1,22
 249 626 249 626 249 623 c 2,23,-1
 249 86 l 2,24,25
 249 84 249 84 257 82.5 c 128,-1,26
 265 81 265 81 278 79.5 c 128,-1,27
 291 78 291 78 306.5 77.5 c 128,-1,28
 322 77 322 77 336 77 c 2,29,-1
 345 77 l 1,30,-1
 345 0 l 1,31,-1
 60 0 l 1,4,-1
528 0 m 1,32,-1
 528 76 l 1,33,-1
 537 76 l 2,34,35
 551 76 551 76 566.5 77 c 128,-1,36
 582 78 582 78 595 79.5 c 128,-1,37
 608 81 608 81 616 82.5 c 128,-1,38
 624 84 624 84 624 87 c 2,39,-1
 624 624 l 2,40,41
 624 626 624 626 616 627.5 c 128,-1,42
 608 629 608 629 595 630.5 c 128,-1,43
 582 632 582 632 566.5 632.5 c 128,-1,44
 551 633 551 633 537 633 c 2,45,-1
 528 633 l 1,46,-1
 528 710 l 1,47,-1
 813 710 l 1,48,-1
 813 633 l 1,49,-1
 802 633 l 2,50,51
 771 633 771 633 748 626 c 128,-1,52
 725 619 725 619 725 597 c 2,53,-1
 725 0 l 1,54,-1
 528 0 l 1,32,-1
602 0 m 2,55,-1
 596 0 l 1,56,-1
 611 77 l 1,57,-1
 823 77 l 1,58,-1
 823 -189 l 1,59,-1
 748 -189 l 1,60,-1
 735 -52 l 2,61,62
 734 -35 734 -35 720.5 -23.5 c 128,-1,63
 707 -12 707 -12 678 -6 c 128,-1,64
 649 0 649 0 602 0 c 2,55,-1
EndSplineSet
EndChar

StartChar: Tetailcyr
Encoding: 1196 1196 311
Width: 739
GlyphClass: 2
Flags: W
AnchorPoint: "Anchor-0" 362 741 basechar 0
LayerCount: 2
Fore
SplineSet
319 113 m 2,0,-1
 319 633 l 1,1,-1
 256 633 l 2,2,3
 211 633 211 633 187 627 c 128,-1,4
 163 621 163 621 153.5 608.5 c 128,-1,5
 144 596 144 596 142 576 c 2,6,-1
 130 469 l 1,7,-1
 55 469 l 1,8,-1
 55 710 l 1,9,-1
 684 710 l 1,10,-1
 684 469 l 1,11,-1
 609 469 l 1,12,-1
 597 576 l 2,13,14
 595 596 595 596 586 608.5 c 128,-1,15
 577 621 577 621 552.5 627 c 128,-1,16
 528 633 528 633 483 633 c 2,17,-1
 420 633 l 1,18,-1
 420 0 l 1,19,-1
 213 0 l 1,20,-1
 213 77 l 1,21,-1
 233 77 l 2,22,23
 267 77 267 77 293 84 c 128,-1,24
 319 91 319 91 319 113 c 2,0,-1
311 0 m 2,25,-1
 292 0 l 1,26,-1
 314 77 l 1,27,-1
 532 77 l 1,28,-1
 532 -189 l 1,29,-1
 457 -189 l 1,30,-1
 444 -52 l 2,31,32
 443 -35 443 -35 429 -23.5 c 128,-1,33
 415 -12 415 -12 386.5 -6 c 128,-1,34
 358 0 358 0 311 0 c 2,25,-1
EndSplineSet
EndChar

StartChar: Ustraightstrokecyr
Encoding: 1200 1200 313
Width: 722
GlyphClass: 2
Flags: W
AnchorPoint: "Anchor-1" 361 0 basechar 0
AnchorPoint: "Anchor-0" 361 741 basechar 0
LayerCount: 2
Fore
SplineSet
173 274 m 1,0,-1
 556 274 l 1,1,-1
 556 197 l 1,2,-1
 173 197 l 1,3,-1
 173 274 l 1,0,-1
314 309 m 1,4,-1
 320 264 l 1,5,-1
 111 599 l 2,6,7
 102 614 102 614 92 621.5 c 128,-1,8
 82 629 82 629 70 631 c 128,-1,9
 58 633 58 633 43 633 c 2,10,-1
 30 633 l 1,11,-1
 30 710 l 1,12,-1
 282 710 l 1,13,-1
 282 633 l 1,14,-1
 265 633 l 2,15,16
 250 633 250 633 235 631.5 c 128,-1,17
 220 630 220 630 210.5 628 c 128,-1,18
 201 626 201 626 201 622 c 2,19,-1
 391 308 l 1,20,-1
 358 308 l 1,21,-1
 533 610 l 2,22,23
 533 617 533 617 522.5 622 c 128,-1,24
 512 627 512 627 498 630 c 128,-1,25
 484 633 484 633 473 633 c 2,26,-1
 462 633 l 1,27,-1
 462 710 l 1,28,-1
 692 710 l 1,29,-1
 692 633 l 1,30,-1
 679 633 l 2,31,32
 666 633 666 633 653 629 c 128,-1,33
 640 625 640 625 628.5 614.5 c 128,-1,34
 617 604 617 604 606 586 c 2,35,-1
 408 263 l 1,36,-1
 415 309 l 1,37,-1
 415 113 l 2,38,39
 415 91 415 91 439.5 84 c 128,-1,40
 464 77 464 77 499 77 c 2,41,-1
 520 77 l 1,42,-1
 520 0 l 1,43,-1
 209 0 l 1,44,-1
 209 77 l 1,45,-1
 230 77 l 2,46,47
 266 77 266 77 290 84 c 128,-1,48
 314 91 314 91 314 113 c 2,49,-1
 314 309 l 1,4,-1
EndSplineSet
EndChar

StartChar: Xatailcyr
Encoding: 1202 1202 314
Width: 772
GlyphClass: 2
Flags: W
AnchorPoint: "Anchor-0" 394 741 basechar 0
LayerCount: 2
Fore
SplineSet
44 633 m 1,0,-1
 44 710 l 1,1,-1
 326 710 l 1,2,-1
 326 633 l 1,3,-1
 309 633 l 2,4,5
 291 633 291 633 274.5 632 c 128,-1,6
 258 631 258 631 247 629 c 128,-1,7
 236 627 236 627 236 624 c 2,8,-1
 419 391 l 1,9,-1
 430 389 l 1,10,-1
 673 77 l 1,11,-1
 673 0 l 1,12,-1
 454 0 l 1,13,-1
 454 77 l 1,14,-1
 471 77 l 2,15,16
 489 77 489 77 506 78 c 128,-1,17
 523 79 523 79 534 81.5 c 128,-1,18
 545 84 545 84 545 87 c 2,19,-1
 348 338 l 1,20,-1
 338 341 l 1,21,-1
 136 599 l 2,22,23
 118 622 118 622 99.5 627.5 c 128,-1,24
 81 633 81 633 59 633 c 2,25,-1
 44 633 l 1,0,-1
30 0 m 1,26,-1
 30 77 l 1,27,-1
 50 77 l 2,28,29
 72 77 72 77 90 86.5 c 128,-1,30
 108 96 108 96 129 123 c 2,31,-1
 328 379 l 1,32,-1
 388 334 l 1,33,-1
 203 94 l 2,34,35
 203 90 203 90 214.5 86 c 128,-1,36
 226 82 226 82 242.5 79.5 c 128,-1,37
 259 77 259 77 273 77 c 2,38,-1
 292 77 l 1,39,-1
 292 0 l 1,40,-1
 30 0 l 1,26,-1
442 355 m 1,41,-1
 380 397 l 1,42,-1
 556 616 l 2,43,44
 556 621 556 621 544 625 c 128,-1,45
 532 629 532 629 515.5 631 c 128,-1,46
 499 633 499 633 484 633 c 2,47,-1
 469 633 l 1,48,-1
 469 710 l 1,49,-1
 727 710 l 1,50,-1
 727 633 l 1,51,-1
 712 633 l 2,52,53
 690 633 690 633 671.5 624.5 c 128,-1,54
 653 616 653 616 631 588 c 2,55,-1
 442 355 l 1,41,-1
541 0 m 2,56,-1
 535 0 l 1,57,-1
 550 77 l 1,58,-1
 762 77 l 1,59,-1
 762 -189 l 1,60,-1
 687 -189 l 1,61,-1
 674 -52 l 2,62,63
 673 -35 673 -35 659.5 -23.5 c 128,-1,64
 646 -12 646 -12 617 -6 c 128,-1,65
 588 0 588 0 541 0 c 2,56,-1
EndSplineSet
EndChar

StartChar: Chetailcyr
Encoding: 1206 1206 315
Width: 813
GlyphClass: 2
Flags: W
AnchorPoint: "Anchor-0" 398 741 basechar 0
LayerCount: 2
Fore
SplineSet
375 273 m 0,0,1
 284 273 284 273 230 295.5 c 128,-1,2
 176 318 176 318 152.5 368 c 128,-1,3
 129 418 129 418 129 500 c 2,4,-1
 129 597 l 2,5,6
 129 619 129 619 105.5 626 c 128,-1,7
 82 633 82 633 51 633 c 2,8,-1
 40 633 l 1,9,-1
 40 710 l 1,10,-1
 325 710 l 1,11,-1
 325 633 l 1,12,-1
 316 633 l 2,13,14
 297 633 297 633 277 632 c 128,-1,15
 257 631 257 631 243 629 c 128,-1,16
 229 627 229 627 229 623 c 2,17,-1
 229 505 l 2,18,19
 229 448 229 448 243 413.5 c 128,-1,20
 257 379 257 379 289 364.5 c 128,-1,21
 321 350 321 350 375 350 c 0,22,23
 434 350 434 350 495 362.5 c 128,-1,24
 556 375 556 375 611 410 c 1,25,-1
 611 332 l 1,26,27
 556 301 556 301 494.5 287 c 128,-1,28
 433 273 433 273 375 273 c 0,0,1
468 0 m 1,29,-1
 468 77 l 1,30,-1
 477 77 l 2,31,32
 496 77 496 77 516 78 c 128,-1,33
 536 79 536 79 550 81.5 c 128,-1,34
 564 84 564 84 564 87 c 2,35,-1
 564 623 l 2,36,37
 564 627 564 627 550 629 c 128,-1,38
 536 631 536 631 516 632 c 128,-1,39
 496 633 496 633 477 633 c 2,40,-1
 468 633 l 1,41,-1
 468 710 l 1,42,-1
 753 710 l 1,43,-1
 753 633 l 1,44,-1
 742 633 l 2,45,46
 711 633 711 633 688 626 c 128,-1,47
 665 619 665 619 665 597 c 2,48,-1
 665 0 l 1,49,-1
 468 0 l 1,29,-1
542 0 m 2,50,-1
 536 0 l 1,51,-1
 561 77 l 1,52,-1
 763 77 l 1,53,-1
 763 -189 l 1,54,-1
 688 -189 l 1,55,-1
 675 -52 l 2,56,57
 674 -35 674 -35 660.5 -23.5 c 128,-1,58
 647 -12 647 -12 618 -6 c 128,-1,59
 589 0 589 0 542 0 c 2,50,-1
EndSplineSet
EndChar

StartChar: Chevertcyr
Encoding: 1208 1208 316
Width: 833
GlyphClass: 2
Flags: W
AnchorPoint: "Anchor-0" 408 741 basechar 0
LayerCount: 2
Fore
SplineSet
488 0 m 1,0,-1
 488 77 l 1,1,-1
 497 77 l 2,2,3
 516 77 516 77 536 78 c 128,-1,4
 556 79 556 79 570 81.5 c 128,-1,5
 584 84 584 84 584 87 c 2,6,-1
 584 623 l 2,7,8
 584 627 584 627 570 629 c 128,-1,9
 556 631 556 631 536 632 c 128,-1,10
 516 633 516 633 497 633 c 2,11,-1
 488 633 l 1,12,-1
 488 710 l 1,13,-1
 773 710 l 1,14,-1
 773 633 l 1,15,-1
 762 633 l 2,16,17
 731 633 731 633 708 626 c 128,-1,18
 685 619 685 619 685 597 c 2,19,-1
 685 113 l 2,20,21
 685 91 685 91 708 84 c 128,-1,22
 731 77 731 77 762 77 c 2,23,-1
 773 77 l 1,24,-1
 773 0 l 1,25,-1
 488 0 l 1,0,-1
385 273 m 0,26,27
 291 273 291 273 234.5 295.5 c 128,-1,28
 178 318 178 318 153.5 368 c 128,-1,29
 129 418 129 418 129 500 c 2,30,-1
 129 597 l 2,31,32
 129 619 129 619 105.5 626 c 128,-1,33
 82 633 82 633 51 633 c 2,34,-1
 40 633 l 1,35,-1
 40 710 l 1,36,-1
 325 710 l 1,37,-1
 325 633 l 1,38,-1
 316 633 l 2,39,40
 297 633 297 633 277 632 c 128,-1,41
 257 631 257 631 243 629 c 128,-1,42
 229 627 229 627 229 623 c 2,43,-1
 229 505 l 2,44,45
 229 448 229 448 244 413.5 c 128,-1,46
 259 379 259 379 293.5 364.5 c 128,-1,47
 328 350 328 350 385 350 c 0,48,49
 446 350 446 350 510.5 362 c 128,-1,50
 575 374 575 374 631 410 c 1,51,-1
 631 332 l 1,52,53
 575 299 575 299 510 286 c 128,-1,54
 445 273 445 273 385 273 c 0,26,27
370 158 m 1,55,-1
 370 531 l 1,56,-1
 447 531 l 1,57,-1
 447 158 l 1,58,-1
 370 158 l 1,55,-1
EndSplineSet
EndChar

StartChar: Shhacyr
Encoding: 1210 1210 317
Width: 813
GlyphClass: 1
Flags: W
LayerCount: 2
Fore
SplineSet
345 710 m 1,0,-1
 345 633 l 1,1,-1
 336 633 l 2,2,3
 317 633 317 633 297 632 c 128,-1,4
 277 631 277 631 263 629 c 128,-1,5
 249 627 249 627 249 623 c 2,6,-1
 249 86 l 2,7,8
 249 84 249 84 263 81.5 c 128,-1,9
 277 79 277 79 297 78 c 128,-1,10
 317 77 317 77 336 77 c 2,11,-1
 345 77 l 1,12,-1
 345 0 l 1,13,-1
 60 0 l 1,14,-1
 60 77 l 1,15,-1
 71 77 l 2,16,17
 102 77 102 77 125.5 84 c 128,-1,18
 149 91 149 91 149 113 c 2,19,-1
 149 597 l 2,20,21
 149 619 149 619 125.5 626 c 128,-1,22
 102 633 102 633 71 633 c 2,23,-1
 60 633 l 1,24,-1
 60 710 l 1,25,-1
 345 710 l 1,0,-1
438 438 m 0,26,27
 528 438 528 438 582.5 415.5 c 128,-1,28
 637 393 637 393 661 343 c 128,-1,29
 685 293 685 293 685 210 c 2,30,-1
 685 113 l 2,31,32
 685 91 685 91 708 84 c 128,-1,33
 731 77 731 77 762 77 c 2,34,-1
 773 77 l 1,35,-1
 773 0 l 1,36,-1
 488 0 l 1,37,-1
 488 77 l 1,38,-1
 497 77 l 2,39,40
 516 77 516 77 536 78 c 128,-1,41
 556 79 556 79 570 81.5 c 128,-1,42
 584 84 584 84 584 87 c 2,43,-1
 584 205 l 2,44,45
 584 263 584 263 570 297 c 128,-1,46
 556 331 556 331 524 346 c 128,-1,47
 492 361 492 361 438 361 c 0,48,49
 380 361 380 361 318 348.5 c 128,-1,50
 256 336 256 336 202 303 c 1,51,-1
 202 381 l 1,52,53
 256 411 256 411 318 424.5 c 128,-1,54
 380 438 380 438 438 438 c 0,26,27
EndSplineSet
EndChar

StartChar: Obarcyr
Encoding: 1256 1256 320
Width: 832
GlyphClass: 2
Flags: W
AnchorPoint: "Anchor-1" 408 0 basechar 0
AnchorPoint: "Anchor-0" 408 741 basechar 0
LayerCount: 2
Fore
SplineSet
108 405 m 1,0,-1
 724 405 l 1,1,-1
 724 328 l 1,2,-1
 108 328 l 1,3,-1
 108 405 l 1,0,-1
416 -25 m 0,4,5
 337 -25 337 -25 272 0 c 128,-1,6
 207 25 207 25 160 73.5 c 128,-1,7
 113 122 113 122 87.5 192.5 c 128,-1,8
 62 263 62 263 62 355 c 0,9,10
 62 448 62 448 87.5 518.5 c 128,-1,11
 113 589 113 589 160 637.5 c 128,-1,12
 207 686 207 686 272 710.5 c 128,-1,13
 337 735 337 735 416 735 c 0,14,15
 496 735 496 735 561 710.5 c 128,-1,16
 626 686 626 686 672.5 637.5 c 128,-1,17
 719 589 719 589 744.5 518.5 c 128,-1,18
 770 448 770 448 770 355 c 0,19,20
 770 263 770 263 744.5 192.5 c 128,-1,21
 719 122 719 122 672.5 73.5 c 128,-1,22
 626 25 626 25 561 0 c 128,-1,23
 496 -25 496 -25 416 -25 c 0,4,5
416 54 m 0,24,25
 477 54 477 54 523 72.5 c 128,-1,26
 569 91 569 91 600 128 c 128,-1,27
 631 165 631 165 647 221 c 128,-1,28
 663 277 663 277 663 355 c 0,29,30
 663 432 663 432 647 489 c 128,-1,31
 631 546 631 546 600 583 c 128,-1,32
 569 620 569 620 523 638 c 128,-1,33
 477 656 477 656 416 656 c 0,34,35
 356 656 356 656 309.5 638 c 128,-1,36
 263 620 263 620 232 583 c 128,-1,37
 201 546 201 546 185.5 489 c 128,-1,38
 170 432 170 432 170 355 c 256,39,40
 170 278 170 278 185.5 221.5 c 128,-1,41
 201 165 201 165 232.5 128 c 128,-1,42
 264 91 264 91 310 72.5 c 128,-1,43
 356 54 356 54 416 54 c 0,24,25
EndSplineSet
EndChar

StartChar: Hastrokecyr
Encoding: 1278 1278 321
Width: 772
GlyphClass: 2
Flags: W
AnchorPoint: "Anchor-1" 363 0 basechar 0
AnchorPoint: "Anchor-0" 394 741 basechar 0
LayerCount: 2
Fore
SplineSet
176 407 m 1,0,-1
 592 407 l 1,1,-1
 592 330 l 1,2,-1
 176 330 l 1,3,-1
 176 407 l 1,0,-1
44 633 m 1,4,-1
 44 710 l 1,5,-1
 326 710 l 1,6,-1
 326 633 l 1,7,-1
 309 633 l 2,8,9
 291 633 291 633 274.5 632 c 128,-1,10
 258 631 258 631 247 629 c 128,-1,11
 236 627 236 627 236 624 c 2,12,-1
 419 391 l 1,13,-1
 429 389 l 1,14,-1
 646 111 l 2,15,16
 663 89 663 89 681 83 c 128,-1,17
 699 77 699 77 721 77 c 2,18,-1
 742 77 l 1,19,-1
 742 0 l 1,20,-1
 454 0 l 1,21,-1
 454 77 l 1,22,-1
 471 77 l 2,23,24
 489 77 489 77 506 78 c 128,-1,25
 523 79 523 79 534 81.5 c 128,-1,26
 545 84 545 84 545 87 c 2,27,-1
 348 338 l 1,28,-1
 339 341 l 1,29,-1
 136 599 l 2,30,31
 118 622 118 622 99.5 627.5 c 128,-1,32
 81 633 81 633 59 633 c 2,33,-1
 44 633 l 1,4,-1
30 0 m 1,34,-1
 30 77 l 1,35,-1
 50 77 l 2,36,37
 72 77 72 77 90 86.5 c 128,-1,38
 108 96 108 96 129 123 c 2,39,-1
 329 379 l 1,40,-1
 388 334 l 1,41,-1
 203 94 l 2,42,43
 203 90 203 90 214.5 86 c 128,-1,44
 226 82 226 82 242.5 79.5 c 128,-1,45
 259 77 259 77 273 77 c 2,46,-1
 292 77 l 1,47,-1
 292 0 l 1,48,-1
 30 0 l 1,34,-1
441 355 m 1,49,-1
 380 397 l 1,50,-1
 556 616 l 2,51,52
 556 621 556 621 544 625 c 128,-1,53
 532 629 532 629 515.5 631 c 128,-1,54
 499 633 499 633 484 633 c 2,55,-1
 469 633 l 1,56,-1
 469 710 l 1,57,-1
 727 710 l 1,58,-1
 727 633 l 1,59,-1
 712 633 l 2,60,61
 690 633 690 633 671.5 624.5 c 128,-1,62
 653 616 653 616 631 588 c 2,63,-1
 441 355 l 1,49,-1
EndSplineSet
EndChar

StartChar: a
Encoding: 97 97 322
Width: 623
GlyphClass: 2
Flags: W
AnchorPoint: "Anchor-2" 468 -10 basechar 0
AnchorPoint: "Anchor-1" 321 0 basechar 0
AnchorPoint: "Anchor-0" 289 565 basechar 0
LayerCount: 2
Fore
SplineSet
429 346 m 1,0,-1
 429 282 l 1,1,2
 359 271 359 271 311 259.5 c 128,-1,3
 263 248 263 248 233.5 235.5 c 128,-1,4
 204 223 204 223 189.5 208.5 c 128,-1,5
 175 194 175 194 170 176.5 c 128,-1,6
 165 159 165 159 165 138 c 0,7,8
 165 108 165 108 175.5 91 c 128,-1,9
 186 74 186 74 205.5 67 c 128,-1,10
 225 60 225 60 251 60 c 0,11,12
 280 60 280 60 307 73 c 128,-1,13
 334 86 334 86 363.5 116 c 128,-1,14
 393 146 393 146 427 196 c 1,15,-1
 429 133 l 1,16,17
 404 88 404 88 375.5 55.5 c 128,-1,18
 347 23 347 23 313.5 5.5 c 128,-1,19
 280 -12 280 -12 238 -12 c 0,20,21
 184 -12 184 -12 145.5 4.5 c 128,-1,22
 107 21 107 21 87 54.5 c 128,-1,23
 67 88 67 88 67 138 c 0,24,25
 67 180 67 180 84 211.5 c 128,-1,26
 101 243 101 243 141.5 267 c 128,-1,27
 182 291 182 291 252 310.5 c 128,-1,28
 322 330 322 330 429 346 c 1,0,-1
442 0 m 1,29,-1
 418 124 l 1,30,-1
 418 133 l 1,31,-1
 418 409 l 2,32,33
 418 438 418 438 409.5 457.5 c 128,-1,34
 401 477 401 477 376.5 487 c 128,-1,35
 352 497 352 497 302 497 c 0,36,37
 234 497 234 497 188 483.5 c 128,-1,38
 142 470 142 470 124 458 c 1,39,40
 125 464 125 464 131 473 c 128,-1,41
 137 482 137 482 146.5 491.5 c 128,-1,42
 156 501 156 501 168 507.5 c 128,-1,43
 180 514 180 514 194 514 c 1,44,-1
 194 385 l 1,45,-1
 97 385 l 1,46,-1
 97 526 l 1,47,48
 111 536 111 536 138.5 547 c 128,-1,49
 166 558 166 558 207.5 566.5 c 128,-1,50
 249 575 249 575 304 575 c 0,51,52
 351 575 351 575 389.5 567 c 128,-1,53
 428 559 428 559 456 542 c 128,-1,54
 484 525 484 525 499.5 497.5 c 128,-1,55
 515 470 515 470 515 431 c 2,56,-1
 515 128 l 2,57,58
 515 111 515 111 522.5 101.5 c 128,-1,59
 530 92 530 92 546.5 86 c 128,-1,60
 563 80 563 80 588 75 c 2,61,-1
 598 73 l 1,62,-1
 598 0 l 1,63,-1
 442 0 l 1,29,-1
EndSplineSet
Substitution2: "'ss06' Style Set 6 lookup 66 subtable" a.alt
EndChar

StartChar: aogonek
Encoding: 261 261 331
Width: 623
GlyphClass: 1
Flags: W
LayerCount: 2
Fore
SplineSet
275 -162 m 0,0,1
 275 -138 275 -138 283.5 -119.5 c 128,-1,2
 292 -101 292 -101 313.5 -81 c 128,-1,3
 335 -61 335 -61 373.5 -33 c 128,-1,4
 412 -5 412 -5 471 37 c 1,5,-1
 503 2 l 1,6,7
 467 -30 467 -30 443 -53 c 128,-1,8
 419 -76 419 -76 406 -92 c 128,-1,9
 393 -108 393 -108 387.5 -121.5 c 128,-1,10
 382 -135 382 -135 382 -150 c 0,11,12
 382 -167 382 -167 393.5 -177 c 128,-1,13
 405 -187 405 -187 427 -187 c 0,14,15
 458 -187 458 -187 479 -172.5 c 128,-1,16
 500 -158 500 -158 513 -142 c 1,17,-1
 555 -182 l 1,18,19
 529 -213 529 -213 494 -232.5 c 128,-1,20
 459 -252 459 -252 404 -252 c 256,21,22
 349 -252 349 -252 312 -230.5 c 128,-1,23
 275 -209 275 -209 275 -162 c 0,0,1
598 0 m 1,24,-1
 444 0 l 1,25,-1
 420 124 l 1,26,-1
 415 133 l 1,27,-1
 415 416 l 2,28,29
 415 444 415 444 407 463 c 128,-1,30
 399 482 399 482 374.5 491.5 c 128,-1,31
 350 501 350 501 302 501 c 0,32,33
 232 501 232 501 185.5 489.5 c 128,-1,34
 139 478 139 478 121 466 c 1,35,36
 122 471 122 471 128 479 c 128,-1,37
 134 487 134 487 143.5 495 c 128,-1,38
 153 503 153 503 165 508.5 c 128,-1,39
 177 514 177 514 191 514 c 1,40,-1
 191 385 l 1,41,-1
 94 385 l 1,42,-1
 94 526 l 1,43,44
 110 538 110 538 138 549 c 128,-1,45
 166 560 166 560 207.5 567.5 c 128,-1,46
 249 575 249 575 304 575 c 0,47,48
 350 575 350 575 388.5 567 c 128,-1,49
 427 559 427 559 454.5 542 c 128,-1,50
 482 525 482 525 497 497.5 c 128,-1,51
 512 470 512 470 512 431 c 2,52,-1
 512 120 l 2,53,54
 512 106 512 106 519.5 98 c 128,-1,55
 527 90 527 90 544 85.5 c 128,-1,56
 561 81 561 81 588 75 c 2,57,-1
 598 73 l 1,58,-1
 598 0 l 1,24,-1
63 138 m 0,59,60
 63 182 63 182 79.5 214.5 c 128,-1,61
 96 247 96 247 136 270.5 c 128,-1,62
 176 294 176 294 247 313 c 128,-1,63
 318 332 318 332 426 348 c 1,64,-1
 426 283 l 1,65,66
 355 272 355 272 307 260.5 c 128,-1,67
 259 249 259 249 230 236.5 c 128,-1,68
 201 224 201 224 185.5 209.5 c 128,-1,69
 170 195 170 195 165 177 c 128,-1,70
 160 159 160 159 160 138 c 0,71,72
 160 108 160 108 171.5 91 c 128,-1,73
 183 74 183 74 203.5 67 c 128,-1,74
 224 60 224 60 251 60 c 0,75,76
 280 60 280 60 306.5 72 c 128,-1,77
 333 84 333 84 362 112.5 c 128,-1,78
 391 141 391 141 424 189 c 1,79,-1
 426 126 l 1,80,81
 403 82 403 82 374 51 c 128,-1,82
 345 20 345 20 310.5 4 c 128,-1,83
 276 -12 276 -12 234 -12 c 0,84,85
 180 -12 180 -12 141.5 4.5 c 128,-1,86
 103 21 103 21 83 54.5 c 128,-1,87
 63 88 63 88 63 138 c 0,59,60
EndSplineSet
Substitution2: "'ss06' Style Set 6 lookup 66 subtable" aogonek.alt
EndChar

StartChar: acaron
Encoding: 462 462 332
Width: 623
GlyphClass: 1
Flags: W
LayerCount: 2
Fore
SplineSet
266 651 m 1,0,-1
 334 651 l 1,1,-1
 473 824 l 1,2,-1
 473 844 l 1,3,-1
 419 844 l 1,4,-1
 233 692 l 1,5,-1
 369 697 l 1,6,-1
 186 844 l 1,7,-1
 126 844 l 1,8,-1
 126 824 l 1,9,-1
 266 651 l 1,0,-1
429 346 m 1,10,-1
 429 282 l 1,11,12
 359 271 359 271 311 259.5 c 128,-1,13
 263 248 263 248 233.5 235.5 c 128,-1,14
 204 223 204 223 189.5 208.5 c 128,-1,15
 175 194 175 194 170 176.5 c 128,-1,16
 165 159 165 159 165 138 c 0,17,18
 165 108 165 108 175.5 91 c 128,-1,19
 186 74 186 74 205.5 67 c 128,-1,20
 225 60 225 60 251 60 c 0,21,22
 280 60 280 60 307 73 c 128,-1,23
 334 86 334 86 363.5 116 c 128,-1,24
 393 146 393 146 427 196 c 1,25,-1
 429 133 l 1,26,27
 404 88 404 88 375.5 55.5 c 128,-1,28
 347 23 347 23 313.5 5.5 c 128,-1,29
 280 -12 280 -12 238 -12 c 0,30,31
 184 -12 184 -12 145.5 4.5 c 128,-1,32
 107 21 107 21 87 54.5 c 128,-1,33
 67 88 67 88 67 138 c 0,34,35
 67 180 67 180 84 211.5 c 128,-1,36
 101 243 101 243 141.5 267 c 128,-1,37
 182 291 182 291 252 310.5 c 128,-1,38
 322 330 322 330 429 346 c 1,10,-1
442 0 m 1,39,-1
 418 124 l 1,40,-1
 418 133 l 1,41,-1
 418 409 l 2,42,43
 418 438 418 438 409.5 457.5 c 128,-1,44
 401 477 401 477 376.5 487 c 128,-1,45
 352 497 352 497 302 497 c 0,46,47
 234 497 234 497 188 483.5 c 128,-1,48
 142 470 142 470 124 458 c 1,49,50
 125 464 125 464 131 473 c 128,-1,51
 137 482 137 482 146.5 491.5 c 128,-1,52
 156 501 156 501 168 507.5 c 128,-1,53
 180 514 180 514 194 514 c 1,54,-1
 194 385 l 1,55,-1
 97 385 l 1,56,-1
 97 526 l 1,57,58
 111 536 111 536 138.5 547 c 128,-1,59
 166 558 166 558 207.5 566.5 c 128,-1,60
 249 575 249 575 304 575 c 0,61,62
 351 575 351 575 389.5 567 c 128,-1,63
 428 559 428 559 456 542 c 128,-1,64
 484 525 484 525 499.5 497.5 c 128,-1,65
 515 470 515 470 515 431 c 2,66,-1
 515 128 l 2,67,68
 515 111 515 111 522.5 101.5 c 128,-1,69
 530 92 530 92 546.5 86 c 128,-1,70
 563 80 563 80 588 75 c 2,71,-1
 598 73 l 1,72,-1
 598 0 l 1,73,-1
 442 0 l 1,39,-1
EndSplineSet
Substitution2: "'ss06' Style Set 6 lookup 66 subtable" acaron.alt
EndChar

StartChar: adblgrave
Encoding: 513 513 334
Width: 623
GlyphClass: 1
Flags: W
LayerCount: 2
Fore
SplineSet
412 807 m 2,0,-1
 444 692 l 1,1,-1
 442 661 l 1,2,-1
 404 661 l 1,3,-1
 322 745 l 2,4,5
 304 764 304 764 295 781 c 128,-1,6
 286 798 286 798 286 817 c 0,7,8
 286 840 286 840 300.5 855.5 c 128,-1,9
 315 871 315 871 340 871 c 0,10,11
 369 871 369 871 387 853 c 128,-1,12
 405 835 405 835 412 807 c 2,0,-1
211 807 m 2,13,-1
 242 692 l 1,14,-1
 242 661 l 1,15,-1
 203 661 l 1,16,-1
 121 745 l 2,17,18
 103 764 103 764 94 781 c 128,-1,19
 85 798 85 798 85 817 c 0,20,21
 85 840 85 840 99.5 855.5 c 128,-1,22
 114 871 114 871 139 871 c 0,23,24
 168 871 168 871 186 853 c 128,-1,25
 204 835 204 835 211 807 c 2,13,-1
429 346 m 1,26,-1
 429 282 l 1,27,28
 359 271 359 271 311 259.5 c 128,-1,29
 263 248 263 248 233.5 235.5 c 128,-1,30
 204 223 204 223 189.5 208.5 c 128,-1,31
 175 194 175 194 170 176.5 c 128,-1,32
 165 159 165 159 165 138 c 0,33,34
 165 108 165 108 175.5 91 c 128,-1,35
 186 74 186 74 205.5 67 c 128,-1,36
 225 60 225 60 251 60 c 0,37,38
 280 60 280 60 307 73 c 128,-1,39
 334 86 334 86 363.5 116 c 128,-1,40
 393 146 393 146 427 196 c 1,41,-1
 429 133 l 1,42,43
 404 88 404 88 375.5 55.5 c 128,-1,44
 347 23 347 23 313.5 5.5 c 128,-1,45
 280 -12 280 -12 238 -12 c 0,46,47
 184 -12 184 -12 145.5 4.5 c 128,-1,48
 107 21 107 21 87 54.5 c 128,-1,49
 67 88 67 88 67 138 c 0,50,51
 67 180 67 180 84 211.5 c 128,-1,52
 101 243 101 243 141.5 267 c 128,-1,53
 182 291 182 291 252 310.5 c 128,-1,54
 322 330 322 330 429 346 c 1,26,-1
442 0 m 1,55,-1
 418 124 l 1,56,-1
 418 133 l 1,57,-1
 418 409 l 2,58,59
 418 438 418 438 409.5 457.5 c 128,-1,60
 401 477 401 477 376.5 487 c 128,-1,61
 352 497 352 497 302 497 c 0,62,63
 234 497 234 497 188 483.5 c 128,-1,64
 142 470 142 470 124 458 c 1,65,66
 125 464 125 464 131 473 c 128,-1,67
 137 482 137 482 146.5 491.5 c 128,-1,68
 156 501 156 501 168 507.5 c 128,-1,69
 180 514 180 514 194 514 c 1,70,-1
 194 385 l 1,71,-1
 97 385 l 1,72,-1
 97 526 l 1,73,74
 111 536 111 536 138.5 547 c 128,-1,75
 166 558 166 558 207.5 566.5 c 128,-1,76
 249 575 249 575 304 575 c 0,77,78
 351 575 351 575 389.5 567 c 128,-1,79
 428 559 428 559 456 542 c 128,-1,80
 484 525 484 525 499.5 497.5 c 128,-1,81
 515 470 515 470 515 431 c 2,82,-1
 515 128 l 2,83,84
 515 111 515 111 522.5 101.5 c 128,-1,85
 530 92 530 92 546.5 86 c 128,-1,86
 563 80 563 80 588 75 c 2,87,-1
 598 73 l 1,88,-1
 598 0 l 1,89,-1
 442 0 l 1,55,-1
EndSplineSet
Substitution2: "'ss06' Style Set 6 lookup 66 subtable" adblgrave.alt
EndChar

StartChar: ainvertedbreve
Encoding: 515 515 335
Width: 623
GlyphClass: 1
Flags: W
LayerCount: 2
Fore
SplineSet
294 833 m 256,0,1
 237 833 237 833 200.5 817.5 c 128,-1,2
 164 802 164 802 147 765.5 c 128,-1,3
 130 729 130 729 130 665 c 1,4,-1
 208 665 l 1,5,6
 210 706 210 706 216 724.5 c 128,-1,7
 222 743 222 743 239.5 749 c 128,-1,8
 257 755 257 755 291 755 c 0,9,10
 326 755 326 755 343.5 749 c 128,-1,11
 361 743 361 743 367.5 724.5 c 128,-1,12
 374 706 374 706 375 665 c 1,13,-1
 458 665 l 1,14,15
 459 729 459 729 441.5 765.5 c 128,-1,16
 424 802 424 802 387.5 817.5 c 128,-1,17
 351 833 351 833 294 833 c 256,0,1
429 346 m 1,18,-1
 429 282 l 1,19,20
 359 271 359 271 311 259.5 c 128,-1,21
 263 248 263 248 233.5 235.5 c 128,-1,22
 204 223 204 223 189.5 208.5 c 128,-1,23
 175 194 175 194 170 176.5 c 128,-1,24
 165 159 165 159 165 138 c 0,25,26
 165 108 165 108 175.5 91 c 128,-1,27
 186 74 186 74 205.5 67 c 128,-1,28
 225 60 225 60 251 60 c 0,29,30
 280 60 280 60 307 73 c 128,-1,31
 334 86 334 86 363.5 116 c 128,-1,32
 393 146 393 146 427 196 c 1,33,-1
 429 133 l 1,34,35
 404 88 404 88 375.5 55.5 c 128,-1,36
 347 23 347 23 313.5 5.5 c 128,-1,37
 280 -12 280 -12 238 -12 c 0,38,39
 184 -12 184 -12 145.5 4.5 c 128,-1,40
 107 21 107 21 87 54.5 c 128,-1,41
 67 88 67 88 67 138 c 0,42,43
 67 180 67 180 84 211.5 c 128,-1,44
 101 243 101 243 141.5 267 c 128,-1,45
 182 291 182 291 252 310.5 c 128,-1,46
 322 330 322 330 429 346 c 1,18,-1
442 0 m 1,47,-1
 418 124 l 1,48,-1
 418 133 l 1,49,-1
 418 409 l 2,50,51
 418 438 418 438 409.5 457.5 c 128,-1,52
 401 477 401 477 376.5 487 c 128,-1,53
 352 497 352 497 302 497 c 0,54,55
 234 497 234 497 188 483.5 c 128,-1,56
 142 470 142 470 124 458 c 1,57,58
 125 464 125 464 131 473 c 128,-1,59
 137 482 137 482 146.5 491.5 c 128,-1,60
 156 501 156 501 168 507.5 c 128,-1,61
 180 514 180 514 194 514 c 1,62,-1
 194 385 l 1,63,-1
 97 385 l 1,64,-1
 97 526 l 1,65,66
 111 536 111 536 138.5 547 c 128,-1,67
 166 558 166 558 207.5 566.5 c 128,-1,68
 249 575 249 575 304 575 c 0,69,70
 351 575 351 575 389.5 567 c 128,-1,71
 428 559 428 559 456 542 c 128,-1,72
 484 525 484 525 499.5 497.5 c 128,-1,73
 515 470 515 470 515 431 c 2,74,-1
 515 128 l 2,75,76
 515 111 515 111 522.5 101.5 c 128,-1,77
 530 92 530 92 546.5 86 c 128,-1,78
 563 80 563 80 588 75 c 2,79,-1
 598 73 l 1,80,-1
 598 0 l 1,81,-1
 442 0 l 1,47,-1
EndSplineSet
Substitution2: "'ss06' Style Set 6 lookup 66 subtable" ainvertedbreve.alt
EndChar

StartChar: b
Encoding: 98 98 348
Width: 695
GlyphClass: 2
Flags: W
AnchorPoint: "Anchor-1" 349 0 basechar 0
AnchorPoint: "Anchor-0" 329 755 basechar 0
LayerCount: 2
Fore
SplineSet
390 -13 m 0,0,1
 342 -13 342 -13 304 5.5 c 128,-1,2
 266 24 266 24 235.5 57.5 c 128,-1,3
 205 91 205 91 180 136 c 1,4,-1
 186 193 l 1,5,6
 215 152 215 152 244.5 124 c 128,-1,7
 274 96 274 96 307.5 82 c 128,-1,8
 341 68 341 68 383 68 c 0,9,10
 422 68 422 68 452 81.5 c 128,-1,11
 482 95 482 95 502.5 122 c 128,-1,12
 523 149 523 149 533.5 189.5 c 128,-1,13
 544 230 544 230 544 285 c 0,14,15
 544 337 544 337 535 376 c 128,-1,16
 526 415 526 415 507.5 441.5 c 128,-1,17
 489 468 489 468 460 481 c 128,-1,18
 431 494 431 494 391 494 c 0,19,20
 347 494 347 494 311.5 481.5 c 128,-1,21
 276 469 276 469 245 442.5 c 128,-1,22
 214 416 214 416 183 374 c 1,23,-1
 180 428 l 1,24,25
 206 473 206 473 237.5 506 c 128,-1,26
 269 539 269 539 309.5 557 c 128,-1,27
 350 575 350 575 402 575 c 0,28,29
 483 575 483 575 537 538 c 128,-1,30
 591 501 591 501 618 436 c 128,-1,31
 645 371 645 371 645 285 c 0,32,33
 645 200 645 200 616 132.5 c 128,-1,34
 587 65 587 65 530 26 c 128,-1,35
 473 -13 473 -13 390 -13 c 0,0,1
104 660 m 2,36,37
 104 675 104 675 95 683 c 128,-1,38
 86 691 86 691 69.5 696 c 128,-1,39
 53 701 53 701 30 705 c 2,40,-1
 20 707 l 1,41,-1
 20 780 l 1,42,-1
 200 780 l 1,43,-1
 200 121 l 1,44,-1
 200 121 l 1,45,-1
 171 -21 l 1,46,-1
 104 -21 l 1,47,-1
 104 660 l 2,36,37
EndSplineSet
EndChar

StartChar: c
Encoding: 99 99 349
Width: 593
GlyphClass: 2
Flags: W
AnchorPoint: "Anchor-1" 328 0 basechar 0
AnchorPoint: "Anchor-0" 317 565 basechar 0
LayerCount: 2
Fore
SplineSet
335 66 m 0,0,1
 378 66 378 66 407 76.5 c 128,-1,2
 436 87 436 87 457.5 108 c 128,-1,3
 479 129 479 129 496 158 c 1,4,-1
 553 113 l 1,5,6
 535 74 535 74 502 45.5 c 128,-1,7
 469 17 469 17 426 2 c 128,-1,8
 383 -13 383 -13 334 -13 c 0,9,10
 244 -13 244 -13 180.5 22 c 128,-1,11
 117 57 117 57 83.5 123 c 128,-1,12
 50 189 50 189 50 282 c 256,13,14
 50 375 50 375 83.5 440.5 c 128,-1,15
 117 506 117 506 180.5 540.5 c 128,-1,16
 244 575 244 575 334 575 c 0,17,18
 389 575 389 575 429.5 569 c 128,-1,19
 470 563 470 563 496 555 c 128,-1,20
 522 547 522 547 533 541 c 1,21,-1
 533 362 l 1,22,-1
 430 362 l 1,23,-1
 430 506 l 1,24,25
 440 506 440 506 450 501 c 128,-1,26
 460 496 460 496 468 488 c 128,-1,27
 476 480 476 480 481.5 473.5 c 128,-1,28
 487 467 487 467 488 465 c 1,29,30
 463 477 463 477 424 486.5 c 128,-1,31
 385 496 385 496 335 496 c 0,32,33
 270 496 270 496 229.5 472 c 128,-1,34
 189 448 189 448 170.5 400.5 c 128,-1,35
 152 353 152 353 152 282 c 0,36,37
 152 226 152 226 162 185 c 128,-1,38
 172 144 172 144 193.5 117.5 c 128,-1,39
 215 91 215 91 250 78.5 c 128,-1,40
 285 66 285 66 335 66 c 0,0,1
EndSplineSet
EndChar

StartChar: ccaron
Encoding: 269 269 354
Width: 593
GlyphClass: 1
Flags: W
LayerCount: 2
Fore
SplineSet
284 651 m 1,0,-1
 352 651 l 1,1,-1
 491 824 l 1,2,-1
 491 844 l 1,3,-1
 437 844 l 1,4,-1
 251 692 l 1,5,-1
 387 697 l 1,6,-1
 204 844 l 1,7,-1
 144 844 l 1,8,-1
 144 824 l 1,9,-1
 284 651 l 1,0,-1
335 66 m 0,10,11
 378 66 378 66 407 76.5 c 128,-1,12
 436 87 436 87 457.5 108 c 128,-1,13
 479 129 479 129 496 158 c 1,14,-1
 553 113 l 1,15,16
 535 74 535 74 502 45.5 c 128,-1,17
 469 17 469 17 426 2 c 128,-1,18
 383 -13 383 -13 334 -13 c 0,19,20
 244 -13 244 -13 180.5 22 c 128,-1,21
 117 57 117 57 83.5 123 c 128,-1,22
 50 189 50 189 50 282 c 256,23,24
 50 375 50 375 83.5 440.5 c 128,-1,25
 117 506 117 506 180.5 540.5 c 128,-1,26
 244 575 244 575 334 575 c 0,27,28
 389 575 389 575 429.5 569 c 128,-1,29
 470 563 470 563 496 555 c 128,-1,30
 522 547 522 547 533 541 c 1,31,-1
 533 362 l 1,32,-1
 430 362 l 1,33,-1
 430 506 l 1,34,35
 440 506 440 506 450 501 c 128,-1,36
 460 496 460 496 468 488 c 128,-1,37
 476 480 476 480 481.5 473.5 c 128,-1,38
 487 467 487 467 488 465 c 1,39,40
 463 477 463 477 424 486.5 c 128,-1,41
 385 496 385 496 335 496 c 0,42,43
 270 496 270 496 229.5 472 c 128,-1,44
 189 448 189 448 170.5 400.5 c 128,-1,45
 152 353 152 353 152 282 c 0,46,47
 152 226 152 226 162 185 c 128,-1,48
 172 144 172 144 193.5 117.5 c 128,-1,49
 215 91 215 91 250 78.5 c 128,-1,50
 285 66 285 66 335 66 c 0,10,11
EndSplineSet
EndChar

StartChar: d
Encoding: 100 100 356
Width: 705
GlyphClass: 2
Flags: W
AnchorPoint: "Anchor-2" 668 735 basechar 0
AnchorPoint: "Anchor-1" 329 0 basechar 0
LayerCount: 2
Fore
SplineSet
592 120 m 2,0,1
 592 98 592 98 612 90.5 c 128,-1,2
 632 83 632 83 665 75 c 2,3,-1
 675 73 l 1,4,-1
 675 0 l 1,5,-1
 524 0 l 1,6,-1
 500 129 l 1,7,-1
 495 121 l 1,8,-1
 495 660 l 2,9,10
 495 675 495 675 486 682.5 c 128,-1,11
 477 690 477 690 459 695 c 128,-1,12
 441 700 441 700 414 705 c 2,13,-1
 404 707 l 1,14,-1
 404 780 l 1,15,-1
 592 780 l 1,16,-1
 592 120 l 2,0,1
305 575 m 0,17,18
 353 575 353 575 391 556.5 c 128,-1,19
 429 538 429 538 459.5 505 c 128,-1,20
 490 472 490 472 515 426 c 1,21,-1
 509 369 l 1,22,23
 480 411 480 411 450.5 438.5 c 128,-1,24
 421 466 421 466 387.5 480 c 128,-1,25
 354 494 354 494 312 494 c 0,26,27
 273 494 273 494 243 481 c 128,-1,28
 213 468 213 468 193 441 c 128,-1,29
 173 414 173 414 162.5 373 c 128,-1,30
 152 332 152 332 152 277 c 0,31,32
 152 226 152 226 161 186.5 c 128,-1,33
 170 147 170 147 188 121 c 128,-1,34
 206 95 206 95 235 81.5 c 128,-1,35
 264 68 264 68 304 68 c 0,36,37
 348 68 348 68 383.5 80.5 c 128,-1,38
 419 93 419 93 450.5 120 c 128,-1,39
 482 147 482 147 512 188 c 1,40,-1
 515 134 l 1,41,42
 489 90 489 90 457.5 56.5 c 128,-1,43
 426 23 426 23 385.5 5 c 128,-1,44
 345 -13 345 -13 293 -13 c 0,45,46
 212 -13 212 -13 158 24 c 128,-1,47
 104 61 104 61 77 126.5 c 128,-1,48
 50 192 50 192 50 277 c 0,49,50
 50 363 50 363 79 430 c 128,-1,51
 108 497 108 497 165 536 c 128,-1,52
 222 575 222 575 305 575 c 0,17,18
EndSplineSet
EndChar

StartChar: e
Encoding: 101 101 360
Width: 603
GlyphClass: 2
Flags: W
AnchorPoint: "Anchor-2" 477 1 basechar 0
AnchorPoint: "Anchor-1" 331 0 basechar 0
AnchorPoint: "Anchor-0" 308 565 basechar 0
LayerCount: 2
Fore
SplineSet
148 276 m 0,0,1
 148 213 148 213 163 172 c 128,-1,2
 178 131 178 131 203.5 108 c 128,-1,3
 229 85 229 85 262.5 75.5 c 128,-1,4
 296 66 296 66 333 66 c 0,5,6
 376 66 376 66 406 77.5 c 128,-1,7
 436 89 436 89 457.5 110.5 c 128,-1,8
 479 132 479 132 497 160 c 1,9,-1
 556 116 l 1,10,11
 537 78 537 78 502.5 48.5 c 128,-1,12
 468 19 468 19 423.5 3 c 128,-1,13
 379 -13 379 -13 329 -13 c 0,14,15
 250 -13 250 -13 187 19.5 c 128,-1,16
 124 52 124 52 87 116.5 c 128,-1,17
 50 181 50 181 50 276 c 0,18,19
 50 367 50 367 82.5 434 c 128,-1,20
 115 501 115 501 174 538 c 128,-1,21
 233 575 233 575 312 575 c 0,22,23
 374 575 374 575 419 554.5 c 128,-1,24
 464 534 464 534 493 493.5 c 128,-1,25
 522 453 522 453 537 391.5 c 128,-1,26
 552 330 552 330 553 248 c 1,27,-1
 109 248 l 1,28,-1
 109 323 l 1,29,-1
 481 323 l 1,30,-1
 456 293 l 1,31,32
 453 352 453 352 444 391.5 c 128,-1,33
 435 431 435 431 418.5 454 c 128,-1,34
 402 477 402 477 376 486.5 c 128,-1,35
 350 496 350 496 312 496 c 0,36,37
 275 496 275 496 244.5 484 c 128,-1,38
 214 472 214 472 192.5 445.5 c 128,-1,39
 171 419 171 419 159.5 377 c 128,-1,40
 148 335 148 335 148 276 c 0,0,1
EndSplineSet
EndChar

StartChar: eogonek
Encoding: 281 281 368
Width: 603
GlyphClass: 1
Flags: W
LayerCount: 2
Fore
SplineSet
414 42 m 1,0,-1
 415 0 l 1,1,2
 395 -6 395 -6 374 -9.5 c 128,-1,3
 353 -13 353 -13 330 -13 c 0,4,5
 251 -13 251 -13 187.5 19.5 c 128,-1,6
 124 52 124 52 87 116.5 c 128,-1,7
 50 181 50 181 50 276 c 0,8,9
 50 367 50 367 82.5 434 c 128,-1,10
 115 501 115 501 174 538 c 128,-1,11
 233 575 233 575 312 575 c 0,12,13
 374 575 374 575 419 554.5 c 128,-1,14
 464 534 464 534 493 493.5 c 128,-1,15
 522 453 522 453 537 392 c 128,-1,16
 552 331 552 331 553 250 c 1,17,-1
 116 250 l 1,18,-1
 116 323 l 1,19,-1
 481 323 l 1,20,-1
 456 293 l 1,21,22
 453 352 453 352 444 391.5 c 128,-1,23
 435 431 435 431 418.5 454 c 128,-1,24
 402 477 402 477 376 486.5 c 128,-1,25
 350 496 350 496 312 496 c 0,26,27
 275 496 275 496 244.5 484 c 128,-1,28
 214 472 214 472 192.5 445.5 c 128,-1,29
 171 419 171 419 159.5 377 c 128,-1,30
 148 335 148 335 148 276 c 0,31,32
 148 213 148 213 162.5 172 c 128,-1,33
 177 131 177 131 203 108 c 128,-1,34
 229 85 229 85 262 75.5 c 128,-1,35
 295 66 295 66 332 66 c 0,36,37
 376 66 376 66 406.5 77.5 c 128,-1,38
 437 89 437 89 459.5 110.5 c 128,-1,39
 482 132 482 132 499 161 c 1,40,-1
 556 116 l 1,41,42
 544 92 544 92 525 71 c 128,-1,43
 506 50 506 50 478 30 c 0,44,45
 453 13 453 13 426.5 -10 c 128,-1,46
 400 -33 400 -33 376.5 -58 c 128,-1,47
 353 -83 353 -83 338.5 -106.5 c 128,-1,48
 324 -130 324 -130 324 -150 c 0,49,50
 324 -167 324 -167 335.5 -177 c 128,-1,51
 347 -187 347 -187 369 -187 c 0,52,53
 400 -187 400 -187 421 -172.5 c 128,-1,54
 442 -158 442 -158 455 -142 c 1,55,-1
 497 -182 l 1,56,57
 471 -213 471 -213 436 -232.5 c 128,-1,58
 401 -252 401 -252 346 -252 c 0,59,60
 310 -252 310 -252 280.5 -242.5 c 128,-1,61
 251 -233 251 -233 234 -213 c 128,-1,62
 217 -193 217 -193 217 -162 c 0,63,64
 217 -138 217 -138 226 -118.5 c 128,-1,65
 235 -99 235 -99 256.5 -78 c 128,-1,66
 278 -57 278 -57 316.5 -28.5 c 128,-1,67
 355 0 355 0 414 42 c 1,0,-1
EndSplineSet
EndChar

